<svg width="24" height="24" viewBox="0 0 24 24" fill="none" xmlns="http://www.w3.org/2000/svg">
<path d="M12.0004 3.93749C10.2574 3.93749 8.5536 4.45434 7.1044 5.42267C5.65519 6.391 4.52567 7.76732 3.85867 9.37759C3.19167 10.9879 3.01716 12.7598 3.35719 14.4692C3.69722 16.1787 4.53653 17.7489 5.76898 18.9814C7.00143 20.2138 8.57167 21.0531 10.2811 21.3932C11.9906 21.7332 13.7625 21.5587 15.3728 20.8917C16.983 20.2247 18.3594 19.0952 19.3277 17.646C20.296 16.1967 20.8129 14.4929 20.8129 12.75C20.8101 10.4136 19.8808 8.1737 18.2287 6.52163C16.5767 4.86956 14.3367 3.94022 12.0004 3.93749ZM12.0004 20.4375C10.4799 20.4375 8.99362 19.9866 7.72941 19.1419C6.46521 18.2972 5.47988 17.0966 4.89804 15.6919C4.31619 14.2872 4.16395 12.7415 4.46057 11.2502C4.7572 9.75901 5.48936 8.38923 6.56448 7.31411C7.63959 6.23899 9.00937 5.50683 10.5006 5.21021C11.9918 4.91358 13.5375 5.06582 14.9422 5.64767C16.3469 6.22952 17.5476 7.21484 18.3923 8.47905C19.237 9.74325 19.6879 11.2295 19.6879 12.75C19.6854 14.7881 18.8747 16.742 17.4335 18.1831C15.9924 19.6243 14.0384 20.435 12.0004 20.4375ZM5.64786 3.39749L2.64786 6.39749C2.59636 6.45276 2.53426 6.49709 2.46526 6.52783C2.39626 6.55857 2.32178 6.5751 2.24625 6.57644C2.17072 6.57777 2.0957 6.56388 2.02566 6.53559C1.95562 6.50729 1.89199 6.46519 1.83858 6.41177C1.78517 6.35836 1.74306 6.29473 1.71477 6.22469C1.68648 6.15465 1.67258 6.07963 1.67392 6.0041C1.67525 5.92857 1.69178 5.85409 1.72252 5.78509C1.75327 5.71609 1.79759 5.65399 1.85286 5.60249L4.85286 2.60249C4.90436 2.54723 4.96646 2.5029 5.03546 2.47216C5.10446 2.44141 5.17894 2.42488 5.25447 2.42355C5.32999 2.42222 5.40502 2.43611 5.47506 2.4644C5.5451 2.49269 5.60872 2.5348 5.66214 2.58821C5.71555 2.64163 5.75766 2.70525 5.78595 2.7753C5.81424 2.84534 5.82814 2.92036 5.8268 2.99589C5.82547 3.07141 5.80894 3.1459 5.7782 3.2149C5.74745 3.2839 5.70312 3.346 5.64786 3.39749ZM22.1479 6.39749C22.0424 6.50283 21.8994 6.562 21.7504 6.562C21.6013 6.562 21.4583 6.50283 21.3529 6.39749L18.3529 3.39749C18.2535 3.29086 18.1994 3.14983 18.202 3.0041C18.2045 2.85838 18.2636 2.71934 18.3666 2.61628C18.4697 2.51322 18.6087 2.45418 18.7545 2.45161C18.9002 2.44904 19.0412 2.50313 19.1479 2.60249L22.1479 5.60249C22.2532 5.70796 22.3124 5.85093 22.3124 5.99999C22.3124 6.14906 22.2532 6.29202 22.1479 6.39749ZM17.2504 12.1875C17.3995 12.1875 17.5426 12.2468 17.6481 12.3522C17.7536 12.4577 17.8129 12.6008 17.8129 12.75C17.8129 12.8992 17.7536 13.0423 17.6481 13.1477C17.5426 13.2532 17.3995 13.3125 17.2504 13.3125H12.0004C11.8512 13.3125 11.7081 13.2532 11.6026 13.1477C11.4971 13.0423 11.4379 12.8992 11.4379 12.75V7.49999C11.4379 7.35081 11.4971 7.20774 11.6026 7.10225C11.7081 6.99676 11.8512 6.93749 12.0004 6.93749C12.1495 6.93749 12.2926 6.99676 12.3981 7.10225C12.5036 7.20774 12.5629 7.35081 12.5629 7.49999V12.1875H17.2504Z" fill="#111111"/>
</svg>
