<svg width="24" height="24" viewBox="0 0 24 24" fill="none" xmlns="http://www.w3.org/2000/svg">
<path d="M9.1255 7.831C8.99219 7.38663 8.96463 6.91725 9.045 6.46033C9.12537 6.00341 9.31145 5.57161 9.58839 5.1994C9.86532 4.82719 10.2254 4.52488 10.64 4.31661C11.0546 4.10834 11.5121 3.99988 11.976 3.99988C12.4399 3.99988 12.8974 4.10834 13.312 4.31661C13.7266 4.52488 14.0867 4.82719 14.3636 5.1994C14.6406 5.57161 14.8266 6.00341 14.907 6.46033C14.9874 6.91725 14.9598 7.38663 14.8265 7.831L13.2625 13.042C13.1925 13.276 13.1575 13.393 13.1035 13.489C13.0348 13.6116 12.9411 13.7183 12.8284 13.8022C12.7157 13.8861 12.5866 13.9453 12.4495 13.976C12.3415 14 12.2195 14 11.9755 14C11.7315 14 11.6095 14 11.5015 13.976C11.3644 13.9453 11.2353 13.8861 11.1226 13.8022C11.0099 13.7183 10.9162 13.6116 10.8475 13.489C10.7935 13.393 10.7575 13.276 10.6875 13.042L9.1255 7.831Z" stroke="#111111"/>
<path d="M12 21C13.1046 21 14 20.1046 14 19C14 17.8954 13.1046 17 12 17C10.8954 17 10 17.8954 10 19C10 20.1046 10.8954 21 12 21Z" stroke="#111111"/>
</svg>
