<svg width="24" height="24" viewBox="0 0 24 24" fill="none" xmlns="http://www.w3.org/2000/svg">
<path d="M11.5 8C14 8 16 10 16 12.5C16 15 14 17 11.5 17C9 17 7 15 7 12.5C7 10 9 8 11.5 8ZM11.5 9C10.5717 9 9.6815 9.36875 9.02513 10.0251C8.36875 10.6815 8 11.5717 8 12.5C8 13.4283 8.36875 14.3185 9.02513 14.9749C9.6815 15.6313 10.5717 16 11.5 16C12.4283 16 13.3185 15.6313 13.9749 14.9749C14.6313 14.3185 15 13.4283 15 12.5C15 11.5717 14.6313 10.6815 13.9749 10.0251C13.3185 9.36875 12.4283 9 11.5 9ZM5 5H6.58579C6.851 5 7.10536 4.89464 7.29289 4.70711L8.70711 3.29289C8.89464 3.10536 9.149 3 9.41421 3H13.5858C13.851 3 14.1054 3.10536 14.2929 3.29289L15.7071 4.70711C15.8946 4.89464 16.149 5 16.4142 5H18C18.7956 5 19.5587 5.31607 20.1213 5.87868C20.6839 6.44129 21 7.20435 21 8V17C21 17.7956 20.6839 18.5587 20.1213 19.1213C19.5587 19.6839 18.7956 20 18 20H5C4.20435 20 3.44129 19.6839 2.87868 19.1213C2.31607 18.5587 2 17.7956 2 17V8C2 7.20435 2.31607 6.44129 2.87868 5.87868C3.44129 5.31607 4.20435 5 5 5ZM9.82421 4C9.559 4 9.30464 4.10536 9.11711 4.29289L7.70289 5.70711C7.51536 5.89464 7.261 6 6.99579 6H5C4.46957 6 3.96086 6.21071 3.58579 6.58579C3.21071 6.96086 3 7.46957 3 8V17C3 17.5304 3.21071 18.0391 3.58579 18.4142C3.96086 18.7893 4.46957 19 5 19H18C18.5304 19 19.0391 18.7893 19.4142 18.4142C19.7893 18.0391 20 17.5304 20 17V8C20 7.46957 19.7893 6.96086 19.4142 6.58579C19.0391 6.21071 18.5304 6 18 6H16.0042C15.739 6 15.4846 5.89464 15.2971 5.70711L13.8829 4.29289C13.6954 4.10536 13.441 4 13.1758 4H9.82421Z" />
</svg>
