<svg width="24" height="24" viewBox="0 0 24 24" fill="none" xmlns="http://www.w3.org/2000/svg">
<path d="M6.1785 18.6072C5.96155 18.8241 5.60979 18.8241 5.39283 18.6072C5.17588 18.3902 5.17588 18.0385 5.39283 17.8215L11.2143 12L5.39283 6.1785C5.17588 5.96155 5.17588 5.60979 5.39283 5.39283C5.60979 5.17588 5.96155 5.17588 6.1785 5.39283L12 11.2143L17.8215 5.39283C18.0385 5.17588 18.3902 5.17588 18.6072 5.39283C18.8241 5.60979 18.8241 5.96155 18.6072 6.1785L12.7857 12L18.6072 17.8215C18.8241 18.0385 18.8241 18.3902 18.6072 18.6072C18.3902 18.8241 18.0385 18.8241 17.8215 18.6072L12 12.7857L6.1785 18.6072Z" fill="#343434"/>
</svg>
