<svg width="24" height="24" viewBox="0 0 24 24" fill="none" xmlns="http://www.w3.org/2000/svg">
<path d="M8.66699 11.4445L11.2932 14.0707C11.6837 14.4613 12.3169 14.4612 12.7074 14.0707L22.0003 4.77783" stroke="#111111" stroke-linecap="round"/>
<path d="M22 12C22 14.2279 21.2561 16.3919 19.8862 18.1488C18.5163 19.9058 16.599 21.1549 14.4384 21.6982C12.2778 22.2414 9.99763 22.0476 7.95971 21.1475C5.92179 20.2473 4.24281 18.6925 3.18913 16.7296C2.13546 14.7666 1.76744 12.508 2.14347 10.3122C2.5195 8.11627 3.61803 6.10883 5.26479 4.60832C6.91154 3.10782 9.01221 2.20018 11.2335 2.02942C13.4548 1.85866 15.6695 2.43454 17.5263 3.66571" stroke="#111111" stroke-linecap="round"/>
</svg>
