<svg width="24" height="24" viewBox="0 0 33 32" fill="none" xmlns="http://www.w3.org/2000/svg">
<path d="M5.5 15.9999C5.5 13.1709 6.65893 10.4578 8.72183 8.45745C10.7847 6.45706 13.5826 5.33325 16.5 5.33325C19.4174 5.33325 22.2153 6.45706 24.2782 8.45745C26.3411 10.4578 27.5 13.1709 27.5 15.9999V22.7866C27.5 23.9173 27.5 24.4799 27.3268 24.9319C27.189 25.2901 26.9734 25.6154 26.6947 25.8857C26.4159 26.156 26.0805 26.365 25.7111 26.4986C25.245 26.6666 24.6634 26.6666 23.4988 26.6666H16.5C13.5826 26.6666 10.7847 25.5428 8.72183 23.5424C6.65893 21.542 5.5 18.8289 5.5 15.9999Z" fill="#6290EC" stroke="#6290EC"/>
<path d="M12.375 14.6665H20.625H12.375ZM16.5 19.9998H20.625H16.5Z" fill="#6290EC"/>
<path d="M12.375 14.6665H20.625M16.5 19.9998H20.625" stroke="#F7F7F7" stroke-linecap="round" stroke-linejoin="round"/>
</svg>
