<svg width="37" height="36" viewBox="0 0 37 36" fill="none" xmlns="http://www.w3.org/2000/svg">
<path opacity="0.5" d="M31.7736 13.0696C32.3213 12.5218 32.7558 11.8715 33.0521 11.1558C33.3485 10.4401 33.501 9.67298 33.501 8.89833C33.5009 8.12368 33.3482 7.35663 33.0517 6.64097C32.7552 5.92532 32.3207 5.27507 31.7728 4.72736C31.225 4.17965 30.5747 3.7452 29.859 3.44882C29.1433 3.15244 28.3762 2.99993 27.6016 3C26.0371 3.00014 24.5367 3.62176 23.4306 4.72811L22.1001 6.05861L22.1571 6.22511C22.813 8.10142 23.8865 9.80425 25.2966 11.2051C26.7391 12.6566 28.501 13.7508 30.4416 14.4001L31.7736 13.0696Z" fill="#FFCC74"/>
<path d="M22.1585 6L22.1 6.057L22.157 6.225C22.8129 8.10131 23.8864 9.80414 25.2965 11.205C26.7389 12.6565 28.5008 13.7507 30.4415 14.4L17.6015 27.24C16.7345 28.1055 16.301 28.539 15.824 28.911C15.2607 29.3494 14.6516 29.7256 14.0075 30.033C13.4615 30.294 12.881 30.4875 11.7185 30.8745L5.59395 32.916C5.31369 33.0099 5.01281 33.0237 4.7251 32.9561C4.43738 32.8884 4.17421 32.7419 3.96514 32.533C3.75607 32.3241 3.60937 32.0611 3.5415 31.7734C3.47364 31.4857 3.4873 31.1848 3.58095 30.9045L5.62395 24.7785C6.01095 23.6175 6.20445 23.037 6.46395 22.491C6.77295 21.845 7.14745 21.239 7.58745 20.673C7.95945 20.196 8.39295 19.764 9.25845 18.8985L22.1585 6Z" fill="#FFCF7B"/>
</svg>
