<svg width="36" height="36" viewBox="0 0 36 36" fill="none" xmlns="http://www.w3.org/2000/svg">
<path fill-rule="evenodd" clip-rule="evenodd" d="M15.696 4.92289C15.9644 4.60085 16.2974 4.33864 16.6734 4.15319C17.0494 3.96774 17.4601 3.86317 17.879 3.84621C18.2979 3.82925 18.7157 3.90028 19.1055 4.05473C19.4953 4.20917 19.8484 4.4436 20.142 4.74289L20.304 4.92289L26.202 11.9999H30.6795C30.9942 11.9992 31.3056 12.0651 31.5932 12.1931C31.8808 12.3211 32.1381 12.5084 32.3482 12.7428C32.5584 12.9772 32.7166 13.2533 32.8127 13.5531C32.9087 13.8529 32.9403 14.1695 32.9055 14.4824L32.7675 15.6314L32.6175 16.7414L32.4945 17.5724L32.352 18.4649L32.19 19.4024L32.007 20.3744L31.803 21.3659C31.695 21.8659 31.579 22.3649 31.455 22.8629C31.123 24.1805 30.7061 25.4752 30.207 26.7389L29.8755 27.5489L29.5545 28.2809L29.2515 28.9319L29.1105 29.2229L28.737 29.9579C28.257 30.8729 27.351 31.4129 26.3925 31.4909L26.1525 31.4999H9.83246C9.30806 31.5038 8.79244 31.3652 8.34068 31.0989C7.88891 30.8326 7.51797 30.4486 7.26746 29.9879L6.91946 29.3129L6.64946 28.7579L6.50696 28.4504L6.20696 27.7769C5.52191 26.1862 4.96611 24.5429 4.54496 22.8629C4.46382 22.5367 4.38582 22.2096 4.31096 21.8819L4.09796 20.9099L3.90746 19.9589L3.73946 19.0394L3.58946 18.1589L3.45896 17.3279L3.34796 16.5584L3.21296 15.5339L3.11396 14.6999L3.08846 14.4704C3.05743 14.1757 3.08531 13.8778 3.17048 13.594C3.25565 13.3101 3.39641 13.0461 3.58457 12.8172C3.77273 12.5883 4.00453 12.399 4.26649 12.2605C4.52845 12.122 4.81533 12.037 5.11046 12.0104L5.31446 11.9999H9.79796L15.696 4.92289Z" fill="#FFB651"/>
<path fill-rule="evenodd" clip-rule="evenodd" d="M18.0004 6.84277L13.7029 11.9998H22.2979L18.0004 6.84277ZM22.7464 18.0208C22.3839 17.9603 22.0117 18.035 21.7007 18.2308C21.3896 18.4266 21.1612 18.7298 21.0589 19.0828L21.0214 19.2538L20.2714 23.7538C20.2088 24.1312 20.2927 24.5182 20.5061 24.8358C20.7194 25.1533 21.046 25.3774 21.4191 25.462C21.7922 25.5467 22.1835 25.4857 22.513 25.2914C22.8426 25.0971 23.0854 24.7842 23.1919 24.4168L23.2294 24.2458L23.9794 19.7458C24.0445 19.3535 23.9511 18.9515 23.7199 18.6281C23.4887 18.3046 23.1386 18.0862 22.7464 18.0208ZM14.9419 19.0828C14.8404 18.7289 14.6123 18.4246 14.3011 18.228C13.9898 18.0314 13.6171 17.9561 13.2539 18.0165C12.8907 18.0769 12.5624 18.2688 12.3316 18.5556C12.1007 18.8424 11.9834 19.2041 12.0019 19.5718L12.0214 19.7458L12.7714 24.2458L12.8089 24.4168C12.9104 24.7707 13.1385 25.0749 13.4497 25.2715C13.761 25.4682 14.1337 25.5434 14.4969 25.483C14.8601 25.4226 15.1884 25.2308 15.4193 24.944C15.6501 24.6572 15.7675 24.2955 15.7489 23.9278L15.7294 23.7538L14.9794 19.2538L14.9419 19.0828Z" fill="#F6F6F6"/>
</svg>
