<svg width="36" height="37" viewBox="0 0 36 37" fill="none" xmlns="http://www.w3.org/2000/svg">
<path d="M21.75 33.4865V28.25C21.75 26.8475 21.75 26.147 21.4485 25.625C21.251 25.283 20.967 24.999 20.625 24.8015C20.103 24.5 19.4025 24.5 18 24.5C16.5975 24.5 15.897 24.5 15.375 24.8015C15.033 24.999 14.749 25.283 14.5515 25.625C14.25 26.147 14.25 26.8475 14.25 28.25V33.4865H21.75Z" fill="#6290EC"/>
<path opacity="0.5" fill-rule="evenodd" clip-rule="evenodd" d="M8.598 18.4999C7.263 18.4999 6.0795 17.9359 5.25 17.0494V21.4999C5.25 27.1564 5.25 29.9854 7.008 31.7419C8.4225 33.1579 10.53 33.4324 14.25 33.4864H21.75C25.47 33.4324 27.5775 33.1564 28.992 31.7419C30.75 29.9854 30.75 27.1564 30.75 21.4999V17.0509C30.1469 17.6929 29.3718 18.1479 28.5171 18.3614C27.6625 18.575 26.7645 18.5381 25.9303 18.2552C25.0961 17.9722 24.3609 17.4552 23.8125 16.7659C23.2641 16.0765 22.9256 15.2439 22.8375 14.3674L22.728 13.2754C22.7928 13.9329 22.7197 14.5967 22.5134 15.2244C22.3071 15.8521 21.9721 16.4298 21.5299 16.9207C21.0877 17.4116 20.5479 17.8048 19.9451 18.0753C19.3423 18.3458 18.6897 18.4875 18.029 18.4915C17.3683 18.4955 16.714 18.3616 16.108 18.0984C15.502 17.8352 14.9575 17.4485 14.5094 16.963C14.0613 16.4775 13.7194 15.9038 13.5056 15.2787C13.2917 14.6535 13.2107 13.9906 13.2675 13.3324L13.164 14.3674C13.0506 15.4997 12.5206 16.5494 11.6769 17.313C10.8332 18.0766 9.73594 18.4996 8.598 18.4999ZM21.75 28.2499V33.4864H14.25V28.2499C14.25 26.8474 14.25 26.1469 14.5515 25.6249C14.749 25.2829 15.033 24.9989 15.375 24.8014C15.897 24.4999 16.5975 24.4999 18 24.4999C19.4025 24.4999 20.103 24.4999 20.625 24.8014C20.967 24.9989 21.251 25.2829 21.4485 25.6249C21.75 26.1469 21.75 26.8474 21.75 28.2499Z" fill="#C6D8FF"/>
<path d="M14.25 3.5H21.75L22.728 13.2755C22.7924 13.9351 22.7181 14.601 22.5098 15.2302C22.3016 15.8594 21.9639 16.4381 21.5186 16.929C21.0733 17.4199 20.5302 17.8122 19.9242 18.0807C19.3183 18.3491 18.6628 18.4878 18 18.4878C17.3372 18.4878 16.6818 18.3491 16.0758 18.0807C15.4698 17.8122 14.9267 17.4199 14.4814 16.929C14.0361 16.4381 13.6985 15.8594 13.4902 15.2302C13.2819 14.601 13.2076 13.9351 13.272 13.2755L14.25 3.5Z" fill="#6290EC"/>
<path d="M4.99522 8.5265C5.26222 7.1915 5.39572 6.524 5.66722 5.9825C5.95027 5.4184 6.34882 4.92015 6.83698 4.52011C7.32514 4.12007 7.89199 3.8272 8.50072 3.6605C9.08571 3.5 9.76522 3.5 11.1272 3.5H14.2517L13.1642 14.3675C13.1051 14.9881 12.9202 15.5902 12.6207 16.1371C12.3213 16.6839 11.9136 17.164 11.4225 17.548C10.9314 17.9321 10.3672 18.2121 9.7643 18.3709C9.16142 18.5298 8.5325 18.5641 7.91591 18.4719C7.29932 18.3797 6.70798 18.1628 6.17796 17.8345C5.64794 17.5063 5.19036 17.0734 4.83312 16.5625C4.47588 16.0515 4.22648 15.4732 4.10013 14.8626C3.97378 14.2521 3.97313 13.6223 4.09822 13.0115L4.99522 8.5265ZM31.0052 8.5265C30.7382 7.1915 30.6047 6.524 30.3332 5.9825C30.0503 5.41856 29.652 4.9204 29.1641 4.52038C28.6762 4.12035 28.1097 3.82738 27.5012 3.6605C26.9162 3.5 26.2352 3.5 24.8732 3.5H21.7502L22.8377 14.3675C22.8951 14.9894 23.0788 15.5931 23.3776 16.1416C23.6764 16.6901 24.084 17.1718 24.5755 17.5573C25.0669 17.9428 25.6319 18.2239 26.2357 18.3834C26.8396 18.543 27.4697 18.5776 28.0874 18.4852C28.7051 18.3928 29.2974 18.1753 29.8282 17.846C30.3589 17.5167 30.8169 17.0826 31.174 16.5702C31.5311 16.0578 31.7799 15.4778 31.9051 14.8659C32.0303 14.254 32.0293 13.623 31.9022 13.0115L31.0052 8.5265Z" fill="#769FF3"/>
</svg>
