<svg width="24" height="24" viewBox="0 0 24 24" fill="none" xmlns="http://www.w3.org/2000/svg">
<path d="M6.1785 18.6073C5.96155 18.8242 5.60979 18.8242 5.39283 18.6073C5.17588 18.3903 5.17588 18.0386 5.39283 17.8216L11.2143 12.0001L5.39283 6.17863C5.17588 5.96167 5.17588 5.60991 5.39283 5.39296C5.60979 5.176 5.96155 5.176 6.1785 5.39296L12 11.2145L17.8215 5.39296C18.0385 5.176 18.3902 5.176 18.6072 5.39296C18.8241 5.60991 18.8241 5.96167 18.6072 6.17863L12.7857 12.0001L18.6072 17.8216C18.8241 18.0386 18.8241 18.3903 18.6072 18.6073C18.3902 18.8242 18.0385 18.8242 17.8215 18.6073L12 12.7858L6.1785 18.6073Z" fill="#111111"/>
</svg>
