<svg width="37" height="36" viewBox="0 0 37 36" fill="none" xmlns="http://www.w3.org/2000/svg">
<g clip-path="url(#clip0_2599_25118)">
<path d="M19.1729 31.417C18.7911 31.762 18.2099 31.7609 17.8294 31.4145L16.325 30.045C8.6 23.04 3.5 18.42 3.5 12.75C3.5 8.13 7.13 4.5 11.75 4.5C13.9557 4.5 16.0863 5.3677 17.6803 6.7953C18.1391 7.20618 18.8609 7.20618 19.3197 6.7953C20.9137 5.3677 23.0443 4.5 25.25 4.5C29.87 4.5 33.5 8.13 33.5 12.75C33.5 18.42 28.4 23.04 20.675 30.06L19.1729 31.417Z" fill="#FF7CA1"/>
<path fill-rule="evenodd" clip-rule="evenodd" d="M25.5975 18.554C26.7606 17.5393 27.7599 16.3509 28.5598 15.0308L29.0497 14.2223C29.4791 13.5139 30.4015 13.2876 31.1099 13.7169C31.8184 14.1462 32.0447 15.0686 31.6154 15.7771L31.1255 16.5855C30.1653 18.1701 28.9659 19.5966 27.5697 20.8147C26.9455 21.3593 25.9979 21.2947 25.4533 20.6704C24.9087 20.0462 24.9733 19.0986 25.5975 18.554Z" fill="#F7F7F7"/>
<circle cx="23.5" cy="22.5" r="1.5" fill="#F7F7F7"/>
</g>
<defs>
<clipPath id="clip0_2599_25118">
<rect width="36" height="36" fill="white" transform="translate(0.5)"/>
</clipPath>
</defs>
</svg>
