<svg width="24" height="24" viewBox="0 0 24 24" fill="none" xmlns="http://www.w3.org/2000/svg">
<g clip-path="url(#clip0_59_158)">
<path d="M14.0365 20.937C13.8538 20.9369 13.6747 20.8867 13.5185 20.792L10.1845 18.792C9.80939 18.5657 9.49888 18.2467 9.28292 17.8655C9.06695 17.4844 8.95281 17.0541 8.95151 16.616V12.091C8.95216 11.7716 8.85285 11.4601 8.66751 11.2L4.01251 4.65799C3.90381 4.50697 3.83895 4.32885 3.82508 4.1433C3.8112 3.95774 3.84886 3.77196 3.93389 3.60645C4.01892 3.44094 4.14802 3.30214 4.30694 3.20536C4.46587 3.10858 4.64844 3.05758 4.83451 3.05799H19.1645C19.3507 3.05722 19.5335 3.10799 19.6927 3.20469C19.8518 3.3014 19.9811 3.44026 20.0662 3.6059C20.1513 3.77154 20.1889 3.9575 20.1748 4.14319C20.1608 4.32888 20.0956 4.50706 19.9865 4.65799L15.3315 11.2C15.1458 11.46 15.0462 11.7715 15.0465 12.091V19.925C15.0462 20.193 14.9398 20.4499 14.7505 20.6396C14.5612 20.8293 14.3045 20.9362 14.0365 20.937ZM4.83451 4.06299L9.48151 10.62C9.78949 11.0484 9.95401 11.5633 9.95151 12.091V16.615C9.95188 16.8804 10.0209 17.1413 10.1517 17.3722C10.2826 17.6031 10.471 17.7963 10.6985 17.933L14.0325 19.933L14.0465 12.09C14.0443 11.5622 14.2092 11.0473 14.5175 10.619L19.1715 4.07699L4.83451 4.06299Z" fill="#111111"/>
</g>
<defs>
<clipPath id="clip0_59_158">
<rect width="24" height="24" fill="white"/>
</clipPath>
</defs>
</svg>
