<svg width="24" height="24" viewBox="0 0 24 24" fill="none" xmlns="http://www.w3.org/2000/svg">
<mask id="path-1-inside-1_59_163" fill="white">
<path fill-rule="evenodd" clip-rule="evenodd" d="M19 10.5C19 10.7358 19.1023 10.9638 19.2876 11.1095C20.337 11.9344 21 13.1475 21 14.5C21 16.9853 18.7614 19 16 19C14.8178 19 13.7315 18.6308 12.8755 18.0134C12.3696 17.6485 11.6304 17.6485 11.1245 18.0134C10.2685 18.6308 9.18218 19 8 19C5.23858 19 3 16.9853 3 14.5C3 13.1475 3.66296 11.9344 4.71236 11.1095C4.89774 10.9638 5 10.7358 5 10.5C5 8.91433 6.2051 7.57495 7.85764 7.14481C8.16969 7.06359 8.44238 6.86898 8.63337 6.60917C9.34493 5.64117 10.5869 5 12 5C13.4131 5 14.6551 5.64117 15.3666 6.60917C15.5576 6.86898 15.8303 7.06359 16.1424 7.14481C17.7949 7.57495 19 8.91433 19 10.5Z"/>
</mask>
<path d="M7.85764 7.14481L8.10953 8.11257L7.85764 7.14481ZM11.1245 18.0134L10.5395 17.2024L11.1245 18.0134ZM16.1424 7.14481L15.8905 8.11257L16.1424 7.14481ZM19.2876 11.1095L18.6696 11.8957L19.2876 11.1095ZM18.6696 11.8957C19.5066 12.5535 20 13.489 20 14.5H22C22 12.806 21.1675 11.3152 19.9056 10.3233L18.6696 11.8957ZM20 14.5C20 16.3365 18.3109 18 16 18V20C19.212 20 22 17.6341 22 14.5H20ZM16 18C15.0265 18 14.1451 17.6961 13.4605 17.2024L12.2906 18.8245C13.3178 19.5654 14.6091 20 16 20V18ZM10.5395 17.2024C9.85493 17.6961 8.97348 18 8 18V20C9.39089 20 10.6822 19.5654 11.7094 18.8245L10.5395 17.2024ZM8 18C5.68915 18 4 16.3365 4 14.5H2C2 17.6341 4.788 20 8 20V18ZM4 14.5C4 13.489 4.49344 12.5535 5.33035 11.8957L4.09436 10.3233C2.83248 11.3152 2 12.806 2 14.5H4ZM6 10.5C6 9.45941 6.80423 8.45232 8.10953 8.11257L7.60574 6.17706C5.60598 6.69757 4 8.36925 4 10.5H6ZM9.4391 7.20145C9.94983 6.50667 10.8835 6 12 6V4C10.2903 4 8.74004 4.77568 7.82764 6.01689L9.4391 7.20145ZM12 6C13.1165 6 14.0502 6.50667 14.5609 7.20145L16.1724 6.01689C15.26 4.77568 13.7097 4 12 4V6ZM15.8905 8.11257C17.1958 8.45232 18 9.45941 18 10.5H20C20 8.36926 18.394 6.69757 16.3943 6.17706L15.8905 8.11257ZM5.33035 11.8957C5.7759 11.5454 6 11.0176 6 10.5H4C4 10.454 4.01959 10.3821 4.09436 10.3233L5.33035 11.8957ZM8.10953 8.11257C8.6608 7.96908 9.12285 7.63168 9.4391 7.20145L7.82764 6.01689C7.76192 6.10629 7.67859 6.15809 7.60574 6.17706L8.10953 8.11257ZM13.4605 17.2024C12.6053 16.5855 11.3947 16.5855 10.5395 17.2024L11.7094 18.8245C11.8661 18.7115 12.1339 18.7115 12.2906 18.8245L13.4605 17.2024ZM14.5609 7.20145C14.8772 7.63168 15.3392 7.96908 15.8905 8.11257L16.3943 6.17706C16.3214 6.15809 16.2381 6.10629 16.1724 6.01689L14.5609 7.20145ZM19.9056 10.3233C19.9804 10.3821 20 10.454 20 10.5H18C18 11.0176 18.2241 11.5454 18.6696 11.8957L19.9056 10.3233Z" fill="#111111" mask="url(#path-1-inside-1_59_163)"/>
<path d="M3.34805 15.7944C3.42889 15.6152 3.60723 15.5 3.80382 15.5H20.1962C20.3928 15.5 20.5711 15.6152 20.652 15.7944L22.9076 20.7944C23.0569 21.1253 22.8149 21.5 22.4518 21.5H1.54818C1.18515 21.5 0.943123 21.1253 1.09241 20.7944L3.34805 15.7944Z" fill="#F7F7F7" stroke="#111111"/>
</svg>
