<svg width="24" height="24" viewBox="0 0 24 24" fill="none" xmlns="http://www.w3.org/2000/svg">
<g clip-path="url(#clip0_59_166)">
<mask id="path-1-inside-1_59_166" fill="white">
<path fill-rule="evenodd" clip-rule="evenodd" d="M19.8028 10.6902C21.1922 9.52434 21.4916 7.59373 20.4715 6.37802C19.4514 5.16232 17.4981 5.12188 16.1087 6.28771C14.7194 7.45353 14.42 9.38414 15.4401 10.5998C16.4602 11.8156 18.4135 11.856 19.8028 10.6902ZM9.22303 4.86012C9.53797 3.07397 11.0603 1.84942 12.6231 2.12499C14.186 2.40057 15.1977 4.07193 14.8827 5.85808C14.5678 7.64422 13.0455 8.86878 11.4826 8.5932C9.91973 8.31763 8.90808 6.64627 9.22303 4.86012ZM3.34054 7.91561C3.25586 6.57877 4.21954 5.42967 5.49298 5.349C6.76641 5.26834 7.86738 6.28667 7.95206 7.6235C8.03674 8.96034 7.07306 10.1094 5.79962 10.1901C4.52619 10.2708 3.42522 9.25244 3.34054 7.91561ZM21.7639 12.8655C22.4464 13.9437 21.98 15.4631 20.7221 16.2593C19.4643 17.0555 17.8914 16.827 17.2089 15.7488C16.5264 14.6707 16.9929 13.1512 18.2507 12.355C19.5085 11.5588 21.0815 11.7874 21.7639 12.8655ZM12.6404 10.8387C15.1928 12.3123 15.8981 15.8692 14.2158 18.7831C12.6643 21.4703 10.4615 22.2174 8.16016 20.1851C7.76721 19.8381 7.27684 19.6156 6.76265 19.5136C3.87652 18.9408 3.42559 16.1263 4.97269 13.4466C6.65506 10.5327 10.088 9.36507 12.6404 10.8387Z"/>
</mask>
<path d="M20.4715 6.37802L21.2375 5.73524L20.4715 6.37802ZM19.8028 10.6902L19.1601 9.92412L19.1601 9.92412L19.8028 10.6902ZM16.1087 6.28771L16.7515 7.05375L16.7515 7.05375L16.1087 6.28771ZM15.4401 10.5998L14.6741 11.2426L14.6741 11.2426L15.4401 10.5998ZM12.6231 2.12499L12.7968 1.14019L12.7968 1.14019L12.6231 2.12499ZM9.22303 4.86012L8.23822 4.68647L8.23822 4.68647L9.22303 4.86012ZM14.8827 5.85808L15.8675 6.03172L15.8675 6.03172L14.8827 5.85808ZM11.4826 8.5932L11.6563 7.6084L11.4826 8.5932ZM5.49298 5.349L5.55619 6.347L5.55619 6.347L5.49298 5.349ZM3.34054 7.91561L2.34254 7.97882L2.34254 7.97882L3.34054 7.91561ZM7.95206 7.6235L8.95006 7.56029L7.95206 7.6235ZM20.7221 16.2593L20.1873 15.4144L20.7221 16.2593ZM21.7639 12.8655L22.6089 12.3307L22.6089 12.3307L21.7639 12.8655ZM17.2089 15.7488L16.364 16.2837L17.2089 15.7488ZM8.16016 20.1851L8.82208 19.4356L8.16016 20.1851ZM6.76265 19.5136L6.56798 20.4945L6.56798 20.4945L6.76265 19.5136ZM19.7054 7.02081C20.2926 7.72056 20.2256 9.02999 19.1601 9.92412L20.4456 11.4562C22.1588 10.0187 22.6906 7.4669 21.2375 5.73524L19.7054 7.02081ZM16.7515 7.05375C17.8171 6.15962 19.1183 6.32107 19.7054 7.02081L21.2375 5.73524C19.7845 4.00357 17.1791 4.08415 15.466 5.52167L16.7515 7.05375ZM16.2062 9.95706C15.619 9.25732 15.6859 7.94789 16.7515 7.05375L15.466 5.52166C13.7528 6.95918 13.221 9.51097 14.6741 11.2426L16.2062 9.95706ZM19.1601 9.92412C18.0945 10.8183 16.7933 10.6568 16.2062 9.95706L14.6741 11.2426C16.1271 12.9743 18.7325 12.8937 20.4456 11.4562L19.1601 9.92412ZM12.7968 1.14019C10.5706 0.747649 8.62656 2.48407 8.23822 4.68647L10.2078 5.03377C10.4494 3.66388 11.5499 2.95118 12.4495 3.1098L12.7968 1.14019ZM15.8675 6.03172C16.2559 3.82932 15.023 1.53272 12.7968 1.14019L12.4495 3.1098C13.3491 3.26842 14.1395 4.31454 13.8979 5.68443L15.8675 6.03172ZM11.309 9.57801C13.5351 9.97055 15.4792 8.23413 15.8675 6.03172L13.8979 5.68443C13.6564 7.05432 12.5558 7.76702 11.6563 7.6084L11.309 9.57801ZM8.23822 4.68647C7.84988 6.88888 9.08278 9.18548 11.309 9.57801L11.6563 7.6084C10.7567 7.44978 9.96629 6.40366 10.2078 5.03377L8.23822 4.68647ZM5.42976 4.351C3.56001 4.46944 2.22588 6.13706 2.34254 7.97882L4.33854 7.85239C4.28585 7.02049 4.87907 6.38989 5.55619 6.347L5.42976 4.351ZM8.95006 7.56029C8.8334 5.71852 7.29951 4.23257 5.42976 4.351L5.55619 6.347C6.23331 6.30411 6.90136 6.85482 6.95406 7.68672L8.95006 7.56029ZM5.86284 11.1881C7.73259 11.0697 9.06672 9.40205 8.95006 7.56029L6.95406 7.68672C7.00675 8.51862 6.41353 9.14922 5.73641 9.19211L5.86284 11.1881ZM2.34254 7.97882C2.4592 9.82059 3.99309 11.3065 5.86284 11.1881L5.73641 9.19211C5.05929 9.235 4.39123 8.68429 4.33854 7.85239L2.34254 7.97882ZM21.257 17.1043C22.8546 16.093 23.6611 13.993 22.6089 12.3307L20.919 13.4004C21.2317 13.8944 21.1053 14.8332 20.1873 15.4144L21.257 17.1043ZM16.364 16.2837C17.4162 17.946 19.6594 18.1155 21.257 17.1043L20.1873 15.4144C19.2692 15.9955 18.3666 15.708 18.0539 15.214L16.364 16.2837ZM17.7159 11.5101C16.1183 12.5214 15.3117 14.6214 16.364 16.2837L18.0539 15.214C17.7412 14.72 17.8675 13.7811 18.7856 13.2L17.7159 11.5101ZM22.6089 12.3307C21.5566 10.6684 19.3135 10.4988 17.7159 11.5101L18.7856 13.2C19.7036 12.6188 20.6063 12.9064 20.919 13.4004L22.6089 12.3307ZM15.0818 19.2831C16.976 16.0022 16.2753 11.7826 13.1404 9.97268L12.1404 11.7047C14.1103 12.8421 14.8203 15.7361 13.3497 18.2831L15.0818 19.2831ZM7.49824 20.9347C8.81472 22.0972 10.2721 22.5987 11.721 22.2217C13.1178 21.8582 14.2388 20.7433 15.0818 19.2831L13.3497 18.2831C12.6413 19.5102 11.8852 20.1124 11.2173 20.2862C10.6016 20.4464 9.80697 20.3053 8.82208 19.4356L7.49824 20.9347ZM6.56798 20.4945C6.933 20.5669 7.25526 20.7201 7.49824 20.9347L8.82208 19.4356C8.27917 18.9561 7.62068 18.6644 6.95731 18.5327L6.56798 20.4945ZM4.10667 12.9466C3.24902 14.4321 2.87243 16.0755 3.23559 17.5148C3.6181 19.0309 4.77891 20.1394 6.56798 20.4945L6.95731 18.5327C5.86025 18.315 5.35254 17.7299 5.17482 17.0255C4.97777 16.2445 5.14927 15.1408 5.83872 13.9466L4.10667 12.9466ZM13.1404 9.97268C10.0055 8.16274 6.0009 9.66571 4.10667 12.9466L5.83872 13.9466C7.30922 11.3996 10.1705 10.5674 12.1404 11.7047L13.1404 9.97268Z" fill="#111111" mask="url(#path-1-inside-1_59_166)"/>
</g>
<defs>
<clipPath id="clip0_59_166">
<rect width="24" height="24" fill="white"/>
</clipPath>
</defs>
</svg>
