<svg width="133" height="123" viewBox="0 0 133 123" fill="none" xmlns="http://www.w3.org/2000/svg">
<g opacity="0.15">
<ellipse cx="11.9999" cy="13.1341" rx="11.9999" ry="13.1341" transform="matrix(0.999973 0.00730481 0.0739202 0.997264 21.7773 25.2441)" fill="#C5C5C5"/>
<ellipse cx="11.7154" cy="13.5031" rx="11.7154" ry="13.5031" transform="matrix(-0.655076 -0.755563 -0.827612 0.561301 119.741 71.2822)" fill="#C5C5C5"/>
<ellipse cx="13.2886" cy="15.7057" rx="13.2886" ry="15.7057" transform="matrix(0.944624 0.328155 -0.333476 0.942759 56.3247 8.5752)" fill="#C5C5C5"/>
<ellipse cx="13.1615" cy="15.8235" rx="13.1615" ry="15.8235" transform="matrix(-0.868234 -0.496155 -0.544674 0.838648 113.645 34.4141)" fill="#C5C5C5"/>
<path d="M46.3544 52.5112C26.5205 60.3379 20.9772 75.8219 20.6848 82.5856C21.0238 85.1548 22.7265 90.9377 26.8253 93.5151C31.9489 96.737 38.0458 95.617 40.0976 94.7324C41.7391 94.0247 44.5413 94.6269 45.7372 95.0164C50.5654 97.5209 48.7524 102.004 53.9851 106.244C62.5932 111.222 72.2961 107.343 74.548 104.401C88.0579 86.7495 83.7825 76.1429 82.3398 68.2965C79.6672 53.7599 70.3785 49.5177 66.2397 48.6872C60.0315 47.4415 50.8382 50.4775 46.3544 52.5112Z" fill="#C5C5C5"/>
<path d="M55.4587 69.1268C51.9678 70.4927 50.9962 73.2052 50.9468 74.3908C51.0073 74.8412 51.3089 75.8554 52.0316 76.3085C52.935 76.8748 54.0085 76.6803 54.3696 76.5259C54.6585 76.4023 55.1522 76.5087 55.363 76.5774C56.2141 77.0179 55.8961 77.8031 56.8191 78.548C58.3367 79.4233 60.0444 78.7462 60.4402 78.2312C62.8142 75.1412 62.058 73.2807 61.8015 71.9048C61.3264 69.3559 59.6891 68.6094 58.9599 68.4626C57.8661 68.2423 56.2478 68.7717 55.4587 69.1268Z" fill="#F1F1F1"/>
</g>
</svg>
