<svg width="24" height="24" viewBox="0 0 33 32" fill="none" xmlns="http://www.w3.org/2000/svg">
<g clip-path="url(#clip0_92_4296)">
<mask id="path-1-inside-1_92_4296" fill="white">
<path fill-rule="evenodd" clip-rule="evenodd" d="M27.2291 14.2535C29.1395 12.6991 29.5511 10.1249 28.1485 8.50398C26.7458 6.88304 24.0601 6.82913 22.1497 8.38356C20.2393 9.93799 19.8277 12.5121 21.2303 14.1331C22.633 15.754 25.3187 15.8079 27.2291 14.2535ZM12.6818 6.48011C13.1149 4.09858 15.208 2.46583 17.357 2.83327C19.5059 3.20071 20.897 5.42918 20.4639 7.81071C20.0309 10.1922 17.9377 11.825 15.7888 11.4576C13.6398 11.0901 12.2488 8.86164 12.6818 6.48011ZM4.59342 10.5541C4.47699 8.77165 5.80204 7.2395 7.55302 7.13195C9.30399 7.0244 10.8178 8.38217 10.9343 10.1646C11.0507 11.9471 9.72563 13.4792 7.97466 13.5868C6.22368 13.6943 4.70985 12.3365 4.59342 10.5541ZM29.9256 17.154C30.864 18.5915 30.2226 20.6174 28.4931 21.679C26.7636 22.7407 24.6008 22.4359 23.6624 20.9984C22.724 19.5609 23.3654 17.5349 25.0949 16.4733C26.8244 15.4117 28.9872 15.7164 29.9256 17.154ZM17.3808 14.4516C20.8903 16.4164 21.8601 21.1588 19.5469 25.0441C17.3617 28.7142 14.2369 29.6701 10.9893 26.7092C10.6095 26.363 10.1218 26.1463 9.60591 26.0702C5.36346 25.444 4.65664 21.5919 6.83763 17.9288C9.15089 14.0435 13.8712 12.4867 17.3808 14.4516Z"/>
</mask>
<path fill-rule="evenodd" clip-rule="evenodd" d="M27.2291 14.2535C29.1395 12.6991 29.5511 10.1249 28.1485 8.50398C26.7458 6.88304 24.0601 6.82913 22.1497 8.38356C20.2393 9.93799 19.8277 12.5121 21.2303 14.1331C22.633 15.754 25.3187 15.8079 27.2291 14.2535ZM12.6818 6.48011C13.1149 4.09858 15.208 2.46583 17.357 2.83327C19.5059 3.20071 20.897 5.42918 20.4639 7.81071C20.0309 10.1922 17.9377 11.825 15.7888 11.4576C13.6398 11.0901 12.2488 8.86164 12.6818 6.48011ZM4.59342 10.5541C4.47699 8.77165 5.80204 7.2395 7.55302 7.13195C9.30399 7.0244 10.8178 8.38217 10.9343 10.1646C11.0507 11.9471 9.72563 13.4792 7.97466 13.5868C6.22368 13.6943 4.70985 12.3365 4.59342 10.5541ZM29.9256 17.154C30.864 18.5915 30.2226 20.6174 28.4931 21.679C26.7636 22.7407 24.6008 22.4359 23.6624 20.9984C22.724 19.5609 23.3654 17.5349 25.0949 16.4733C26.8244 15.4117 28.9872 15.7164 29.9256 17.154ZM17.3808 14.4516C20.8903 16.4164 21.8601 21.1588 19.5469 25.0441C17.3617 28.7142 14.2369 29.6701 10.9893 26.7092C10.6095 26.363 10.1218 26.1463 9.60591 26.0702C5.36346 25.444 4.65664 21.5919 6.83763 17.9288C9.15089 14.0435 13.8712 12.4867 17.3808 14.4516Z" fill="#343434"/>
<path d="M28.1485 8.50398L28.9047 7.84963L28.9047 7.84963L28.1485 8.50398ZM27.2291 14.2535L26.5979 13.4778L27.2291 14.2535ZM22.1497 8.38356L22.7808 9.15923L22.1497 8.38356ZM21.2303 14.1331L20.4741 14.7874L21.2303 14.1331ZM17.357 2.83327L17.5255 1.84757L17.5255 1.84757L17.357 2.83327ZM12.6818 6.48011L13.6657 6.65901L13.6657 6.65901L12.6818 6.48011ZM20.4639 7.81071L21.4478 7.98962L20.4639 7.81071ZM7.55302 7.13195L7.61433 8.13007L7.55302 7.13195ZM10.9343 10.1646L11.9321 10.0994L11.9321 10.0994L10.9343 10.1646ZM7.97466 13.5868L8.03596 14.5849L8.03597 14.5849L7.97466 13.5868ZM25.0949 16.4733L24.5718 15.6211L25.0949 16.4733ZM19.5469 25.0441L18.6876 24.5325L19.5469 25.0441ZM17.3808 14.4516L17.8693 13.579L17.3808 14.4516ZM10.9893 26.7092L10.3156 27.4482L10.9893 26.7092ZM9.60591 26.0702L9.75192 25.0809L9.75191 25.0809L9.60591 26.0702ZM6.83763 17.9288L7.69687 18.4404L6.83763 17.9288ZM27.3923 9.15833C28.3395 10.253 28.1803 12.1903 26.5979 13.4778L27.8602 15.0292C30.0987 13.2078 30.7627 9.99681 28.9047 7.84963L27.3923 9.15833ZM22.7808 9.15923C24.372 7.86452 26.4221 8.0371 27.3923 9.15833L28.9047 7.84963C27.0696 5.72897 23.7482 5.79373 21.5186 7.60789L22.7808 9.15923ZM21.9865 13.4787C21.0393 12.384 21.1985 10.4467 22.7808 9.15923L21.5186 7.60789C19.2801 9.42926 18.6161 12.6402 20.4741 14.7874L21.9865 13.4787ZM26.5979 13.4778C25.0068 14.7725 22.9567 14.6 21.9865 13.4787L20.4741 14.7874C22.3092 16.9081 25.6306 16.8433 27.8602 15.0292L26.5979 13.4778ZM17.5255 1.84757C14.7432 1.37185 12.2113 3.47814 11.698 6.3012L13.6657 6.65901C14.0185 4.71902 15.6728 3.55982 17.1884 3.81897L17.5255 1.84757ZM21.4478 7.98962C21.962 5.1616 20.3189 2.3252 17.5255 1.84757L17.1884 3.81897C18.693 4.07622 19.8319 5.69677 19.48 7.63181L21.4478 7.98962ZM15.6202 12.4432C18.4025 12.919 20.9344 10.8127 21.4478 7.98962L19.48 7.63181C19.1273 9.57181 17.4729 10.731 15.9573 10.4719L15.6202 12.4432ZM11.698 6.3012C11.1837 9.12923 12.8269 11.9656 15.6202 12.4432L15.9573 10.4719C14.4528 10.2146 13.3138 8.59405 13.6657 6.65901L11.698 6.3012ZM7.49171 6.13383C5.17096 6.27638 3.44414 8.30137 3.59554 10.6193L5.59129 10.4889C5.50984 9.24192 6.43313 8.20262 7.61433 8.13007L7.49171 6.13383ZM11.9321 10.0994C11.7809 7.78436 9.80924 5.99148 7.49171 6.13383L7.61433 8.13007C8.79875 8.05732 9.85474 8.97999 9.93638 10.2298L11.9321 10.0994ZM8.03597 14.5849C10.3567 14.4423 12.0835 12.4173 11.9321 10.0994L9.93638 10.2298C10.0178 11.4768 9.09455 12.5161 7.91335 12.5886L8.03597 14.5849ZM3.59554 10.6193C3.74677 12.9343 5.71844 14.7272 8.03596 14.5849L7.91335 12.5886C6.72893 12.6614 5.67293 11.7387 5.59129 10.4889L3.59554 10.6193ZM29.0162 22.5313C31.0806 21.2642 32.0948 18.6477 30.763 16.6073L29.0882 17.7006C29.6331 18.5353 29.3647 19.9707 27.97 20.8268L29.0162 22.5313ZM22.8251 21.545C24.1382 23.5567 26.9588 23.7942 29.0162 22.5313L27.97 20.8268C26.5683 21.6872 25.0634 21.3151 24.4998 20.4518L22.8251 21.545ZM24.5718 15.6211C22.5074 16.8882 21.4932 19.5047 22.8251 21.545L24.4998 20.4518C23.9549 19.6171 24.2233 18.1817 25.618 17.3256L24.5718 15.6211ZM30.763 16.6073C29.4498 14.5957 26.6292 14.3582 24.5718 15.6211L25.618 17.3256C27.0197 16.4652 28.5246 16.8372 29.0882 17.7006L30.763 16.6073ZM20.4061 25.5557C22.9469 21.2882 21.9669 15.8731 17.8693 13.579L16.8923 15.3241C19.8138 16.9597 20.7733 21.0294 18.6876 24.5325L20.4061 25.5557ZM10.3156 27.4482C12.0953 29.0707 14.0088 29.76 15.8854 29.339C17.7196 28.9275 19.2402 27.5139 20.4061 25.5557L18.6876 24.5325C17.6684 26.2444 16.534 27.1438 15.4476 27.3875C14.4036 27.6217 13.1309 27.3085 11.663 25.9702L10.3156 27.4482ZM9.4599 27.0595C9.79865 27.1095 10.097 27.2489 10.3156 27.4482L11.663 25.9702C11.1221 25.4771 10.445 25.1832 9.75192 25.0809L9.4599 27.0595ZM5.9784 17.4172C4.79951 19.3972 4.31619 21.5657 4.85249 23.4166C5.41274 25.3503 7.01544 26.6987 9.4599 27.0595L9.75191 25.0809C7.95392 24.8155 7.08199 23.9248 6.77347 22.86C6.44099 21.7126 6.69477 20.1235 7.69687 18.4404L5.9784 17.4172ZM17.8693 13.579C13.7973 11.2993 8.51318 13.1599 5.9784 17.4172L7.69687 18.4404C9.7886 14.9272 13.9452 13.6742 16.8923 15.3241L17.8693 13.579Z" fill="#343434" mask="url(#path-1-inside-1_92_4296)"/>
</g>
<defs>
<clipPath id="clip0_92_4296">
<rect width="33" height="32" fill="white"/>
</clipPath>
</defs>
</svg>
