<svg width="33" height="32" viewBox="0 0 33 32" fill="none" xmlns="http://www.w3.org/2000/svg">
<g clip-path="url(#clip0_92_4296)">
<path fill-rule="evenodd" clip-rule="evenodd" d="M27.2291 14.2535C29.1395 12.6991 29.5511 10.1249 28.1485 8.50398C26.7458 6.88304 24.0601 6.82913 22.1497 8.38356C20.2393 9.93799 19.8277 12.5121 21.2303 14.1331C22.633 15.754 25.3187 15.8079 27.2291 14.2535ZM12.6818 6.48011C13.1149 4.09858 15.208 2.46583 17.357 2.83327C19.5059 3.20071 20.897 5.42919 20.4639 7.81071C20.0309 10.1922 17.9377 11.825 15.7888 11.4576C13.6398 11.0901 12.2488 8.86164 12.6818 6.48011ZM4.59342 10.5541C4.47699 8.77165 5.80204 7.2395 7.55302 7.13195C9.30399 7.0244 10.8178 8.38217 10.9343 10.1646C11.0507 11.9471 9.72563 13.4792 7.97466 13.5868C6.22368 13.6943 4.70985 12.3365 4.59342 10.5541ZM29.9256 17.154C30.864 18.5915 30.2226 20.6174 28.4931 21.679C26.7636 22.7407 24.6008 22.4359 23.6624 20.9984C22.724 19.5609 23.3654 17.5349 25.0949 16.4733C26.8244 15.4117 28.9872 15.7164 29.9256 17.154ZM17.3808 14.4516C20.8903 16.4164 21.8601 21.1588 19.5469 25.0441C17.3617 28.7142 14.2369 29.6701 10.9893 26.7092C10.6095 26.363 10.1218 26.1463 9.60591 26.0702C5.36346 25.444 4.65664 21.5919 6.83763 17.9288C9.15089 14.0435 13.8712 12.4867 17.3808 14.4516Z" fill="#111111"/>
</g>
<defs>
<clipPath id="clip0_92_4296">
<rect width="33" height="32" fill="white"/>
</clipPath>
</defs>
</svg>
