<svg width="10" height="12" viewBox="0 0 10 12" fill="none" xmlns="http://www.w3.org/2000/svg">
<path fill-rule="evenodd" clip-rule="evenodd" d="M0.875 4.5C0.875 3.40598 1.3096 2.35677 2.08318 1.58318C2.85677 0.809597 3.90598 0.375 5 0.375C6.09402 0.375 7.14323 0.809597 7.91682 1.58318C8.6904 2.35677 9.125 3.40598 9.125 4.5C9.125 6.49575 8.1305 8.26425 7.172 9.51C6.64436 10.1928 6.05349 10.8244 5.40725 11.3962L5.24825 11.5312L5.2385 11.5395L5.2355 11.5417H5.23475L5 11.25L4.78475 11.5575L4.78325 11.556L4.78025 11.5538L4.7705 11.547L4.73525 11.5215L4.6085 11.4247C4.45741 11.3064 4.30984 11.1836 4.166 11.0565C3.68214 10.6289 3.23599 10.1604 2.8325 9.65625C1.865 8.44725 0.875 6.67875 0.875 4.5ZM5 11.25L4.78475 11.5575C4.85127 11.6041 4.9311 11.6278 5.01225 11.6251C5.0934 11.6223 5.17148 11.5926 5.23475 11.5417L5 11.25ZM4.9865 10.7677C5.56758 10.2451 6.10024 9.67101 6.578 9.0525C7.4945 7.86075 8.375 6.255 8.375 4.5C8.375 3.60489 8.01942 2.74645 7.38649 2.11351C6.75355 1.48058 5.89511 1.125 5 1.125C4.10489 1.125 3.24645 1.48058 2.61351 2.11351C1.98058 2.74645 1.625 3.60489 1.625 4.5C1.625 6.44625 2.51 8.05275 3.4175 9.1875C3.88301 9.76838 4.40896 10.2981 4.9865 10.7677ZM5 3.375C4.70163 3.375 4.41548 3.49353 4.2045 3.7045C3.99353 3.91548 3.875 4.20163 3.875 4.5C3.875 4.79837 3.99353 5.08452 4.2045 5.2955C4.41548 5.50647 4.70163 5.625 5 5.625C5.29837 5.625 5.58452 5.50647 5.7955 5.2955C6.00647 5.08452 6.125 4.79837 6.125 4.5C6.125 4.20163 6.00647 3.91548 5.7955 3.7045C5.58452 3.49353 5.29837 3.375 5 3.375ZM3.125 4.5C3.125 4.00272 3.32254 3.52581 3.67417 3.17417C4.02581 2.82254 4.50272 2.625 5 2.625C5.49728 2.625 5.97419 2.82254 6.32583 3.17417C6.67746 3.52581 6.875 4.00272 6.875 4.5C6.875 4.99728 6.67746 5.47419 6.32583 5.82583C5.97419 6.17746 5.49728 6.375 5 6.375C4.50272 6.375 4.02581 6.17746 3.67417 5.82583C3.32254 5.47419 3.125 4.99728 3.125 4.5Z" fill="#949494"/>
</svg>
