<svg width="24" height="24" viewBox="0 0 24 24" fill="none" xmlns="http://www.w3.org/2000/svg">
<g clip-path="url(#clip0_59_168)">
<path d="M22 12.5C22 14.5767 21.3842 16.6068 20.2304 18.3335C19.0767 20.0602 17.4368 21.406 15.5182 22.2007C13.5996 22.9955 11.4884 23.2034 9.45155 22.7982C7.41475 22.3931 5.54383 21.3931 4.07538 19.9246C2.60693 18.4562 1.6069 16.5852 1.20175 14.5484C0.79661 12.5116 1.00454 10.4004 1.79926 8.48182C2.59399 6.5632 3.9398 4.92332 5.66651 3.76957C7.39323 2.61581 9.4233 2 11.5 2" stroke="#111111" stroke-linecap="round"/>
<mask id="path-2-inside-1_59_168" fill="white">
<path d="M22 12.5C23.1046 12.5 24.0163 11.599 23.8403 10.5085C23.6861 9.55246 23.4208 8.61533 23.0485 7.71646C22.4203 6.19989 21.4996 4.8219 20.3388 3.66116C19.1781 2.50043 17.8001 1.57969 16.2835 0.951506C15.3847 0.579179 14.4475 0.313949 13.4915 0.159661C12.401 -0.0163192 11.5 0.895431 11.5 2V10.5C11.5 11.6046 12.3954 12.5 13.5 12.5H22Z"/>
</mask>
<path d="M22 12.5C23.1046 12.5 24.0163 11.599 23.8403 10.5085C23.6861 9.55246 23.4208 8.61533 23.0485 7.71646C22.4203 6.19989 21.4996 4.8219 20.3388 3.66116C19.1781 2.50043 17.8001 1.57969 16.2835 0.951506C15.3847 0.579179 14.4475 0.313949 13.4915 0.159661C12.401 -0.0163192 11.5 0.895431 11.5 2V10.5C11.5 11.6046 12.3954 12.5 13.5 12.5H22Z" stroke="#111111" stroke-width="2" mask="url(#path-2-inside-1_59_168)"/>
</g>
<defs>
<clipPath id="clip0_59_168">
<rect width="24" height="24" fill="white"/>
</clipPath>
</defs>
</svg>
