<svg width="24" height="24" viewBox="0 0 24 24" fill="none" xmlns="http://www.w3.org/2000/svg">
<path d="M9.09615 15.077L8.17515 18.737C8.15115 18.8503 8.10048 18.9353 8.02315 18.992C7.94582 19.0486 7.84848 19.077 7.73115 19.077C7.58115 19.077 7.45748 19.016 7.36015 18.894C7.26282 18.7726 7.23615 18.6386 7.28015 18.492L8.13515 15.077H5.16015C4.99348 15.077 4.85815 15.015 4.75415 14.891C4.65015 14.7676 4.62082 14.6243 4.66615 14.461C4.70282 14.3436 4.76482 14.2503 4.85215 14.181C4.93948 14.1116 5.04215 14.077 5.16015 14.077H8.38515L9.42315 9.92297H6.44815C6.28148 9.92297 6.14615 9.86131 6.04215 9.73797C5.93815 9.61464 5.90882 9.47131 5.95415 9.30797C5.99148 9.18997 6.05382 9.09631 6.14115 9.02697C6.22782 8.95764 6.33015 8.92297 6.44815 8.92297H9.67315L10.5942 5.26297C10.6188 5.14964 10.6695 5.06464 10.7462 5.00797C10.8235 4.95131 10.9212 4.92297 11.0392 4.92297C11.1892 4.92297 11.3125 4.98397 11.4092 5.10597C11.5072 5.22797 11.5338 5.36197 11.4892 5.50797L10.6352 8.92297H14.9042L15.8252 5.26297C15.8498 5.14964 15.9005 5.06464 15.9772 5.00797C16.0538 4.95131 16.1511 4.92297 16.2691 4.92297C16.4191 4.92297 16.5432 4.98397 16.6412 5.10597C16.7385 5.22797 16.7645 5.36197 16.7192 5.50797L15.8652 8.92297H18.8402C19.0068 8.92297 19.1422 8.98497 19.2462 9.10897C19.3502 9.23231 19.3798 9.37564 19.3351 9.53897C19.2978 9.65697 19.2355 9.75031 19.1482 9.81897C19.0608 9.88764 18.9582 9.92231 18.8402 9.92297H15.6152L14.5772 14.077H17.5522C17.7188 14.077 17.8542 14.139 17.9582 14.263C18.0622 14.387 18.0915 14.5303 18.0462 14.693C18.0095 14.8103 17.9475 14.9036 17.8602 14.973C17.7728 15.0423 17.6702 15.077 17.5522 15.077H14.3272L13.4062 18.737C13.3815 18.8503 13.3308 18.9353 13.2542 18.992C13.1775 19.0486 13.0802 19.077 12.9622 19.077C12.8122 19.077 12.6885 19.016 12.5912 18.894C12.4932 18.7726 12.4665 18.6386 12.5112 18.492L13.3662 15.077H9.09615ZM9.34615 14.077H13.6162L14.6542 9.92297H10.3842L9.34615 14.077Z" fill="#111111"/>
</svg>
