<svg width="24" height="24" viewBox="0 0 24 24" fill="none" xmlns="http://www.w3.org/2000/svg">
<path fill-rule="evenodd" clip-rule="evenodd" d="M11.5212 5.815C10.9675 5.07678 9.93488 4.07412 8.66669 3.48598C7.41468 2.90533 5.96552 2.73872 4.485 3.58473L4.46018 3.59891L4.43389 3.61018C3.85312 3.85908 2.99963 4.51244 2.45726 5.65545C1.92113 6.78532 1.67287 8.42924 2.35145 10.6912C2.61618 11.5736 3.23979 12.4842 4.00938 13.3748C4.60993 14.0697 5.26959 14.7202 5.87457 15.3166C6.04268 15.4824 6.20656 15.644 6.36378 15.8012C7.68839 17.1258 10.5248 19.6131 12.0002 20.8833C13.4756 19.6131 16.3121 17.1258 17.6367 15.8012C17.7939 15.644 17.9578 15.4824 18.1259 15.3166L18.1259 15.3166C18.7309 14.7201 19.3905 14.0697 19.9911 13.3748C20.7607 12.4842 21.3843 11.5736 21.649 10.6912C22.3276 8.42924 22.0793 6.78532 21.5432 5.65545C21.0008 4.51244 20.1473 3.85908 19.5666 3.61018L19.5403 3.59891L19.5155 3.58473C18.0349 2.73872 16.5858 2.90533 15.3338 3.48598C14.0656 4.07412 13.0329 5.07678 12.4792 5.815C12.3641 5.96858 12.1775 6.03703 12.0002 6.00882C11.823 6.03703 11.6364 5.96858 11.5212 5.815ZM12.0002 4.81702C11.3362 4.04646 10.3185 3.14974 9.08742 2.57879C7.62689 1.90144 5.83448 1.67301 4.01322 2.70264C3.21846 3.05164 2.19626 3.87284 1.55381 5.22675C0.897901 6.60904 0.653576 8.5117 1.39363 10.9785C1.72 12.0664 2.45592 13.1065 3.25274 14.0286C3.88226 14.7571 4.5803 15.4452 5.18832 16.0445L5.18835 16.0446C5.35201 16.2059 5.50915 16.3608 5.65668 16.5083C7.09117 17.9428 10.2191 20.6742 11.5958 21.8543C11.7118 21.9537 11.8603 21.9907 12.0002 21.9684C12.1402 21.9907 12.2886 21.9537 12.4046 21.8543C13.7814 20.6742 16.9093 17.9428 18.3438 16.5083C18.4912 16.3609 18.6482 16.2061 18.8118 16.0449L18.8121 16.0445C19.4202 15.4452 20.1182 14.7571 20.7477 14.0286C21.5445 13.1065 22.2805 12.0664 22.6068 10.9785C23.3469 8.5117 23.1026 6.60904 22.4467 5.22675C21.8042 3.87284 20.782 3.05164 19.9872 2.70264C18.166 1.67301 16.3736 1.90144 14.913 2.57879C13.6819 3.14974 12.6643 4.04646 12.0002 4.81702Z" fill="#111111"/>
</svg>
