<svg width="24" height="24" viewBox="0 0 24 24" fill="none" xmlns="http://www.w3.org/2000/svg">
<path fill-rule="evenodd" clip-rule="evenodd" d="M11.5193 5.815C10.9656 5.07678 9.93293 4.07412 8.66474 3.48598C7.41273 2.90533 5.96357 2.73872 4.48305 3.58473L4.45822 3.59891L4.43194 3.61018C3.85116 3.85908 2.99768 4.51244 2.45531 5.65545C1.91917 6.78532 1.67091 8.42924 2.3495 10.6912C2.61423 11.5736 3.23784 12.4842 4.00742 13.3748C4.60797 14.0697 5.26763 14.7202 5.87261 15.3166C6.04072 15.4824 6.20461 15.644 6.36183 15.8012C7.68644 17.1258 10.5229 19.6131 11.9983 20.8833C13.4737 19.6131 16.3101 17.1258 17.6347 15.8012C17.792 15.644 17.9558 15.4824 18.1239 15.3166L18.124 15.3166C18.7289 14.7201 19.3886 14.0697 19.9891 13.3748C20.7587 12.4842 21.3823 11.5736 21.6471 10.6912C22.3256 8.42924 22.0774 6.78532 21.5412 5.65545C20.9989 4.51244 20.1454 3.85908 19.5646 3.61018L19.5383 3.59891L19.5135 3.58473C18.033 2.73872 16.5838 2.90533 15.3318 3.48598C14.0636 4.07412 13.031 5.07678 12.4773 5.815C12.3621 5.96858 12.1755 6.03703 11.9983 6.00882C11.821 6.03703 11.6344 5.96858 11.5193 5.815ZM11.9983 4.81702C11.3342 4.04646 10.3166 3.14974 9.08547 2.57879C7.62494 1.90144 5.83253 1.67301 4.01127 2.70264C3.2165 3.05164 2.1943 3.87284 1.55186 5.22675C0.895947 6.60904 0.651623 8.5117 1.39167 10.9785C1.71804 12.0664 2.45396 13.1065 3.25079 14.0286C3.88031 14.7571 4.57834 15.4452 5.18636 16.0445L5.18639 16.0446C5.35006 16.2059 5.5072 16.3608 5.65472 16.5083C7.08922 17.9428 10.2171 20.6742 11.5939 21.8543C11.7099 21.9537 11.8583 21.9907 11.9983 21.9684C12.1382 21.9907 12.2867 21.9537 12.4027 21.8543C13.7794 20.6742 16.9073 17.9428 18.3418 16.5083C18.4893 16.3609 18.6463 16.2061 18.8098 16.0449L18.8102 16.0445C19.4182 15.4452 20.1162 14.7571 20.7458 14.0286C21.5426 13.1065 22.2785 12.0664 22.6049 10.9785C23.3449 8.5117 23.1006 6.60904 22.4447 5.22675C21.8023 3.87284 20.7801 3.05164 19.9853 2.70264C18.164 1.67301 16.3716 1.90144 14.9111 2.57879C13.68 3.14974 12.6623 4.04646 11.9983 4.81702Z" fill="#111111"/>
</svg>
