<svg width="28" height="27" viewBox="0 0 28 27" fill="none" xmlns="http://www.w3.org/2000/svg">
<path d="M13.3492 1.5577L3.92329 9.63706C3.66016 9.8626 3.53256 10.2083 3.58607 10.5507L5.86787 25.1543C5.94393 25.641 6.3632 25.9999 6.85588 25.9999H21.1441C21.6368 25.9999 22.0561 25.641 22.1321 25.1543L24.4139 10.5507C24.4674 10.2083 24.3398 9.8626 24.0767 9.63706L14.6508 1.5577C14.2763 1.23671 13.7237 1.23671 13.3492 1.5577Z" fill="#343434" stroke="#343434"/>
<path d="M10.5 20.4343C10.5 18.5013 12.067 16.9343 14 16.9343C15.933 16.9343 17.5 18.5013 17.5 20.4343V25.9343H10.5V20.4343Z" fill="#343434" stroke="#F7F7F7"/>
<path d="M3.56641 9.9425L5.77495 25.0868C5.84661 25.5782 6.26794 25.9425 6.76448 25.9425H21.3683C21.8649 25.9425 22.2862 25.5782 22.3579 25.0868L24.5664 9.9425" stroke="#343434" stroke-linecap="round"/>
<path d="M0.667969 12.2608L13.3451 1.23722C13.7214 0.910025 14.2812 0.910024 14.6575 1.23722L27.3346 12.2608" stroke="#343434" stroke-linecap="round"/>
</svg>
