<svg width="32" height="32" viewBox="0 0 32 32" fill="none" xmlns="http://www.w3.org/2000/svg">
<path fill-rule="evenodd" clip-rule="evenodd" d="M15.0576 4.39063C15.3076 4.14066 15.6467 4.00024 16.0002 4.00024C16.3538 4.00024 16.6928 4.14066 16.9429 4.39063L24.9429 12.3906L27.6096 15.0573C27.8524 15.3088 27.9868 15.6456 27.9838 15.9952C27.9807 16.3448 27.8405 16.6792 27.5933 16.9264C27.3461 17.1736 27.0117 17.3138 26.6621 17.3169C26.3125 17.3199 25.9757 17.1855 25.7242 16.9426L25.3336 16.552V25.3333C25.3336 26.0405 25.0526 26.7188 24.5525 27.2189C24.0524 27.719 23.3741 28 22.6669 28H18.6669C18.3133 28 17.9741 27.8595 17.7241 27.6094C17.474 27.3594 17.3336 27.0202 17.3336 26.6666V22.6666H14.6669V26.6666C14.6669 27.0202 14.5264 27.3594 14.2764 27.6094C14.0263 27.8595 13.6872 28 13.3336 28H9.33355C8.62631 28 7.94803 27.719 7.44793 27.2189C6.94784 26.7188 6.66688 26.0405 6.66688 25.3333V16.552L6.27622 16.9426C6.02475 17.1855 5.68794 17.3199 5.33835 17.3169C4.98875 17.3138 4.65434 17.1736 4.40713 16.9264C4.15992 16.6792 4.01969 16.3448 4.01665 15.9952C4.01361 15.6456 4.14801 15.3088 4.39088 15.0573L7.05755 12.3906L15.0576 4.39063Z" fill="#111111"/>
</svg>
