<svg width="23" height="23" viewBox="0 0 28 27" fill="none" xmlns="http://www.w3.org/2000/svg">
<path d="M13.3492 1.55782L3.92329 9.63718C3.66016 9.86272 3.53256 10.2084 3.58607 10.5508L5.86787 25.1544C5.94393 25.6412 6.3632 26 6.85588 26H21.1441C21.6368 26 22.0561 25.6412 22.1321 25.1544L24.4139 10.5508C24.4674 10.2084 24.3398 9.86272 24.0767 9.63718L14.6508 1.55782C14.2763 1.23683 13.7237 1.23683 13.3492 1.55782Z" fill="#343434" stroke="#343434"/>
<path d="M10.5 20.4343C10.5 18.5013 12.067 16.9343 14 16.9343C15.933 16.9343 17.5 18.5013 17.5 20.4343V25.9343H10.5V20.4343Z" fill="#343434" stroke="#F7F7F7"/>
<path d="M3.56543 9.94263L5.77397 25.0869C5.84563 25.5783 6.26696 25.9426 6.76351 25.9426H21.3674C21.8639 25.9426 22.2852 25.5783 22.3569 25.0869L24.5654 9.94263" stroke="#343434" stroke-linecap="round"/>
<path d="M0.666992 12.261L13.3441 1.23734C13.7204 0.910147 14.2802 0.910146 14.6565 1.23734L27.3337 12.261" stroke="#343434" stroke-linecap="round"/>
</svg>
