<svg width="24" height="24" viewBox="0 0 24 24" fill="none" xmlns="http://www.w3.org/2000/svg">
<mask id="path-1-outside-1_59_159" maskUnits="userSpaceOnUse" x="2" y="2" width="20" height="20" fill="black">
<rect fill="white" x="2" y="2" width="20" height="20"/>
<path fill-rule="evenodd" clip-rule="evenodd" d="M15.0001 4C15.0001 3.44772 14.5524 3 14.0001 3H10.0001C9.44779 3 9.00007 3.44771 9.00007 4V7.99971C9.00007 8.55199 8.55236 8.99971 8.00007 8.99971H4C3.44771 8.99971 3 9.44742 3 9.99971V13.9997C3 14.552 3.44772 14.9997 4 14.9997H8.00007C8.55236 14.9997 9.00007 15.4474 9.00007 15.9997V20C9.00007 20.5523 9.44779 21 10.0001 21H14.0001C14.5524 21 15.0001 20.5523 15.0001 20V15.9997C15.0001 15.4474 15.4478 14.9997 16.0001 14.9997H20C20.5523 14.9997 21 14.552 21 13.9997V9.99971C21 9.44742 20.5523 8.99971 20 8.99971H16.0001C15.4478 8.99971 15.0001 8.55199 15.0001 7.99971V4Z"/>
</mask>
<path d="M10.0001 4H14.0001V2H10.0001V4ZM10.0001 7.99971V4H8.00007V7.99971H10.0001ZM8.00007 7.99971H4V9.99971H8.00007V7.99971ZM2 9.99971V13.9997H4V9.99971H2ZM4 15.9997H8.00007V13.9997H4V15.9997ZM10.0001 20V15.9997H8.00007V20H10.0001ZM14.0001 20H10.0001V22H14.0001V20ZM14.0001 15.9997V20H16.0001V15.9997H14.0001ZM16.0001 15.9997H20V13.9997H16.0001V15.9997ZM22 13.9997V9.99971H20V13.9997H22ZM20 7.99971H16.0001V9.99971H20V7.99971ZM14.0001 4V7.99971H16.0001V4H14.0001ZM16.0001 7.99971V7.99971H14.0001C14.0001 9.10428 14.8955 9.99971 16.0001 9.99971V7.99971ZM22 9.99971C22 8.89514 21.1046 7.99971 20 7.99971V9.99971H22ZM20 15.9997C21.1046 15.9997 22 15.1043 22 13.9997H20V15.9997ZM16.0001 15.9997V13.9997C14.8955 13.9997 14.0001 14.8951 14.0001 15.9997H16.0001ZM14.0001 22C15.1046 22 16.0001 21.1046 16.0001 20H14.0001V22ZM8.00007 20C8.00007 21.1046 8.8955 22 10.0001 22V20H10.0001H8.00007ZM8.00007 15.9997L8.00007 15.9997H10.0001C10.0001 14.8951 9.10464 13.9997 8.00007 13.9997V15.9997ZM2 13.9997C2 15.1043 2.89543 15.9997 4 15.9997V13.9997H2ZM4 7.99971C2.89543 7.99971 2 8.89514 2 9.99971H4H4V7.99971ZM8.00007 7.99971V9.99971C9.10464 9.99971 10.0001 9.10428 10.0001 7.99971H8.00007ZM14.0001 4V4H16.0001C16.0001 2.89543 15.1046 2 14.0001 2V4ZM10.0001 2C8.8955 2 8.00007 2.89543 8.00007 4H10.0001V4V2Z" fill="#111111" mask="url(#path-1-outside-1_59_159)"/>
</svg>
