<svg width="50" height="51" viewBox="0 0 50 51" fill="none" xmlns="http://www.w3.org/2000/svg">
<g clip-path="url(#clip0_1_178)">
<rect width="50" height="51" rx="25" fill="#393939"/>
<path d="M34.6116 16.1151C34.6116 16.0298 34.6211 15.8923 34.6401 15.7027C34.6685 15.513 34.6828 15.3708 34.6828 15.276C34.7112 14.9821 34.7349 14.3563 34.7539 13.3987V11.8769C34.7539 11.7252 34.8392 11.6114 35.0099 11.5356C35.3796 11.3744 36.195 11.2843 37.4561 11.2653C37.4656 11.2653 37.5035 11.2796 37.5699 11.308C37.5888 11.6114 37.6125 11.9907 37.641 12.4458C37.6789 12.8914 37.6979 13.2043 37.6979 13.3844C37.7073 13.5551 37.7026 13.8348 37.6836 14.2236C37.6742 14.6123 37.6457 15.0864 37.5983 15.6458C37.5888 15.7406 37.5556 16.0393 37.4988 16.5418C37.4419 17.0348 37.4087 17.3335 37.3992 17.4378C37.3708 17.6653 37.2428 17.7791 37.0152 17.7791C36.9109 17.7696 36.5885 17.7649 36.0481 17.7649C35.5076 17.7649 35.1568 17.7602 34.9956 17.7507C34.7302 17.7507 34.5974 17.3477 34.5974 16.5418C34.5974 16.5228 34.5974 16.4564 34.5974 16.3427C34.6069 16.2194 34.6116 16.1436 34.6116 16.1151ZM31.0419 14.0244C30.6721 14.0244 30.4872 14.1477 30.4872 14.3942C30.4777 14.527 30.473 14.655 30.473 14.7782C30.473 14.911 30.5156 15.02 30.601 15.1053C30.6958 15.1907 30.8143 15.2476 30.9565 15.276C31.2694 15.3139 31.6866 15.3424 32.2081 15.3613C32.5779 15.3803 32.8528 15.4799 33.033 15.66C33.2226 15.8402 33.2416 16.1104 33.0899 16.4707C33.0899 16.4802 33.0851 16.4944 33.0756 16.5133C33.0567 16.5987 33.0377 16.7267 33.0188 16.8973C32.9998 17.0585 32.9808 17.1913 32.9619 17.2956C32.9429 17.3904 32.905 17.4899 32.8481 17.5942C32.7912 17.6985 32.7106 17.7696 32.6063 17.8076C32.3788 17.9024 32.0327 17.9498 31.5681 17.9498C31.3974 17.9687 30.563 18.0161 29.065 18.092C27.5574 18.0067 26.742 17.9593 26.6188 17.9498C26.1921 17.9119 25.8887 17.7981 25.7085 17.6084C25.5284 17.4188 25.4241 17.1059 25.3956 16.6698C25.3198 15.4562 25.2913 14.5791 25.3103 14.0387C25.3293 13.593 25.4241 12.8772 25.5948 11.8911C25.6611 11.5498 25.8839 11.3933 26.2632 11.4218C26.4054 11.4313 26.7752 11.4502 27.3725 11.4787C27.9699 11.5071 28.3254 11.5261 28.4392 11.5356C28.5056 11.545 28.6762 11.5924 28.9512 11.6778C29.2262 11.7536 29.3873 11.7963 29.4348 11.8058C29.9468 11.9101 30.3829 11.9764 30.7432 12.0049C31.075 12.0049 31.3358 12.0096 31.5254 12.0191C31.7245 12.0286 31.9426 12.057 32.1796 12.1044C32.4262 12.1519 32.6253 12.223 32.777 12.3178C32.9002 12.4031 32.9808 12.4837 33.0188 12.5596C33.0567 12.6354 33.0567 12.7444 33.0188 12.8867C33.0188 12.8962 33.014 12.9104 33.0045 12.9293C32.8718 13.4698 32.7438 13.7874 32.6205 13.8822C32.5068 13.977 32.1607 14.0244 31.5823 14.0244H31.0419ZM28.5956 15.7311C28.6336 15.7311 28.6762 15.6979 28.7236 15.6316C28.7805 15.5557 28.809 15.4941 28.809 15.4467C28.809 15.4087 28.79 15.1622 28.7521 14.7071C28.7142 14.3089 28.6573 14.0766 28.5814 14.0102C28.5056 13.9439 28.278 13.9154 27.8988 13.9249C27.8798 13.9249 27.6522 13.9628 27.2161 14.0387V15.0627C27.2161 15.3566 27.2635 15.5367 27.3583 15.6031C27.3678 15.6031 27.3915 15.6173 27.4294 15.6458C27.4673 15.6742 27.5005 15.6932 27.529 15.7027C27.6428 15.7311 27.8561 15.7453 28.169 15.7453C28.3112 15.7453 28.4534 15.7406 28.5956 15.7311ZM33.4739 22.5578C33.7204 22.5578 33.9242 22.4582 34.0854 22.2591C34.2466 22.0695 34.3272 21.8419 34.3272 21.5764C34.3272 21.1782 34.1091 20.9317 33.673 20.8369C33.2084 20.7421 32.2839 20.6947 30.8996 20.6947H30.8854C30.7527 20.6947 30.6389 20.7184 30.5441 20.7658C30.4493 20.8037 30.3687 20.8748 30.3023 20.9791C30.2454 21.0739 30.2028 21.1593 30.1743 21.2351C30.1459 21.311 30.1127 21.4247 30.0748 21.5764C30.0558 21.6428 30.0463 21.7044 30.0463 21.7613C30.0463 21.8846 30.0748 21.9889 30.1316 22.0742C30.198 22.1596 30.2976 22.2212 30.4303 22.2591C30.563 22.3065 30.6768 22.335 30.7716 22.3444C30.8665 22.3634 31.0039 22.3824 31.1841 22.4013C31.222 22.4108 31.2505 22.4156 31.2694 22.4156C31.4875 22.4345 31.8478 22.4582 32.3503 22.4867C32.8528 22.5151 33.2131 22.5388 33.4312 22.5578H33.4739ZM33.2179 24.3213C33.1515 24.3213 32.7912 24.3356 32.137 24.364C31.4922 24.4019 31.1367 24.4209 31.0703 24.4209C30.8048 24.4209 30.5678 24.4019 30.3592 24.364C30.3118 24.364 30.2454 24.3545 30.1601 24.3356C30.0842 24.3261 29.9657 24.3071 29.8045 24.2787C29.6433 24.2502 29.539 24.2313 29.4916 24.2218C29.4537 24.2218 29.3779 24.2076 29.2641 24.1791C29.1598 24.1602 29.0792 24.1364 29.0223 24.108C28.9654 24.089 28.8896 24.0606 28.7948 24.0227C28.6999 23.9942 28.5956 23.9563 28.4819 23.9089C28.169 23.7667 27.8703 23.5439 27.5859 23.2404C27.3014 22.937 27.1592 22.6431 27.1592 22.3587C27.1592 21.695 27.254 21.2019 27.4436 20.8796C27.9746 19.9883 29.065 19.4573 30.7148 19.2867C30.9328 19.2582 31.1556 19.244 31.3832 19.244C31.9426 19.244 32.6016 19.2962 33.3601 19.4004C34.1281 19.4953 34.7396 19.6043 35.1948 19.7276C35.7257 19.8793 36.105 20.0973 36.3325 20.3818C36.5696 20.6662 36.6881 21.0597 36.6881 21.5622C36.6881 22.1975 36.4368 22.7047 35.9343 23.084C35.8964 23.1124 35.8205 23.1693 35.7068 23.2547C35.6025 23.34 35.5313 23.3922 35.4934 23.4111C35.465 23.4396 35.4081 23.4822 35.3228 23.5391C35.2374 23.6055 35.171 23.6482 35.1236 23.6671C35.0857 23.6956 35.0241 23.7335 34.9388 23.7809C34.8629 23.8283 34.7918 23.8662 34.7254 23.8947C34.6685 23.9231 34.5974 23.9563 34.5121 23.9942C34.4268 24.0322 34.3367 24.0701 34.2419 24.108C33.9005 24.2407 33.5592 24.3119 33.2179 24.3213Z" fill="#F8F8F8"/>
<path d="M13.4702 13.2564C13.4702 13.2944 13.4465 13.3939 13.3991 13.5551C13.3517 13.7163 13.328 13.8064 13.328 13.8253V14.1809L15.6036 14.0244C15.7079 13.0953 15.7885 12.5122 15.8453 12.2751C15.8927 12.057 16.0871 11.8153 16.4285 11.5498C16.4853 11.5024 16.5754 11.4739 16.6987 11.4644C16.8219 11.4455 16.931 11.4502 17.0258 11.4787C17.3861 11.6114 17.6942 11.8579 17.9502 12.2182C18.2062 12.5785 18.2916 12.9673 18.2062 13.3844C18.1873 13.4793 18.083 13.9676 17.8933 14.8493C17.7132 15.7216 17.6136 16.3569 17.5947 16.7551C17.5947 16.812 17.5899 16.9021 17.5805 17.0253C17.5805 17.1391 17.5757 17.215 17.5662 17.2529C17.5662 17.2908 17.5615 17.3524 17.552 17.4378C17.5425 17.5231 17.533 17.58 17.5236 17.6084C17.5141 17.6369 17.4999 17.6843 17.4809 17.7507C17.4619 17.817 17.4382 17.8692 17.4098 17.9071C17.3908 17.9356 17.3624 17.9735 17.3245 18.0209C17.296 18.0683 17.2581 18.1157 17.2107 18.1631C17.0116 18.3622 16.765 18.4807 16.4711 18.5187C16.3953 18.5282 16.0018 18.5566 15.2907 18.604C14.7502 18.6514 14.1339 18.6087 13.4418 18.476C13.309 18.4476 12.9962 18.3812 12.5031 18.2769C12.0196 18.1726 11.7114 18.1062 11.5787 18.0778C11.171 17.9924 10.896 17.8692 10.7538 17.708C10.621 17.5373 10.5547 17.2292 10.5547 16.7836C10.5547 16.6034 10.5784 16.1625 10.6258 15.4609C10.6827 14.7498 10.7111 14.3563 10.7111 14.2804C10.7206 14.1003 10.7301 13.6831 10.7396 13.0289C10.7585 12.3747 10.768 12.0096 10.768 11.9338C10.768 11.8864 10.8059 11.82 10.8818 11.7347C10.9576 11.6493 11.0193 11.6067 11.0667 11.6067C11.7019 11.6825 12.2376 11.7773 12.6738 11.8911C13.1099 12.0049 13.3802 12.1566 13.4844 12.3462C13.5887 12.5264 13.584 12.8298 13.4702 13.2564ZM12.944 16.8547C14.1197 16.8547 14.8071 16.8452 15.0062 16.8262C15.0916 16.8167 15.1722 16.7456 15.248 16.6129C15.3239 16.4707 15.3807 16.3379 15.4187 16.2147C15.523 15.8354 15.4187 15.6458 15.1058 15.6458H12.9582C12.9487 15.8354 12.944 15.935 12.944 15.9444V16.8547ZM19.6996 15.5747C19.6996 15.5557 19.709 14.9631 19.728 13.7969C19.7565 12.6212 19.7707 12.0286 19.7707 12.0191C19.7707 11.8769 19.7991 11.7584 19.856 11.6636C19.9129 11.5593 19.9698 11.4929 20.0267 11.4644C20.0836 11.4265 20.1879 11.3696 20.3396 11.2938C20.3585 11.2843 20.4059 11.2606 20.4818 11.2227C20.5576 11.1753 20.605 11.1468 20.624 11.1373C20.643 11.1279 20.6904 11.1042 20.7662 11.0662C20.8516 11.0283 20.9085 11.0093 20.9369 11.0093C20.9653 11.0093 21.0222 10.9951 21.1076 10.9667C21.1929 10.9382 21.2545 10.9335 21.2924 10.9524C21.3304 10.9619 21.4015 10.9619 21.5058 10.9524C21.7333 10.9619 21.904 11.0046 22.0178 11.0804C22.1316 11.1468 22.1884 11.2701 22.1884 11.4502C22.1884 11.545 22.2027 12.0191 22.2311 12.8724C22.2596 13.7258 22.2785 14.1809 22.288 14.2378C22.307 14.3516 22.397 14.4179 22.5582 14.4369C23.2409 14.4843 23.6249 14.5175 23.7102 14.5364C23.8904 14.5744 24.0042 14.7071 24.0516 14.9347C24.099 15.1527 24.0942 15.3756 24.0373 15.6031C23.9899 15.8307 23.9236 16.0203 23.8382 16.172C23.7813 16.2668 23.6202 16.3332 23.3547 16.3711H22.2311V18.2058C22.2311 18.3575 22.2122 18.6372 22.1742 19.0449C22.1458 19.2724 22.013 19.391 21.776 19.4004C21.2735 19.4099 20.8373 19.4052 20.4676 19.3862C20.259 19.3767 20.0788 19.3009 19.9271 19.1587C19.7849 19.0164 19.709 18.8458 19.6996 18.6467C19.6901 17.8218 19.6901 16.7978 19.6996 15.5747ZM14.2951 19.4147C14.2951 19.4336 14.3093 19.5284 14.3378 19.6991C14.3757 19.8698 14.3947 19.9646 14.3947 19.9836C14.3947 20.0499 14.4184 20.2443 14.4658 20.5667C14.5132 20.8796 14.5416 21.0929 14.5511 21.2067C14.5701 21.3963 14.5985 21.5622 14.6365 21.7044L16.3858 21.6049C16.7935 21.5764 17.2344 21.5527 17.7085 21.5338C18.192 21.5053 18.5191 21.4864 18.6898 21.4769C18.8605 21.4674 19.0596 21.4579 19.2871 21.4484C19.5147 21.4295 19.7185 21.4105 19.8987 21.3916C20.0788 21.3726 20.2685 21.3536 20.4676 21.3347C20.6762 21.3157 20.9843 21.2825 21.392 21.2351C21.6196 21.2162 21.8045 21.2067 21.9467 21.2067C22.0984 21.2067 22.2074 21.3347 22.2738 21.5907C22.3496 21.8372 22.3876 22.1359 22.3876 22.4867C22.3876 22.809 22.3022 23.1409 22.1316 23.4822C22.0747 23.577 21.9467 23.6387 21.7476 23.6671C21.7002 23.6766 21.027 23.7193 19.728 23.7951C18.429 23.8804 17.7606 23.9279 17.7227 23.9373C17.6753 23.9468 17.6231 23.9516 17.5662 23.9516C16.3052 23.9516 15.2243 23.9753 14.3236 24.0227C14.2762 24.0227 14.1292 24.0274 13.8827 24.0369C13.6362 24.0559 13.4844 24.0653 13.4276 24.0653C12.925 24.0653 12.6027 23.9421 12.4604 23.6956C12.4036 23.6102 12.3751 23.5296 12.3751 23.4538C12.3562 23.2262 12.323 22.6431 12.2756 21.7044C12.2376 20.7658 12.2139 20.2301 12.2044 20.0973V19.884C12.195 19.7513 12.1902 19.6185 12.1902 19.4858L12.176 19.2867C12.195 19.2867 12.3562 19.2487 12.6596 19.1729C12.7639 19.1539 12.9914 19.1444 13.3422 19.1444C13.3802 19.1444 13.4323 19.1444 13.4987 19.1444C13.6504 19.1444 13.7594 19.1444 13.8258 19.1444C13.8922 19.1444 13.968 19.1539 14.0533 19.1729C14.1482 19.1919 14.2098 19.2203 14.2382 19.2582C14.2762 19.2962 14.2951 19.3483 14.2951 19.4147Z" fill="#F8F8F8"/>
<path d="M13.6107 46.4876C13.3358 47.1288 12.8657 47.7121 12.065 47.7121C11.3983 49.021 8.58342 49.0945 8.58342 46.7453C7.7439 46.5496 6.87968 45.2771 7.90085 44.115C6.96256 43.283 6.06484 41.0927 7.90085 39.1965C6.96256 38.0954 6.8056 34.9262 9.90088 34.278C9.57989 33.1524 10.2131 31.048 13.0861 31.048C12.8145 30.1915 13.2057 28.4514 15.3983 28.3927C15.5465 27.2916 16.9539 25.5422 19.3984 26.2029C19.9663 25.2485 20.954 24.502 22.79 25.5422C23.5061 24.7347 25.3985 23.8978 27.1763 25.5422C28.0406 25.1507 30.0505 24.441 31.1764 26.2029C32.2135 25.6156 34.568 25.3389 35.7532 27.5118C37.0372 27.3894 39.221 27.4531 39.6951 30.1546C40.8803 30.3014 42.4359 31.476 41.9914 33.8251C42.5099 33.9719 43.4587 34.4731 43.8433 35.8072C44.2878 37.3488 43.547 38.3765 42.6581 39.0372C42.6581 39.0372 42.0655 41.3864 39.4729 40.432C38.5562 40.6295 37.6992 42.12 37.8932 43.0375C38.0179 43.6269 38.064 44.2318 37.9914 44.8367C37.8372 46.1196 36.0989 48.8987 35.7532 49.6083L29.4727 51.9699C29.0697 52.1411 29.0039 52.4851 29.0364 52.7143C29.0925 52.6814 29.1394 52.6492 29.1764 52.6182C29.2396 53.0883 29.0736 52.9765 29.0364 52.7143C27.8552 53.4075 22.6226 54.445 21.5466 52.9852C20.4108 53.7193 18.8058 53.7193 17.991 52.2511C16.8552 52.7405 15.0121 52.8509 15.0121 50.2815C14.4689 50.0613 13.7687 48.654 14.5676 47.7121L13.74 46.5195C13.7554 46.4162 13.6519 46.3916 13.6107 46.4876Z" fill="#F8F8F8"/>
<path d="M21.423 42.7559C21.4846 43.4411 21.0861 44.0361 20.533 44.0849C19.9799 44.1337 19.4816 43.6179 19.42 42.9327C19.3584 42.2475 19.7569 41.6525 20.31 41.6037C20.8631 41.5549 21.3614 42.0707 21.423 42.7559Z" fill="black"/>
<path fill-rule="evenodd" clip-rule="evenodd" d="M24.9904 45.572C24.8555 45.1094 24.9471 44.5915 25.2811 44.196C25.8144 43.5648 26.7634 43.4846 27.4009 44.017C27.9511 44.4764 28.4862 44.68 28.9119 44.7616C29.1279 44.803 29.3159 44.8128 29.462 44.8077C29.5347 44.8052 29.5937 44.799 29.6374 44.7924C29.679 44.7861 29.7001 44.7804 29.7021 44.7799C29.7022 44.7798 29.7022 44.7798 29.7021 44.7798C30.4974 44.5432 31.3378 44.9927 31.5792 45.7839C31.8206 46.575 31.3716 47.4081 30.5763 47.6448C29.6948 47.907 28.072 47.9228 26.4325 46.9769C25.6061 48.0026 24.6308 48.5121 23.9886 48.6564C23.4497 48.7774 22.9148 48.4387 22.7938 47.8998C22.6729 47.3609 23.0117 46.826 23.5505 46.705C23.7539 46.6593 24.4103 46.3666 24.9904 45.572Z" fill="black"/>
<path d="M27.0749 51.3865C25.358 53.5619 27.0484 55.1836 28.1082 55.7225C29.8565 57.9273 43.4485 54.9141 44.5612 52.5624C45.4515 50.681 43.7134 48.5938 42.7331 47.7854C42.7331 44.9046 40.6136 43.6454 39.5538 43.3759C39.8717 40.6126 38.2556 39.8238 37.4077 39.7748C37.9641 37.6436 36.6129 36.6392 35.2617 36.6147C35.1345 35.2036 33.9105 35.0958 33.1156 35.0713C31.2716 33.8955 30.0158 34.6794 29.3799 35.3653C28.343 35.0713 26.8348 36.6147 27.3133 38.0845C24.6982 39.1207 25.5382 42.2246 27.0749 44.4048C25.5488 44.934 26.439 46.879 27.0749 47.7854C25.6124 49.0789 26.4655 50.7251 27.0749 51.3865Z" fill="#F8F8F8" stroke="black"/>
<g filter="url(#filter0_f_1_178)">
<ellipse cx="2.59229" cy="0.881046" rx="2.59229" ry="0.881046" transform="matrix(0.992554 -0.121806 0.12399 0.992284 16.8074 45.1764)" fill="#FFD3D3"/>
</g>
<path d="M14.9537 44.4507C15.5216 43.9858 16.3019 42.9825 16.0648 42.1016C16.5093 41.759 17.2649 40.7802 16.7315 39.6056" stroke="#2B2B2B" stroke-linecap="round"/>
<g filter="url(#filter1_f_1_178)">
<path fill-rule="evenodd" clip-rule="evenodd" d="M30.2056 39.5377C30.8421 39.3287 31.1748 38.5944 30.9487 37.8976C30.7226 37.2008 30.0233 36.8053 29.3868 37.0142C28.7503 37.2232 28.4177 37.9575 28.6438 38.6543C28.8699 39.3512 29.5691 39.7466 30.2056 39.5377ZM29.1371 39.8901C29.5637 40.3419 29.5141 40.9913 29.0263 41.3407C28.5386 41.6901 27.7974 41.6071 27.3708 41.1554C26.9442 40.7037 26.9937 40.0542 27.4815 39.7048C27.9692 39.3554 28.7105 39.4384 29.1371 39.8901ZM33.7531 38.9209C33.5254 39.5272 33.8046 40.099 34.3766 40.198C34.9487 40.2971 35.597 39.8858 35.8247 39.2795C36.0524 38.6732 35.7733 38.1014 35.2012 38.0024C34.6292 37.9033 33.9808 38.3146 33.7531 38.9209ZM31.5235 37.7467C31.5675 38.4866 32.1342 39.0082 32.7894 38.9119C33.4445 38.8155 33.9399 38.1376 33.896 37.3978C33.852 36.6579 33.2853 36.1363 32.6302 36.2326C31.975 36.329 31.4796 37.0069 31.5235 37.7467ZM29.5901 44.2025C29.2494 43.7379 28.8261 42.4149 29.859 40.84C30.0783 40.4664 30.5888 39.7757 31.11 39.5281C31.4574 39.363 32.3646 39.1504 33.3386 39.9733C33.3934 40.0196 33.452 40.0662 33.513 40.1148C34.0379 40.5322 34.7407 41.0912 34.7014 42.7849C34.6941 43.1001 34.1915 43.8739 33.2947 44.0014C32.9961 43.9999 32.8179 43.9047 32.6566 43.8185C32.4884 43.7286 32.3386 43.6486 32.0897 43.6948C31.9813 43.7326 31.744 43.8417 31.6617 43.976C31.5588 44.1439 31.1725 44.5427 30.6249 44.6014C30.1868 44.6484 29.7525 44.355 29.5901 44.2025Z" fill="#FFD3D3"/>
</g>
<g filter="url(#filter2_f_1_178)">
<path d="M31.4142 41.4585C31.2318 41.735 31.3059 41.9668 31.3657 42.0481C31.3943 42.0748 31.4707 42.1261 31.5478 42.1177C31.6443 42.1072 31.7125 42.0372 31.7306 42.0077C31.7452 41.9842 31.787 41.965 31.8061 41.9583C31.892 41.9423 31.9108 42.0113 32.0182 42.0117C32.1762 41.989 32.265 41.8532 32.2664 41.798C32.2747 41.4665 32.1197 41.3832 32.0273 41.3055C31.856 41.1616 31.6962 41.1991 31.6349 41.2282C31.5431 41.2717 31.4529 41.393 31.4142 41.4585Z" fill="white"/>
</g>
</g>
<defs>
<filter id="filter0_f_1_178" x="15.9143" y="43.8051" width="7.1507" height="3.85956" filterUnits="userSpaceOnUse" color-interpolation-filters="sRGB">
<feFlood flood-opacity="0" result="BackgroundImageFix"/>
<feBlend mode="normal" in="SourceGraphic" in2="BackgroundImageFix" result="shape"/>
<feGaussianBlur stdDeviation="0.5" result="effect1_foregroundBlur_1_178"/>
</filter>
<filter id="filter1_f_1_178" x="26.0806" y="35.2212" width="10.8234" height="10.3852" filterUnits="userSpaceOnUse" color-interpolation-filters="sRGB">
<feFlood flood-opacity="0" result="BackgroundImageFix"/>
<feBlend mode="normal" in="SourceGraphic" in2="BackgroundImageFix" result="shape"/>
<feGaussianBlur stdDeviation="0.5" result="effect1_foregroundBlur_1_178"/>
</filter>
<filter id="filter2_f_1_178" x="30.2989" y="40.2011" width="2.96783" height="2.91754" filterUnits="userSpaceOnUse" color-interpolation-filters="sRGB">
<feFlood flood-opacity="0" result="BackgroundImageFix"/>
<feBlend mode="normal" in="SourceGraphic" in2="BackgroundImageFix" result="shape"/>
<feGaussianBlur stdDeviation="0.5" result="effect1_foregroundBlur_1_178"/>
</filter>
<clipPath id="clip0_1_178">
<rect width="50" height="51" rx="25" fill="white"/>
</clipPath>
</defs>
</svg>
