<svg viewBox="0 0 150 150" fill="none" xmlns="http://www.w3.org/2000/svg">
<g clip-path="url(#clip0_646_14388)">
<rect width="150" height="150" rx="75" fill="#6290EC"/>
<path d="M105.835 41.1655C105.835 40.9095 105.864 40.4971 105.92 39.9282C106.006 39.3593 106.048 38.9327 106.048 38.6482C106.134 37.7664 106.205 35.8891 106.262 33.0162V28.4509C106.262 27.9958 106.518 27.6544 107.03 27.4269C108.139 26.9433 110.585 26.6731 114.368 26.6162C114.397 26.6162 114.511 26.6589 114.71 26.7442C114.767 27.6544 114.838 28.7922 114.923 30.1575C115.037 31.4944 115.094 32.4331 115.094 32.9735C115.122 33.4855 115.108 34.3247 115.051 35.4909C115.023 36.6571 114.937 38.0793 114.795 39.7575C114.767 40.042 114.667 40.938 114.496 42.4455C114.326 43.9247 114.226 44.8207 114.198 45.1335C114.112 45.8162 113.728 46.1575 113.046 46.1575C112.733 46.1291 111.766 46.1149 110.144 46.1149C108.523 46.1149 107.471 46.1007 106.987 46.0722C106.191 46.0722 105.792 44.8633 105.792 42.4455C105.792 42.3887 105.792 42.1895 105.792 41.8482C105.821 41.4784 105.835 41.2509 105.835 41.1655ZM95.1258 34.8935C94.0165 34.8935 93.4618 35.2633 93.4618 36.0029C93.4334 36.4011 93.4191 36.7851 93.4191 37.1549C93.4191 37.5531 93.5471 37.8802 93.8031 38.1362C94.0876 38.3922 94.4431 38.5629 94.8698 38.6482C95.8085 38.762 97.06 38.8473 98.6245 38.9042C99.7338 38.9611 100.559 39.2598 101.099 39.8002C101.668 40.3407 101.725 41.1513 101.27 42.2322C101.27 42.2607 101.256 42.3033 101.227 42.3602C101.17 42.6162 101.113 43.0002 101.056 43.5122C101 43.9958 100.943 44.394 100.886 44.7069C100.829 44.9913 100.715 45.29 100.544 45.6029C100.374 45.9158 100.132 46.1291 99.8191 46.2429C99.1365 46.5273 98.0982 46.6695 96.7045 46.6695C96.1925 46.7264 93.6894 46.8687 89.1951 47.0962C84.6725 46.8402 82.2262 46.698 81.8565 46.6695C80.5765 46.5558 79.6662 46.2144 79.1258 45.6455C78.5854 45.0767 78.2725 44.138 78.1871 42.8295C77.9596 39.1887 77.8742 36.5575 77.9311 34.9362C77.988 33.5993 78.2725 31.4518 78.7845 28.4935C78.9836 27.4695 79.652 27.0002 80.7898 27.0855C81.2165 27.114 82.3258 27.1709 84.1178 27.2562C85.9098 27.3415 86.9765 27.3984 87.3178 27.4269C87.5169 27.4553 88.0289 27.5975 88.8538 27.8535C89.6787 28.0811 90.1622 28.2091 90.3045 28.2375C91.8405 28.5504 93.1489 28.7495 94.2298 28.8349C95.2254 28.8349 96.0076 28.8491 96.5765 28.8775C97.1738 28.906 97.828 28.9913 98.5391 29.1335C99.2787 29.2758 99.876 29.4891 100.331 29.7735C100.701 30.0295 100.943 30.2713 101.056 30.4989C101.17 30.7264 101.17 31.0535 101.056 31.4802C101.056 31.5087 101.042 31.5513 101.014 31.6082C100.616 33.2295 100.232 34.1824 99.8618 34.4669C99.5205 34.7513 98.4822 34.8935 96.7471 34.8935H95.1258ZM87.7871 40.0135C87.9009 40.0135 88.0289 39.914 88.1711 39.7149C88.3418 39.4873 88.4271 39.3024 88.4271 39.1602C88.4271 39.0464 88.3702 38.3069 88.2565 36.9415C88.1427 35.7469 87.972 35.05 87.7445 34.8509C87.5169 34.6518 86.8342 34.5664 85.6965 34.5949C85.6396 34.5949 84.9569 34.7087 83.6485 34.9362V38.0082C83.6485 38.89 83.7907 39.4304 84.0751 39.6295C84.1036 39.6295 84.1747 39.6722 84.2885 39.7575C84.4022 39.8429 84.5018 39.8998 84.5871 39.9282C84.9285 40.0135 85.5685 40.0562 86.5071 40.0562C86.9338 40.0562 87.3605 40.042 87.7871 40.0135ZM102.422 60.4935C103.161 60.4935 103.773 60.1949 104.256 59.5975C104.74 59.0287 104.982 58.346 104.982 57.5495C104.982 56.3549 104.328 55.6153 103.019 55.3309C101.625 55.0464 98.852 54.9042 94.6991 54.9042H94.6565C94.2582 54.9042 93.9169 54.9753 93.6325 55.1175C93.348 55.2313 93.1062 55.4447 92.9071 55.7575C92.7365 56.042 92.6085 56.298 92.5231 56.5255C92.4378 56.7531 92.3382 57.0944 92.2245 57.5495C92.1676 57.7487 92.1391 57.9335 92.1391 58.1042C92.1391 58.474 92.2245 58.7869 92.3951 59.0429C92.5942 59.2989 92.8929 59.4838 93.2911 59.5975C93.6894 59.7398 94.0307 59.8251 94.3151 59.8535C94.5996 59.9104 95.012 59.9673 95.5525 60.0242C95.6662 60.0527 95.7516 60.0669 95.8085 60.0669C96.4627 60.1238 97.5436 60.1949 99.0511 60.2802C100.559 60.3655 101.64 60.4367 102.294 60.4935H102.422ZM101.654 65.7842C101.455 65.7842 100.374 65.8269 98.4111 65.9122C96.4769 66.026 95.4102 66.0829 95.2111 66.0829C94.4147 66.0829 93.7036 66.026 93.0778 65.9122C92.9356 65.9122 92.7365 65.8838 92.4805 65.8269C92.2529 65.7984 91.8974 65.7416 91.4138 65.6562C90.9302 65.5709 90.6173 65.514 90.4751 65.4855C90.3614 65.4855 90.1338 65.4429 89.7925 65.3575C89.4796 65.3007 89.2378 65.2295 89.0671 65.1442C88.8965 65.0873 88.6689 65.002 88.3845 64.8882C88.1 64.8029 87.7871 64.6891 87.4458 64.5469C86.5071 64.1202 85.6111 63.4518 84.7578 62.5415C83.9045 61.6313 83.4778 60.7495 83.4778 59.8962C83.4778 57.9051 83.7622 56.426 84.3311 55.4589C85.924 52.7851 89.1951 51.1922 94.1445 50.6802C94.7987 50.5949 95.4671 50.5522 96.1498 50.5522C97.828 50.5522 99.8049 50.7087 102.08 51.0215C104.384 51.306 106.219 51.6331 107.584 52.0029C109.177 52.458 110.315 53.1122 110.998 53.9655C111.709 54.8189 112.064 55.9993 112.064 57.5069C112.064 59.4127 111.311 60.9344 109.803 62.0722C109.689 62.1575 109.462 62.3282 109.12 62.5842C108.808 62.8402 108.594 62.9967 108.48 63.0535C108.395 63.1389 108.224 63.2669 107.968 63.4375C107.712 63.6367 107.513 63.7647 107.371 63.8215C107.257 63.9069 107.072 64.0207 106.816 64.1629C106.589 64.3051 106.376 64.4189 106.176 64.5042C106.006 64.5896 105.792 64.6891 105.536 64.8029C105.28 64.9167 105.01 65.0304 104.726 65.1442C103.702 65.5424 102.678 65.7558 101.654 65.7842Z" fill="#F7F7F7"/>
<path d="M42.4107 32.5894C42.4107 32.7032 42.3396 33.0019 42.1974 33.4854C42.0552 33.969 41.9841 34.2392 41.9841 34.2961V35.3628L48.8107 34.8934C49.1236 32.1059 49.3654 30.3566 49.5361 29.6454C49.6783 28.9912 50.2614 28.2659 51.2854 27.4694C51.4561 27.3272 51.7263 27.2419 52.0961 27.2134C52.4658 27.1566 52.793 27.1708 53.0774 27.2561C54.1583 27.6543 55.0827 28.3939 55.8507 29.4748C56.6187 30.5557 56.8747 31.7219 56.6187 32.9734C56.5618 33.2579 56.249 34.7228 55.6801 37.3681C55.1396 39.985 54.841 41.8908 54.7841 43.0854C54.7841 43.2561 54.7698 43.5263 54.7414 43.8961C54.7414 44.2374 54.7272 44.465 54.6987 44.5788C54.6987 44.6926 54.6845 44.8774 54.6561 45.1334C54.6276 45.3894 54.5992 45.5601 54.5707 45.6454C54.5423 45.7308 54.4996 45.873 54.4427 46.0721C54.3858 46.2712 54.3147 46.4277 54.2294 46.5414C54.1725 46.6268 54.0872 46.7406 53.9734 46.8828C53.8881 47.025 53.7743 47.1672 53.6321 47.3094C53.0347 47.9068 52.2952 48.2623 51.4134 48.3761C51.1858 48.4046 50.0054 48.4899 47.8721 48.6321C46.2507 48.7743 44.4018 48.6463 42.3254 48.2481C41.9272 48.1628 40.9885 47.9637 39.5094 47.6508C38.0587 47.3379 37.1343 47.1388 36.7361 47.0534C35.513 46.7974 34.6881 46.4277 34.2614 45.9441C33.8632 45.4321 33.6641 44.5077 33.6641 43.1708C33.6641 42.6303 33.7352 41.3077 33.8774 39.2028C34.0481 37.0694 34.1334 35.889 34.1334 35.6614C34.1618 35.121 34.1903 33.8694 34.2187 31.9068C34.2756 29.9441 34.3041 28.849 34.3041 28.6214C34.3041 28.4792 34.4178 28.2801 34.6454 28.0241C34.873 27.7681 35.0578 27.6401 35.2001 27.6401C37.1058 27.8677 38.713 28.1521 40.0214 28.4934C41.3298 28.8348 42.1405 29.2899 42.4534 29.8588C42.7663 30.3992 42.7521 31.3094 42.4107 32.5894ZM40.8321 43.3841C44.3592 43.3841 46.4214 43.3557 47.0187 43.2988C47.2747 43.2703 47.5165 43.057 47.7441 42.6588C47.9716 42.2321 48.1423 41.8339 48.2561 41.4641C48.569 40.3263 48.2561 39.7574 47.3174 39.7574H40.8747C40.8463 40.3263 40.8321 40.625 40.8321 40.6534V43.3841ZM61.0987 39.5441C61.0987 39.4872 61.1272 37.7094 61.1841 34.2108C61.2694 30.6837 61.3121 28.9059 61.3121 28.8774C61.3121 28.4508 61.3974 28.0952 61.5681 27.8108C61.7387 27.4979 61.9094 27.2988 62.0801 27.2134C62.2507 27.0997 62.5636 26.929 63.0187 26.7014C63.0756 26.673 63.2178 26.6019 63.4454 26.4881C63.673 26.3459 63.8152 26.2606 63.8721 26.2321C63.929 26.2037 64.0712 26.1326 64.2987 26.0188C64.5547 25.905 64.7254 25.8481 64.8107 25.8481C64.8961 25.8481 65.0667 25.8054 65.3227 25.7201C65.5787 25.6348 65.7636 25.6206 65.8774 25.6774C65.9912 25.7059 66.2045 25.7059 66.5174 25.6774C67.2001 25.7059 67.7121 25.8339 68.0534 26.0614C68.3947 26.2606 68.5654 26.6303 68.5654 27.1708C68.5654 27.4552 68.6081 28.8774 68.6934 31.4374C68.7787 33.9974 68.8356 35.3628 68.8641 35.5334C68.9209 35.8748 69.1912 36.0739 69.6747 36.1308C71.7227 36.273 72.8747 36.3726 73.1307 36.4294C73.6712 36.5432 74.0125 36.9414 74.1547 37.6241C74.297 38.2783 74.2827 38.9468 74.1121 39.6294C73.9698 40.3121 73.7707 40.881 73.5147 41.3361C73.3441 41.6206 72.8605 41.8197 72.0641 41.9334H68.6934V47.4374C68.6934 47.8926 68.6365 48.7317 68.5227 49.9548C68.4374 50.6374 68.0392 50.993 67.3281 51.0214C65.8205 51.0499 64.5121 51.0357 63.4027 50.9788C62.777 50.9503 62.2365 50.7228 61.7814 50.2961C61.3547 49.8694 61.1272 49.3574 61.0987 48.7601C61.0703 46.2854 61.0703 43.2134 61.0987 39.5441ZM44.8854 51.0641C44.8854 51.121 44.9281 51.4054 45.0134 51.9174C45.1272 52.4294 45.1841 52.7139 45.1841 52.7708C45.1841 52.9699 45.2552 53.553 45.3974 54.5201C45.5396 55.4588 45.625 56.0988 45.6534 56.4401C45.7103 57.009 45.7956 57.5068 45.9094 57.9334L51.1574 57.6348C52.3805 57.5494 53.7032 57.4783 55.1254 57.4214C56.5761 57.3361 57.5574 57.2792 58.0694 57.2508C58.5814 57.2223 59.1787 57.1939 59.8614 57.1654C60.5441 57.1086 61.1556 57.0517 61.6961 56.9948C62.2365 56.9379 62.8054 56.881 63.4027 56.8241C64.0285 56.7672 64.953 56.6677 66.1761 56.5254C66.8587 56.4686 67.4134 56.4401 67.8401 56.4401C68.2952 56.4401 68.6223 56.8241 68.8214 57.5921C69.049 58.3317 69.1627 59.2277 69.1627 60.2801C69.1627 61.2472 68.9067 62.2428 68.3947 63.2668C68.2241 63.5512 67.8401 63.7361 67.2427 63.8214C67.1005 63.8499 65.081 63.9779 61.1841 64.2054C57.2872 64.4614 55.2818 64.6037 55.1681 64.6321C55.0258 64.6606 54.8694 64.6748 54.6987 64.6748C50.9156 64.6748 47.673 64.7459 44.9707 64.8881C44.8285 64.8881 44.3876 64.9023 43.6481 64.9308C42.9085 64.9877 42.4534 65.0161 42.2827 65.0161C40.7752 65.0161 39.8081 64.6463 39.3814 63.9068C39.2107 63.6508 39.1254 63.409 39.1254 63.1814C39.0685 62.4988 38.969 60.7494 38.8267 57.9334C38.713 55.1174 38.6418 53.5103 38.6134 53.1121V52.4721C38.585 52.0739 38.5707 51.6757 38.5707 51.2774L38.5281 50.6801C38.585 50.6801 39.0685 50.5663 39.9787 50.3388C40.2916 50.2819 40.9743 50.2534 42.0267 50.2534C42.1405 50.2534 42.297 50.2534 42.4961 50.2534C42.9512 50.2534 43.2783 50.2534 43.4774 50.2534C43.6765 50.2534 43.9041 50.2819 44.1601 50.3388C44.4445 50.3957 44.6294 50.481 44.7147 50.5948C44.8285 50.7086 44.8854 50.865 44.8854 51.0641Z" fill="#F7F7F7"/>
<path d="M42.834 136.725C42.0095 138.612 40.5988 140.33 38.1952 140.33C36.1952 144.18 27.7506 144.396 27.7506 137.486C25.232 136.911 22.6394 133.168 25.7028 129.75C22.888 127.303 20.1948 120.861 25.7028 115.284C22.888 112.045 22.4171 102.724 31.7029 100.818C30.74 97.5072 32.6395 91.3177 41.2587 91.3177C40.4438 88.7987 41.6174 83.6809 48.1953 83.5082C48.6398 80.2695 52.8621 75.1242 60.1956 77.0675C61.8993 74.2606 64.8623 72.0648 70.3703 75.1242C72.5185 72.7492 78.1959 70.2878 83.5293 75.1242C86.122 73.9727 92.1517 71.8855 95.5295 77.0675C98.6407 75.3402 105.704 74.5262 109.26 80.9172C113.112 80.5574 119.663 80.7445 121.086 88.6901C124.641 89.1219 129.308 92.5765 127.975 99.4857C129.53 99.9176 132.376 101.392 133.53 105.315C134.864 109.85 132.641 112.872 129.975 114.816C129.975 114.816 128.197 121.725 120.419 118.918C117.859 119.459 115.064 119.945 112.694 119.021C114.769 122.8 116.53 127.337 115.974 131.873C115.512 135.646 110.297 143.82 109.26 145.907L90.4184 152.853C89.2094 153.356 89.012 154.368 89.1095 155.042C89.2778 154.945 89.4186 154.851 89.5295 154.759C89.7192 156.142 89.2212 155.813 89.1095 155.042C85.566 157.081 69.868 160.133 66.6402 155.839C63.2327 157.998 58.4178 157.998 55.9733 153.68C52.5658 155.119 47.0366 155.444 47.0366 147.887C45.4069 147.239 43.3064 143.1 45.7032 140.33L43.2202 136.822C43.2673 136.513 42.9593 136.438 42.834 136.725Z" fill="#F8F8F8"/>
<path d="M66.2692 125.753C66.4539 127.768 65.2584 129.518 63.5991 129.662C61.9398 129.805 60.4449 128.288 60.2602 126.273C60.0755 124.257 61.2709 122.507 62.9303 122.364C64.5896 122.22 66.0845 123.738 66.2692 125.753Z" fill="black"/>
<path fill-rule="evenodd" clip-rule="evenodd" d="M77.457 131.884C77.6313 132.685 78.577 133.211 79.784 133.282C77.6159 137.372 74.4219 138.969 73.0941 139.261C72.5547 139.38 72.2136 139.913 72.3321 140.453C72.4507 140.992 72.9841 141.333 73.5235 141.214C75.3591 140.81 78.8567 138.96 81.2945 134.685C85.9894 138.034 90.7583 137.957 92.8676 137.342C93.6668 137.109 94.1133 136.283 93.8649 135.497C93.6165 134.711 92.7673 134.262 91.9681 134.496C90.7063 134.864 86.9561 135.054 83.0928 132.318C83.7464 131.807 84.0947 131.163 83.9611 130.549C83.7254 129.465 82.0784 128.885 80.2823 129.254C78.4863 129.622 77.2213 130.8 77.457 131.884Z" fill="black"/>
<path d="M83.2249 151.137C78.0744 157.535 83.1455 162.305 86.3248 163.89C91.5697 170.375 132.346 161.512 135.684 154.596C138.355 149.062 133.141 142.923 130.2 140.546C130.2 132.073 123.841 128.369 120.662 127.577C121.615 119.449 116.767 117.129 114.223 116.985C115.893 110.717 111.839 107.763 107.785 107.691C107.404 103.54 103.732 103.223 101.347 103.151C95.8151 99.6928 92.0476 101.999 90.14 104.016C87.0292 103.151 82.5047 107.691 83.9403 112.014C76.0949 115.061 78.6149 124.19 83.2249 130.603C78.6467 132.159 81.3173 137.88 83.2249 140.546C78.8375 144.35 81.3968 149.192 83.2249 151.137Z" fill="#F8F8F8"/>
<path fill-rule="evenodd" clip-rule="evenodd" d="M94.488 102.019C92.7475 102.388 91.4138 103.396 90.5033 104.359L90.2963 104.578L90.0061 104.498C88.7209 104.14 86.9972 104.896 85.7152 106.394C84.4538 107.869 83.7672 109.906 84.4148 111.856L84.5647 112.307L84.1213 112.479C82.2519 113.206 81.0348 114.278 80.3041 115.551C79.57 116.829 79.3026 118.352 79.4108 120.014C79.628 123.35 81.3561 127.146 83.6309 130.311L84.0249 130.859L83.3859 131.076C82.3538 131.427 81.7792 131.99 81.4801 132.645C81.1729 133.318 81.1283 134.151 81.2856 135.074C81.6015 136.927 82.6993 138.952 83.6316 140.255L83.8966 140.625L83.5525 140.923C81.4996 142.703 81.0938 144.686 81.3873 146.456C81.6869 148.263 82.7231 149.873 83.5893 150.795L83.8872 151.112L83.6144 151.45C82.3713 152.995 81.768 154.411 81.5841 155.678C81.4005 156.942 81.6299 158.09 82.1043 159.107C83.0621 161.161 85.0199 162.681 86.5479 163.442L86.6452 163.491L86.7135 163.575C87.261 164.252 88.3339 164.791 89.9242 165.148C91.4966 165.501 93.4911 165.659 95.7775 165.646C100.347 165.619 106.007 164.909 111.621 163.778C117.234 162.647 122.779 161.101 127.12 159.412C129.291 158.567 131.148 157.691 132.557 156.821C133.986 155.939 134.882 155.107 135.234 154.378C136.472 151.812 135.904 149.073 134.604 146.621C133.306 144.17 131.316 142.091 129.885 140.934L129.7 140.784V140.545C129.7 132.38 123.583 128.82 120.541 128.062L120.114 127.955L120.165 127.518C120.629 123.563 119.676 121.101 118.378 119.616C117.067 118.117 115.352 117.55 114.195 117.484L113.582 117.449L113.74 116.856C114.542 113.846 113.954 111.72 112.771 110.339C111.573 108.941 109.695 108.224 107.776 108.19L107.328 108.182L107.287 107.736C107.199 106.773 106.923 106.062 106.546 105.529C106.168 104.996 105.671 104.616 105.101 104.342C103.943 103.786 102.526 103.687 101.332 103.651L101.197 103.647L101.082 103.575C98.4084 101.904 96.2143 101.654 94.488 102.019ZM101.497 102.656C98.6877 100.932 96.271 100.619 94.2809 101.041C92.4077 101.437 90.9712 102.471 89.9773 103.466C88.2252 103.145 86.2791 104.197 84.9553 105.744C83.6252 107.299 82.7883 109.499 83.3359 111.722C81.5105 112.517 80.2357 113.662 79.4368 115.053C78.5809 116.544 78.2954 118.275 78.4129 120.079C78.6345 123.483 80.2951 127.229 82.455 130.376C81.5402 130.815 80.9249 131.453 80.5704 132.23C80.1502 133.151 80.1233 134.207 80.2998 135.242C80.6216 137.129 81.6456 139.104 82.5644 140.47C80.5146 142.423 80.0717 144.635 80.4008 146.62C80.7079 148.472 81.6802 150.105 82.574 151.158C81.4116 152.691 80.7945 154.157 80.5945 155.534C80.3797 157.013 80.6511 158.357 81.198 159.53C82.2624 161.812 84.3688 163.451 86.0076 164.29C86.7824 165.185 88.099 165.763 89.705 166.124C91.3796 166.5 93.4572 166.66 95.7834 166.646C100.438 166.619 106.165 165.897 111.818 164.758C117.472 163.619 123.075 162.059 127.482 160.344C129.685 159.486 131.602 158.585 133.082 157.672C134.543 156.771 135.652 155.813 136.134 154.813C137.567 151.845 136.863 148.748 135.488 146.153C134.167 143.66 132.19 141.552 130.698 140.308C130.585 132.05 124.594 128.23 121.204 127.207C121.579 123.273 120.601 120.64 119.131 118.958C117.824 117.463 116.165 116.763 114.844 116.551C115.501 113.568 114.886 111.272 113.53 109.689C112.202 108.138 110.222 107.341 108.23 107.209C108.09 106.298 107.789 105.554 107.362 104.951C106.869 104.256 106.228 103.774 105.534 103.441C104.215 102.807 102.672 102.695 101.497 102.656Z" fill="black"/>
<g filter="url(#filter0_f_646_14388)">
<ellipse cx="7.77463" cy="2.59212" rx="7.77463" ry="2.59212" transform="matrix(0.99284 -0.119453 0.12643 0.991976 52.4229 132.872)" fill="#FFCACA"/>
</g>
<path fill-rule="evenodd" clip-rule="evenodd" d="M51.9846 116.034C52.2352 115.918 52.5324 116.027 52.6485 116.277C53.5163 118.151 53.3349 119.882 52.7562 121.268C52.249 122.483 51.4363 123.438 50.7521 124.021C51.0121 125.398 50.5529 126.799 49.867 127.991C49.1224 129.285 48.0676 130.411 47.1743 131.128C46.959 131.3 46.6443 131.266 46.4714 131.051C46.2986 130.835 46.333 130.521 46.5484 130.348C47.3588 129.697 48.3262 128.664 49.0003 127.493C49.6788 126.313 50.0175 125.072 49.7126 123.961L49.6229 123.634L49.8933 123.43C50.4999 122.971 51.3389 122.067 51.8334 120.883C52.3214 119.714 52.4733 118.279 51.7411 116.698C51.625 116.447 51.7341 116.15 51.9846 116.034Z" fill="#2B2B2B"/>
<g filter="url(#filter1_f_646_14388)">
<path fill-rule="evenodd" clip-rule="evenodd" d="M92.6173 116.287C94.5268 115.673 95.5248 113.513 94.8465 111.464C94.1682 109.414 92.0704 108.251 90.1609 108.866C88.2515 109.48 87.2535 111.64 87.9318 113.689C88.6101 115.739 90.7079 116.902 92.6173 116.287ZM89.4117 117.324C90.6915 118.653 90.5427 120.563 89.0795 121.59C87.6162 122.618 85.3926 122.374 84.1128 121.045C82.833 119.717 82.9817 117.807 84.445 116.779C85.9082 115.751 88.1319 115.995 89.4117 117.324ZM103.26 114.473C102.577 116.256 103.414 117.938 105.13 118.23C106.847 118.521 108.792 117.311 109.475 115.528C110.158 113.745 109.32 112.063 107.604 111.772C105.888 111.481 103.943 112.69 103.26 114.473ZM96.5711 111.02C96.703 113.196 98.4032 114.73 100.369 114.447C102.334 114.163 103.82 112.17 103.688 109.994C103.557 107.818 101.856 106.283 99.891 106.567C97.9256 106.85 96.4392 108.844 96.5711 111.02ZM90.7708 130.007C89.7486 128.641 88.4787 124.75 91.5775 120.118C92.2355 119.019 93.7669 116.987 95.3305 116.259C96.3729 115.774 99.0943 115.148 102.016 117.569C102.181 117.705 102.357 117.842 102.54 117.985C104.114 119.212 106.223 120.856 106.105 125.838C106.083 126.765 104.575 129.041 101.885 129.416C100.989 129.412 100.454 129.131 99.9703 128.878C99.4658 128.614 99.0164 128.378 98.2697 128.514C97.9445 128.625 97.2324 128.946 96.9855 129.341C96.677 129.835 95.5179 131.008 93.8751 131.181C92.5609 131.319 91.258 130.456 90.7708 130.007Z" fill="#FFCACA"/>
</g>
<g filter="url(#filter2_f_646_14388)">
<path d="M96.2434 121.937C95.6961 122.75 95.9185 123.432 96.098 123.671C96.1837 123.75 96.4128 123.9 96.6443 123.876C96.9337 123.845 97.1382 123.639 97.1927 123.552C97.2363 123.483 97.3619 123.426 97.4192 123.407C97.6769 123.36 97.7332 123.563 98.0555 123.564C98.5294 123.497 98.7957 123.098 98.7999 122.935C98.8249 121.96 98.36 121.715 98.0827 121.487C97.5689 121.064 97.0894 121.174 96.9056 121.259C96.63 121.388 96.3597 121.744 96.2434 121.937Z" fill="white"/>
</g>
</g>
<defs>
<filter id="filter0_f_646_14388" x="51.7432" y="130.78" width="17.4521" height="7.46924" filterUnits="userSpaceOnUse" color-interpolation-filters="sRGB">
<feFlood flood-opacity="0" result="BackgroundImageFix"/>
<feBlend mode="normal" in="SourceGraphic" in2="BackgroundImageFix" result="shape"/>
<feGaussianBlur stdDeviation="0.5" result="effect1_foregroundBlur_646_14388"/>
</filter>
<filter id="filter1_f_646_14388" x="82.2422" y="105.533" width="28.4707" height="26.6626" filterUnits="userSpaceOnUse" color-interpolation-filters="sRGB">
<feFlood flood-opacity="0" result="BackgroundImageFix"/>
<feBlend mode="normal" in="SourceGraphic" in2="BackgroundImageFix" result="shape"/>
<feGaussianBlur stdDeviation="0.5" result="effect1_foregroundBlur_646_14388"/>
</filter>
<filter id="filter2_f_646_14388" x="94.8975" y="120.18" width="4.90332" height="4.69873" filterUnits="userSpaceOnUse" color-interpolation-filters="sRGB">
<feFlood flood-opacity="0" result="BackgroundImageFix"/>
<feBlend mode="normal" in="SourceGraphic" in2="BackgroundImageFix" result="shape"/>
<feGaussianBlur stdDeviation="0.5" result="effect1_foregroundBlur_646_14388"/>
</filter>
<clipPath id="clip0_646_14388">
<rect width="150" height="150" rx="75" fill="white"/>
</clipPath>
</defs>
</svg>
