<svg width="24" height="24" viewBox="0 0 24 24" fill="none" xmlns="http://www.w3.org/2000/svg">
<mask id="path-1-inside-1_59_157" fill="white">
<path fill-rule="evenodd" clip-rule="evenodd" d="M15.399 12.2688C15.3922 12.2659 15.3908 12.2569 15.3963 12.2521C16.369 11.3927 16.9858 10.1137 16.9858 8.68538C16.9858 6.09772 14.9612 4 12.4638 4C9.96638 4 7.94183 6.09772 7.94183 8.68538C7.94183 10.0671 8.51909 11.3092 9.43735 12.1667C9.44273 12.1718 9.44105 12.1807 9.43421 12.1834C8.27418 12.6442 7.20831 13.3824 6.31949 14.3601C5.16275 15.6325 4.37486 17.2348 4.0315 18.966C3.8166 20.0494 4.73218 20.9533 5.83675 20.9533L12.3134 20.9533H18.79C19.8945 20.9533 20.8101 20.0494 20.5952 18.966C20.2519 17.2348 19.464 15.6325 18.3072 14.3601C17.4714 13.4407 16.479 12.7331 15.399 12.2688Z"/>
</mask>
<path d="M6.31949 14.3601L7.05943 15.0328L7.05943 15.0328L6.31949 14.3601ZM4.0315 18.966L3.05061 18.7714H3.0506L4.0315 18.966ZM5.83675 20.9533L5.83675 19.9533H5.83675V20.9533ZM12.3134 20.9533V21.9533V20.9533ZM20.5952 18.966L21.5761 18.7714V18.7714L20.5952 18.966ZM18.3072 14.3601L17.5673 15.0328L17.5673 15.0328L18.3072 14.3601ZM9.43735 12.1667L10.1199 11.4359L9.43735 12.1667ZM9.43421 12.1834L9.80341 13.1128L9.43421 12.1834ZM15.3963 12.2521L16.0585 13.0014L15.3963 12.2521ZM15.399 12.2688L15.004 13.1875L15.399 12.2688ZM15.9858 8.68538C15.9858 9.82162 15.4961 10.8295 14.7342 11.5027L16.0585 13.0014C17.2419 11.9558 17.9858 10.4057 17.9858 8.68538H15.9858ZM12.4638 5C14.3758 5 15.9858 6.61624 15.9858 8.68538H17.9858C17.9858 5.57919 15.5467 3 12.4638 3V5ZM8.94183 8.68538C8.94183 6.61624 10.5518 5 12.4638 5V3C9.38094 3 6.94183 5.57919 6.94183 8.68538H8.94183ZM10.1199 11.4359C9.40013 10.7637 8.94183 9.78463 8.94183 8.68538H6.94183C6.94183 10.3496 7.63804 11.8546 8.75481 12.8976L10.1199 11.4359ZM9.06502 11.254C7.7593 11.7728 6.56773 12.6004 5.57955 13.6874L7.05943 15.0328C7.84888 14.1644 8.78906 13.5157 9.80341 13.1128L9.06502 11.254ZM5.57955 13.6874C4.29428 15.1012 3.42748 16.8713 3.05061 18.7714L5.01239 19.1605C5.32223 17.5983 6.03123 16.1638 7.05943 15.0328L5.57955 13.6874ZM3.0506 18.7714C2.68625 20.6084 4.24751 21.9533 5.83675 21.9533V19.9533C5.55458 19.9533 5.31487 19.8371 5.16757 19.6806C5.02943 19.5338 4.97311 19.3585 5.01239 19.1605L3.0506 18.7714ZM5.83675 21.9533L12.3134 21.9533V19.9533L5.83675 19.9533L5.83675 21.9533ZM12.3134 21.9533H18.79V19.9533H12.3134V21.9533ZM18.79 21.9533C20.3792 21.9533 21.9405 20.6084 21.5761 18.7714L19.6143 19.1605C19.6536 19.3585 19.5973 19.5338 19.4591 19.6806C19.3118 19.8371 19.0721 19.9533 18.79 19.9533V21.9533ZM21.5761 18.7714C21.1992 16.8713 20.3324 15.1012 19.0472 13.6874L17.5673 15.0328C18.5955 16.1638 19.3045 17.5983 19.6143 19.1605L21.5761 18.7714ZM19.0472 13.6874C18.1179 12.6652 17.0088 11.8724 15.794 11.3501L15.004 13.1875C15.9492 13.5938 16.8249 14.2161 17.5673 15.0328L19.0472 13.6874ZM8.75481 12.8976C8.22493 12.4027 8.38877 11.5227 9.06502 11.254L9.80341 13.1128C10.4933 12.8387 10.6605 11.9408 10.1199 11.4359L8.75481 12.8976ZM14.7342 11.5027C14.1801 11.9923 14.322 12.8943 15.004 13.1875L15.794 11.3501C16.4625 11.6375 16.6015 12.5216 16.0585 13.0014L14.7342 11.5027Z" fill="#111111" mask="url(#path-1-inside-1_59_157)"/>
</svg>
