<svg width="24" height="24" viewBox="0 0 24 24" fill="none" xmlns="http://www.w3.org/2000/svg">
<path fill-rule="evenodd" clip-rule="evenodd" d="M9.4934 15.9171C9.51539 16.0478 9.48456 16.1819 9.40767 16.29C9.33078 16.398 9.21414 16.471 9.0834 16.4931C6.64886 16.9018 4.32916 17.8239 2.2784 19.1981C2.22387 19.2359 2.16234 19.2626 2.09741 19.2764C2.03247 19.2902 1.96543 19.291 1.90019 19.2787C1.83496 19.2663 1.77284 19.2411 1.71745 19.2045C1.66206 19.1679 1.61452 19.1206 1.5776 19.0654C1.54068 19.0103 1.51512 18.9483 1.50241 18.8831C1.4897 18.8179 1.4901 18.7509 1.50358 18.6859C1.51705 18.6209 1.54335 18.5592 1.58092 18.5045C1.61849 18.4497 1.66658 18.403 1.7224 18.3671C3.89074 16.9142 6.34336 15.9393 8.9174 15.5071C9.04815 15.4851 9.18228 15.5159 9.2903 15.5928C9.39831 15.6697 9.47137 15.7863 9.4934 15.9171ZM14.5074 15.9171C14.5294 15.7863 14.6025 15.6697 14.7105 15.5928C14.8185 15.5159 14.9526 15.4851 15.0834 15.5071C17.6574 15.9393 20.1101 16.9142 22.2784 18.3671C22.3361 18.4021 22.3861 18.4485 22.4254 18.5034C22.4647 18.5583 22.4925 18.6206 22.507 18.6866C22.5216 18.7525 22.5227 18.8207 22.5101 18.8871C22.4976 18.9534 22.4718 19.0166 22.4342 19.0727C22.3966 19.1288 22.3481 19.1767 22.2915 19.2135C22.2349 19.2503 22.1714 19.2753 22.1049 19.2869C22.0384 19.2985 21.9702 19.2966 21.9044 19.2811C21.8387 19.2657 21.7768 19.2371 21.7224 19.1971C19.6715 17.8232 17.3519 16.9015 14.9174 16.4931C14.7867 16.471 14.67 16.398 14.5931 16.29C14.5162 16.1819 14.4854 16.0478 14.5074 15.9171Z" fill="#111111"/>
<path fill-rule="evenodd" clip-rule="evenodd" d="M6.5 10C6.5 8.54131 7.07946 7.14236 8.11091 6.11091C9.14236 5.07946 10.5413 4.5 12 4.5C13.4587 4.5 14.8576 5.07946 15.8891 6.11091C16.9205 7.14236 17.5 8.54131 17.5 10C17.5 12.661 16.174 15.019 14.896 16.68C14.1925 17.5904 13.4047 18.4325 12.543 19.195L12.331 19.375L12.318 19.386L12.314 19.389H12.313L12 19L11.713 19.41L11.711 19.408L11.707 19.405L11.694 19.396L11.647 19.362L11.478 19.233C11.2765 19.0752 11.0798 18.9114 10.888 18.742C10.2428 18.1718 9.64799 17.5472 9.11 16.875C7.82 15.263 6.5 12.905 6.5 10ZM12 19L11.713 19.41C11.8017 19.4721 11.9081 19.5037 12.0163 19.5001C12.1245 19.4965 12.2286 19.4568 12.313 19.389L12 19ZM11.982 18.357C12.7568 17.6601 13.467 16.8947 14.104 16.07C15.326 14.481 16.5 12.34 16.5 10C16.5 8.80653 16.0259 7.66193 15.182 6.81802C14.3381 5.97411 13.1935 5.5 12 5.5C10.8065 5.5 9.66193 5.97411 8.81802 6.81802C7.97411 7.66193 7.5 8.80653 7.5 10C7.5 12.595 8.68 14.737 9.89 16.25C10.5107 17.0245 11.212 17.7308 11.982 18.357ZM12 8.5C11.6022 8.5 11.2206 8.65804 10.9393 8.93934C10.658 9.22064 10.5 9.60218 10.5 10C10.5 10.3978 10.658 10.7794 10.9393 11.0607C11.2206 11.342 11.6022 11.5 12 11.5C12.3978 11.5 12.7794 11.342 13.0607 11.0607C13.342 10.7794 13.5 10.3978 13.5 10C13.5 9.60218 13.342 9.22064 13.0607 8.93934C12.7794 8.65804 12.3978 8.5 12 8.5ZM9.5 10C9.5 9.33696 9.76339 8.70107 10.2322 8.23223C10.7011 7.76339 11.337 7.5 12 7.5C12.663 7.5 13.2989 7.76339 13.7678 8.23223C14.2366 8.70107 14.5 9.33696 14.5 10C14.5 10.663 14.2366 11.2989 13.7678 11.7678C13.2989 12.2366 12.663 12.5 12 12.5C11.337 12.5 10.7011 12.2366 10.2322 11.7678C9.76339 11.2989 9.5 10.663 9.5 10Z" fill="#111111"/>
</svg>
