<svg width="24" height="24" viewBox="0 0 24 24" fill="none" xmlns="http://www.w3.org/2000/svg">
<path d="M14.4999 5.684C14.4999 7.21399 13.1826 8.49979 11.4999 8.49979C9.81727 8.49979 8.49994 7.21399 8.49994 5.684C8.49994 5.02897 8.81179 4.46481 9.33696 3.95474C9.86747 3.43948 10.5816 3.01438 11.2988 2.65392C11.4254 2.59029 11.5745 2.59029 11.7011 2.65392C12.4182 3.01438 13.1324 3.43948 13.6629 3.95474C14.1881 4.46481 14.4999 5.02897 14.4999 5.684Z" stroke="#111111"/>
<path d="M4.5 11.5001C4.5 9.84327 5.84315 8.50012 7.5 8.50012H16.5C18.1569 8.50012 19.5 9.84327 19.5 11.5001C19.5 13.157 18.1569 14.5001 16.5 14.5001H7.5C5.84315 14.5001 4.5 13.157 4.5 11.5001Z" stroke="#111111"/>
<rect x="0.5" y="14.6364" width="23" height="7" rx="3.5" stroke="#111111"/>
</svg>
