<svg width="24" height="24" viewBox="0 0 24 24" fill="none" xmlns="http://www.w3.org/2000/svg">
<path d="M20.402 2.25H14.641C14.4619 2.24987 14.29 2.32065 14.1629 2.44688L2.64571 13.9641C2.39352 14.2175 2.25195 14.5605 2.25195 14.918C2.25195 15.2755 2.39352 15.6185 2.64571 15.8719L8.13008 21.3563C8.3835 21.6084 8.72647 21.75 9.08399 21.75C9.4415 21.75 9.78447 21.6084 10.0379 21.3563L21.5504 9.84375C21.6766 9.71665 21.7474 9.54475 21.7473 9.36563V3.6C21.7481 3.42287 21.714 3.24731 21.6467 3.08344C21.5795 2.91957 21.4805 2.77061 21.3555 2.64514C21.2304 2.51967 21.0818 2.42016 20.9182 2.35235C20.7545 2.28453 20.5791 2.24975 20.402 2.25Z" stroke="#111111" stroke-linecap="round" stroke-linejoin="round"/>
<path d="M18 7.5C17.7033 7.5 17.4133 7.41203 17.1666 7.24721C16.92 7.08238 16.7277 6.84811 16.6142 6.57403C16.5006 6.29994 16.4709 5.99834 16.5288 5.70737C16.5867 5.41639 16.7296 5.14912 16.9393 4.93934C17.1491 4.72956 17.4164 4.5867 17.7074 4.52882C17.9983 4.47094 18.2999 4.50065 18.574 4.61418C18.8481 4.72771 19.0824 4.91997 19.2472 5.16665C19.412 5.41332 19.5 5.70333 19.5 6C19.5 6.39783 19.342 6.77936 19.0607 7.06066C18.7794 7.34197 18.3978 7.5 18 7.5Z" fill="#111111"/>
</svg>
