<svg width="24" height="24" viewBox="0 0 32 32" fill="none" xmlns="http://www.w3.org/2000/svg">
<path d="M28 28L22.2094 22.2094ZM22.2094 22.2094C23.1999 21.2189 23.9856 20.043 24.5217 18.7488C25.0577 17.4547 25.3336 16.0676 25.3336 14.6668C25.3336 13.266 25.0577 11.879 24.5217 10.5848C23.9856 9.29065 23.1999 8.11475 22.2094 7.12424C21.2189 6.13373 20.043 5.34802 18.7488 4.81196C17.4547 4.27591 16.0676 4 14.6668 4C13.266 4 11.879 4.27591 10.5848 4.81196C9.29065 5.34802 8.11474 6.13373 7.12424 7.12424C5.12382 9.12466 4 11.8378 4 14.6668C4 17.4958 5.12382 20.209 7.12424 22.2094C9.12466 24.2098 11.8378 25.3336 14.6668 25.3336C17.4958 25.3336 20.209 24.2098 22.2094 22.2094Z" fill="#343434"/>
<path d="M28 28L22.2094 22.2094M22.2094 22.2094C23.1999 21.2189 23.9856 20.043 24.5217 18.7488C25.0577 17.4547 25.3336 16.0676 25.3336 14.6668C25.3336 13.266 25.0577 11.879 24.5217 10.5848C23.9856 9.29065 23.1999 8.11475 22.2094 7.12424C21.2189 6.13373 20.043 5.34802 18.7488 4.81196C17.4547 4.27591 16.0676 4 14.6668 4C13.266 4 11.879 4.27591 10.5848 4.81196C9.29065 5.34802 8.11474 6.13373 7.12424 7.12424C5.12382 9.12466 4 11.8378 4 14.6668C4 17.4958 5.12382 20.209 7.12424 22.2094C9.12466 24.2098 11.8378 25.3336 14.6668 25.3336C17.4958 25.3336 20.209 24.2098 22.2094 22.2094Z" stroke="#343434" stroke-linecap="round" stroke-linejoin="round"/>
<path d="M9.33359 10.6667C8.00033 11.3334 6.66692 16.0001 9.33359 18.6667" stroke="#F7F7F7" stroke-linecap="round"/>
<ellipse cx="11.3337" cy="20.6667" rx="0.666667" ry="0.666667" fill="#F7F7F7"/>
</svg>
