<svg width="32" height="32" viewBox="0 0 32 32" fill="none" xmlns="http://www.w3.org/2000/svg">
<path d="M15.3343 4.33325C13.5687 4.33337 11.8292 4.75844 10.2626 5.57256C8.69599 6.38668 7.34837 7.56593 6.33359 9.01066C5.3188 10.4554 4.66668 12.1232 4.43231 13.873C4.19795 15.6229 4.38823 17.4035 4.98707 19.0644C5.58592 20.7252 6.57574 22.2175 7.8729 23.4152C9.17005 24.6128 10.7364 25.4807 12.4397 25.9454C14.143 26.4101 15.933 26.458 17.6587 26.085C19.3844 25.712 20.9949 24.9292 22.3542 23.8026L25.9249 27.3733C26.1145 27.5499 26.3652 27.6461 26.6243 27.6415C26.8833 27.6369 27.1305 27.532 27.3137 27.3487C27.497 27.1655 27.6019 26.9184 27.6065 26.6593C27.6111 26.4002 27.5149 26.1495 27.3383 25.9599L23.7716 22.3919C25.1144 20.787 25.9716 18.8322 26.2425 16.7572C26.5134 14.6822 26.1868 12.5729 25.301 10.677C24.4151 8.78108 23.0069 7.17718 21.2415 6.05353C19.4762 4.92987 17.4269 4.3331 15.3343 4.33325Z" fill="#111111"/>
</svg>
