<svg width="18" height="18" viewBox="0 0 18 18" fill="none" xmlns="http://www.w3.org/2000/svg">
<g clip-path="url(#clip0_387_8573)">
<mask id="path-1-inside-1_387_8573" fill="white">
<path fill-rule="evenodd" clip-rule="evenodd" d="M14.25 3C14.25 3.38056 14.6194 3.75 15 3.75C16.6569 3.75 18 5.09315 18 6.75C18 8.40685 16.6569 9.75 15 9.75C14.6228 9.75 14.2619 9.6804 13.9294 9.55335C13.4703 9.37792 12.925 9.38985 12.5696 9.72945L9.73327 12.4404C9.35358 12.8033 9.33913 13.395 9.5349 13.8824C9.67365 14.2278 9.75 14.605 9.75 15C9.75 16.6569 8.40685 18 6.75 18C5.09315 18 3.75 16.6569 3.75 15C3.75 14.6194 3.38056 14.25 3 14.25C1.34315 14.25 0 12.9069 0 11.25C0 9.59315 1.34315 8.25 3 8.25C3.47054 8.25 3.91578 8.35833 4.31214 8.55141C4.79716 8.78768 5.40892 8.81111 5.79894 8.43835L8.43491 5.91895C8.84974 5.52247 8.82703 4.86002 8.56893 4.34751C8.3649 3.94234 8.25 3.48459 8.25 3C8.25 1.34315 9.59315 0 11.25 0C12.9069 0 14.25 1.34315 14.25 3Z"/>
</mask>
<path fill-rule="evenodd" clip-rule="evenodd" d="M14.25 3C14.25 3.38056 14.6194 3.75 15 3.75C16.6569 3.75 18 5.09315 18 6.75C18 8.40685 16.6569 9.75 15 9.75C14.6228 9.75 14.2619 9.6804 13.9294 9.55335C13.4703 9.37792 12.925 9.38985 12.5696 9.72945L9.73327 12.4404C9.35358 12.8033 9.33913 13.395 9.5349 13.8824C9.67365 14.2278 9.75 14.605 9.75 15C9.75 16.6569 8.40685 18 6.75 18C5.09315 18 3.75 16.6569 3.75 15C3.75 14.6194 3.38056 14.25 3 14.25C1.34315 14.25 0 12.9069 0 11.25C0 9.59315 1.34315 8.25 3 8.25C3.47054 8.25 3.91578 8.35833 4.31214 8.55141C4.79716 8.78768 5.40892 8.81111 5.79894 8.43835L8.43491 5.91895C8.84974 5.52247 8.82703 4.86002 8.56893 4.34751C8.3649 3.94234 8.25 3.48459 8.25 3C8.25 1.34315 9.59315 0 11.25 0C12.9069 0 14.25 1.34315 14.25 3Z" fill="white"/>
<path d="M8.56893 4.34751L7.67579 4.79728L8.56893 4.34751ZM4.31214 8.55141L3.8742 9.45042L4.31214 8.55141ZM5.79894 8.43835L5.108 7.71544L5.79894 8.43835ZM9.73327 12.4404L9.04233 11.7175L9.73327 12.4404ZM12.5696 9.72945L11.8787 9.00653L12.5696 9.72945ZM19 6.75C19 4.54086 17.2091 2.75 15 2.75V4.75C16.1046 4.75 17 5.64543 17 6.75H19ZM15 10.75C17.2091 10.75 19 8.95914 19 6.75H17C17 7.85457 16.1046 8.75 15 8.75V10.75ZM13.5725 10.4875C14.0172 10.6574 14.499 10.75 15 10.75V8.75C14.7467 8.75 14.5067 8.70341 14.2864 8.61922L13.5725 10.4875ZM10.4242 13.1633L13.2606 10.4524L11.8787 9.00653L9.04233 11.7175L10.4242 13.1633ZM8.60697 14.2551C8.69891 14.484 8.75 14.7348 8.75 15H10.75C10.75 14.4751 10.6484 13.9715 10.4628 13.5096L8.60697 14.2551ZM8.75 15C8.75 16.1046 7.85457 17 6.75 17V19C8.95914 19 10.75 17.2091 10.75 15H8.75ZM6.75 17C5.64543 17 4.75 16.1046 4.75 15H2.75C2.75 17.2091 4.54086 19 6.75 19V17ZM-1 11.25C-1 13.4591 0.790861 15.25 3 15.25V13.25C1.89543 13.25 1 12.3546 1 11.25H-1ZM3 7.25C0.790861 7.25 -1 9.04086 -1 11.25H1C1 10.1454 1.89543 9.25 3 9.25V7.25ZM4.75008 7.65241C4.22027 7.39432 3.62557 7.25 3 7.25V9.25C3.31551 9.25 3.61129 9.32234 3.8742 9.45042L4.75008 7.65241ZM7.74397 5.19604L5.108 7.71544L6.48988 9.16126L9.12585 6.64186L7.74397 5.19604ZM7.25 3C7.25 3.64432 7.40309 4.25578 7.67579 4.79728L9.46207 3.89773C9.3267 3.62891 9.25 3.32485 9.25 3H7.25ZM11.25 -1C9.04086 -1 7.25 0.790861 7.25 3H9.25C9.25 1.89543 10.1454 1 11.25 1V-1ZM15.25 3C15.25 0.790861 13.4591 -1 11.25 -1V1C12.3546 1 13.25 1.89543 13.25 3H15.25ZM9.12585 6.64186C9.99152 5.81449 9.82059 4.60965 9.46207 3.89773L7.67579 4.79728C7.73682 4.91847 7.75978 5.04115 7.75551 5.12698C7.75164 5.20456 7.73085 5.20858 7.74397 5.19604L9.12585 6.64186ZM3.8742 9.45042C4.55883 9.78393 5.67671 9.93847 6.48988 9.16126L5.108 7.71544C5.12015 7.70382 5.11615 7.72129 5.04849 7.72418C4.97327 7.72739 4.86337 7.7076 4.75008 7.65241L3.8742 9.45042ZM9.04233 11.7175C8.25095 12.4738 8.3292 13.5636 8.60697 14.2551L10.4628 13.5096C10.4172 13.396 10.4054 13.2898 10.4129 13.2188C10.4195 13.1549 10.4361 13.152 10.4242 13.1633L9.04233 11.7175ZM4.75 15C4.75 14.4912 4.51092 14.0613 4.22482 13.7752C3.93872 13.4891 3.50877 13.25 3 13.25V15.25C2.93316 15.25 2.88556 15.234 2.85957 15.222C2.83391 15.2102 2.8192 15.198 2.81061 15.1894C2.80201 15.1808 2.78977 15.1661 2.77796 15.1404C2.766 15.1144 2.75 15.0668 2.75 15H4.75ZM14.2864 8.61922C13.6261 8.36694 12.6186 8.2994 11.8787 9.00653L13.2606 10.4524C13.2495 10.463 13.2526 10.449 13.3088 10.4434C13.3714 10.4373 13.4666 10.447 13.5725 10.4875L14.2864 8.61922ZM13.25 3C13.25 3.50877 13.4891 3.93872 13.7752 4.22482C14.0613 4.51092 14.4912 4.75 15 4.75V2.75C15.0668 2.75 15.1144 2.766 15.1404 2.77796C15.1661 2.78977 15.1808 2.80201 15.1894 2.81061C15.198 2.8192 15.2102 2.83391 15.222 2.85957C15.234 2.88556 15.25 2.93316 15.25 3H13.25Z" fill="white" mask="url(#path-1-inside-1_387_8573)"/>
</g>
<defs>
<clipPath id="clip0_387_8573">
<rect width="18" height="18" fill="white"/>
</clipPath>
</defs>
</svg>
