<svg width="24" height="24" viewBox="0 0 24 24" xmlns="http://www.w3.org/2000/svg">
<g clip-path="url(#clip0_59_153)">
<mask id="path-1-inside-1_59_153" >
<path fill-rule="evenodd" clip-rule="evenodd" d="M19 4C19 4.50742 19.4926 5 20 5C22.2091 5 24 6.79086 24 9C24 11.2091 22.2091 13 20 13C19.3964 13 18.824 12.8663 18.3108 12.6269C17.8654 12.4191 17.3204 12.4365 16.9651 12.7761L12.753 16.802C12.3733 17.1648 12.353 17.7556 12.5862 18.2262C12.8511 18.7608 13 19.363 13 20C13 22.2091 11.2091 24 9 24C6.79086 24 5 22.2091 5 20C5 19.4926 4.50742 19 4 19C1.79086 19 0 17.2091 0 15C0 12.7909 1.79086 11 4 11C4.74244 11 5.43763 11.2023 6.03348 11.5547C6.49783 11.8294 7.10872 11.8468 7.49873 11.474L11.5011 7.64863C11.9159 7.25215 11.8995 6.5916 11.5973 6.10381C11.2186 5.49263 11 4.77184 11 4C11 1.79086 12.7909 0 15 0C17.2091 0 19 1.79086 19 4Z"/>
</mask>
<path d="M11.5011 7.64863L10.8102 6.92572L11.5011 7.64863ZM11.5973 6.10381L10.7472 6.6305L11.5973 6.10381ZM6.03348 11.5547L6.54258 10.694L6.03348 11.5547ZM7.49873 11.474L6.80779 10.7511L7.49873 11.474ZM12.5862 18.2262L13.4822 17.7822L12.5862 18.2262ZM18.3108 12.6269L17.888 13.5331L18.3108 12.6269ZM16.9651 12.7761L16.2742 12.0532L16.9651 12.7761ZM25 9C25 6.23858 22.7614 4 20 4V6C21.6569 6 23 7.34315 23 9H25ZM20 14C22.7614 14 25 11.7614 25 9H23C23 10.6569 21.6569 12 20 12V14ZM17.888 13.5331C18.5308 13.833 19.2473 14 20 14V12C19.5454 12 19.1171 11.8996 18.7336 11.7207L17.888 13.5331ZM13.4439 17.5249L17.6561 13.499L16.2742 12.0532L12.062 16.079L13.4439 17.5249ZM11.6902 18.6702C11.8882 19.0698 12 19.5204 12 20H14C14 19.2055 13.814 18.4517 13.4822 17.7822L11.6902 18.6702ZM12 20C12 21.6569 10.6569 23 9 23V25C11.7614 25 14 22.7614 14 20H12ZM9 23C7.34315 23 6 21.6569 6 20H4C4 22.7614 6.23858 25 9 25V23ZM-1 15C-1 17.7614 1.23858 20 4 20V18C2.34315 18 1 16.6569 1 15H-1ZM4 10C1.23858 10 -1 12.2386 -1 15H1C1 13.3431 2.34315 12 4 12V10ZM6.54258 10.694C5.79681 10.2529 4.92641 10 4 10V12C4.55846 12 5.07845 12.1517 5.52437 12.4154L6.54258 10.694ZM10.8102 6.92572L6.80779 10.7511L8.18967 12.1969L12.1921 8.37154L10.8102 6.92572ZM10 4C10 4.96324 10.2734 5.8657 10.7472 6.6305L12.4474 5.57712C12.1639 5.11956 12 4.58044 12 4H10ZM15 -1C12.2386 -1 10 1.23858 10 4H12C12 2.34315 13.3431 1 15 1V-1ZM20 4C20 1.23858 17.7614 -1 15 -1V1C16.6569 1 18 2.34315 18 4H20ZM12.1921 8.37154C13.0545 7.54726 12.9123 6.32746 12.4474 5.57712L10.7472 6.6305C10.8004 6.71636 10.8211 6.80903 10.8188 6.87432C10.8177 6.90404 10.8122 6.91995 10.8102 6.92482C10.8092 6.92718 10.8088 6.92758 10.8093 6.92682C10.8099 6.92597 10.8104 6.92548 10.8102 6.92572L12.1921 8.37154ZM5.52437 12.4154C6.24719 12.843 7.38004 12.9707 8.18967 12.1969L6.80779 10.7511C6.80772 10.7512 6.80786 10.751 6.80821 10.7507C6.80855 10.7505 6.80891 10.7502 6.80922 10.75C6.80996 10.7496 6.80964 10.7499 6.80759 10.7507C6.80341 10.7523 6.7895 10.7568 6.7635 10.7576C6.70653 10.7593 6.6234 10.7418 6.54258 10.694L5.52437 12.4154ZM12.062 16.079C11.2742 16.832 11.3258 17.9349 11.6902 18.6702L13.4822 17.7822C13.4417 17.7004 13.4305 17.6199 13.4355 17.5661C13.4377 17.5416 13.4427 17.5287 13.4445 17.5248C13.4453 17.5229 13.4457 17.5226 13.4452 17.5234C13.445 17.5237 13.4447 17.524 13.4444 17.5244C13.4441 17.5247 13.4439 17.5249 13.4439 17.5249L12.062 16.079ZM6 20C6 19.4278 5.73014 18.9354 5.39739 18.6026C5.06464 18.2699 4.5722 18 4 18V20C3.98241 20 3.96942 19.9979 3.96163 19.996C3.95398 19.9943 3.95095 19.9927 3.95215 19.9933C3.95335 19.9938 3.95743 19.9959 3.96353 20.0002C3.96962 20.0044 3.97641 20.0101 3.98318 20.0168C3.98994 20.0236 3.99555 20.0304 3.99984 20.0365C4.00414 20.0426 4.00618 20.0466 4.00674 20.0479C4.00729 20.049 4.00574 20.046 4.00395 20.0384C4.00214 20.0306 4 20.0176 4 20H6ZM18.7336 11.7207C18.0307 11.3927 17.0104 11.3495 16.2742 12.0532L17.6561 13.499C17.6481 13.5066 17.6505 13.496 17.692 13.4924C17.7392 13.4882 17.8114 13.4974 17.888 13.5331L18.7336 11.7207ZM18 4C18 4.5722 18.2699 5.06464 18.6026 5.39739C18.9354 5.73014 19.4278 6 20 6V4C20.0176 4 20.0306 4.00214 20.0384 4.00395C20.046 4.00574 20.049 4.00729 20.0479 4.00674C20.0466 4.00618 20.0426 4.00414 20.0365 3.99984C20.0304 3.99555 20.0236 3.98994 20.0168 3.98318C20.0101 3.97641 20.0044 3.96962 20.0002 3.96353C19.9959 3.95743 19.9938 3.95335 19.9933 3.95215C19.9927 3.95095 19.9943 3.95398 19.996 3.96163C19.9979 3.96942 20 3.98241 20 4H18Z" mask="url(#path-1-inside-1_59_153)"/>
</g>
<defs>
<clipPath id="clip0_59_153">
<rect width="24" height="24" />
</clipPath>
</defs>
</svg>
