<svg width="24" height="24" viewBox="0 0 24 24" fill="none" xmlns="http://www.w3.org/2000/svg">
<path d="M20.6005 5.26006C20.5251 4.65458 20.2318 4.09727 19.7754 3.69237C19.3189 3.28746 18.7306 3.06268 18.1205 3.06006H5.88547C5.27684 3.06237 4.68978 3.28574 4.23357 3.68861C3.77735 4.09148 3.48306 4.64639 3.40547 5.25006L3.10547 7.72006C3.10516 8.2048 3.2085 8.684 3.40857 9.12553C3.60863 9.56706 3.9008 9.9607 4.26547 10.2801V18.4401C4.26547 19.1031 4.52886 19.739 4.9977 20.2078C5.46654 20.6767 6.10243 20.9401 6.76547 20.9401H17.2355C17.8985 20.9401 18.5344 20.6767 19.0032 20.2078C19.4721 19.739 19.7355 19.1031 19.7355 18.4401V10.2801C20.1011 9.96116 20.3942 9.56772 20.5951 9.12617C20.796 8.68462 20.9002 8.20518 20.9005 7.72006L20.6005 5.26006ZM14.0105 19.9401H10.0105V15.8601C10.0105 15.4622 10.1685 15.0807 10.4498 14.7994C10.7311 14.5181 11.1126 14.3601 11.5105 14.3601H12.5105C12.9083 14.3601 13.2898 14.5181 13.5711 14.7994C13.8524 15.0807 14.0105 15.4622 14.0105 15.8601V19.9401ZM18.7405 18.4401C18.7405 18.8379 18.5824 19.2194 18.3011 19.5007C18.0198 19.782 17.6383 19.9401 17.2405 19.9401H15.0105V15.8601C15.0105 15.197 14.7471 14.5611 14.2782 14.0923C13.8094 13.6235 13.1735 13.3601 12.5105 13.3601H11.5105C10.8474 13.3601 10.2115 13.6235 9.7427 14.0923C9.27386 14.5611 9.01047 15.197 9.01047 15.8601V19.9401H6.76547C6.36764 19.9401 5.98611 19.782 5.70481 19.5007C5.4235 19.2194 5.26547 18.8379 5.26547 18.4401V10.8701C5.65875 11.0316 6.0803 11.1132 6.50547 11.1101C6.99633 11.1122 7.4817 11.0068 7.92744 10.8012C8.37318 10.5956 8.76846 10.2948 9.08547 9.92006C9.10777 9.89768 9.13426 9.87993 9.16343 9.86782C9.19261 9.85571 9.22388 9.84947 9.25547 9.84947C9.28706 9.84947 9.31833 9.85571 9.34751 9.86782C9.37668 9.87993 9.40317 9.89768 9.42547 9.92006C9.74248 10.2948 10.1378 10.5956 10.5835 10.8012C11.0292 11.0068 11.5146 11.1122 12.0055 11.1101C12.4984 11.1117 12.9858 11.0061 13.4339 10.8006C13.882 10.5951 14.2801 10.2947 14.6005 9.92006C14.6209 9.89809 14.6457 9.88054 14.6732 9.8685C14.7007 9.85646 14.7304 9.85019 14.7605 9.85006C14.792 9.84998 14.8233 9.85612 14.8524 9.86813C14.8816 9.88015 14.9081 9.89779 14.9305 9.92006C15.2475 10.2948 15.6428 10.5956 16.0885 10.8012C16.5342 11.0068 17.0196 11.1122 17.5105 11.1101C17.9323 11.1119 18.3503 11.0303 18.7405 10.8701V18.4401ZM17.5105 10.1101C17.1652 10.1114 16.8236 10.0379 16.5095 9.89462C16.1953 9.75134 15.9159 9.54167 15.6905 9.28006C15.5779 9.14548 15.4372 9.03723 15.2782 8.96294C15.1192 8.88865 14.9459 8.85011 14.7705 8.85006H14.7605C14.5858 8.84889 14.413 8.88586 14.2541 8.95841C14.0952 9.03095 13.954 9.13731 13.8405 9.27006C13.6085 9.52304 13.3265 9.72503 13.0123 9.86321C12.6982 10.0014 12.3587 10.0728 12.0155 10.0728C11.6723 10.0728 11.3328 10.0014 11.0186 9.86321C10.7044 9.72503 10.4224 9.52304 10.1905 9.27006C10.0741 9.13811 9.931 9.03244 9.77065 8.96006C9.61031 8.88768 9.4364 8.85024 9.26047 8.85024C9.08454 8.85024 8.91063 8.88768 8.75029 8.96006C8.58994 9.03244 8.44683 9.13811 8.33047 9.27006C8.01485 9.63835 7.59526 9.90261 7.12676 10.0281C6.65826 10.1537 6.16275 10.1346 5.70527 9.97347C5.2478 9.81233 4.84973 9.51663 4.56334 9.12519C4.27694 8.73374 4.11559 8.26485 4.10047 7.78006L4.40047 5.38006C4.44855 5.01762 4.62566 4.68466 4.89933 4.44222C5.173 4.19978 5.52488 4.0641 5.89047 4.06006H18.1205C18.4873 4.05985 18.8414 4.19405 19.116 4.43728C19.3905 4.68051 19.5665 5.01591 19.6105 5.38006L19.9005 7.74006C19.8952 8.37132 19.6404 8.97485 19.1916 9.41889C18.7429 9.86293 18.1368 10.1114 17.5055 10.1101H17.5105Z" fill="#111111"/>
</svg>
