<svg width="42" height="42" viewBox="0 0 42 42" fill="none" xmlns="http://www.w3.org/2000/svg">
<rect width="42" height="42" rx="8" fill="#6290EC"/>
<path fill-rule="evenodd" clip-rule="evenodd" d="M16.9681 19.6455C18.5384 19.1401 19.3591 17.3641 18.8013 15.6787C18.2435 13.9933 16.5183 13.0367 14.9481 13.5422C13.3779 14.0476 12.5571 15.8236 13.1149 17.509C13.6728 19.1944 15.3979 20.1509 16.9681 19.6455ZM14.3324 20.499C15.3849 21.5916 15.2626 23.1624 14.0593 24.0075C12.8559 24.8526 11.0273 24.6519 9.97487 23.5593C8.92244 22.4667 9.04475 20.8959 10.2481 20.0508C11.4514 19.2057 13.28 19.4064 14.3324 20.499ZM25.7201 18.1542C25.1584 19.6207 25.847 21.0037 27.2583 21.2432C28.6696 21.4828 30.2691 20.4882 30.8308 19.0218C31.3926 17.5553 30.7039 16.1723 29.2926 15.9327C27.8813 15.6932 26.2818 16.6878 25.7201 18.1542ZM20.22 15.3139C20.3284 17.1033 21.7266 18.365 23.3428 18.132C24.9591 17.8989 26.1814 16.2594 26.0729 14.4699C25.9645 12.6805 24.5663 11.4188 22.9501 11.6518C21.3338 11.8849 20.1115 13.5244 20.22 15.3139ZM15.4496 30.9286C14.6089 29.8048 13.5647 26.605 16.1129 22.7958C16.6541 21.8922 17.9134 20.2216 19.1992 19.6227C20.0564 19.2234 22.2944 18.7093 24.6973 20.6996C24.8325 20.8115 24.9771 20.9243 25.1276 21.0417C26.4224 22.0513 28.1564 23.4033 28.0594 27.5C28.0414 28.2623 26.8014 30.1339 24.5891 30.4423C23.8523 30.4386 23.4127 30.2083 23.0148 29.9998C22.5999 29.7824 22.2303 29.5888 21.6163 29.7007C21.3489 29.7921 20.7632 30.056 20.5602 30.3809C20.3065 30.787 19.3533 31.7514 18.0024 31.8934C16.9216 32.007 15.8502 31.2975 15.4496 30.9286Z" fill="#FFCACA"/>
<path d="M19.95 24.2926C19.5 24.9611 19.6828 25.5217 19.8305 25.7185C19.9009 25.783 20.0894 25.9071 20.2797 25.8868C20.5177 25.8615 20.6859 25.6921 20.7307 25.6208C20.7665 25.5638 20.8698 25.5174 20.9169 25.5013C21.1288 25.4625 21.1751 25.6295 21.4402 25.6303C21.8299 25.5756 22.0489 25.2471 22.0523 25.1135C22.0729 24.3118 21.6906 24.1103 21.4625 23.9224C21.04 23.5743 20.6457 23.6651 20.4946 23.7353C20.2679 23.8407 20.0456 24.134 19.95 24.2926Z" fill="white"/>
</svg>
