<svg width="102" height="100" viewBox="0 0 102 100" fill="none" xmlns="http://www.w3.org/2000/svg">
<path d="M20.755 55.9591C19.8469 57.3791 18.5065 58.5812 16.6347 58.2574C14.534 61.1158 7.9196 60.1519 8.89111 54.5376C7.00841 53.7299 5.51322 50.339 8.38234 47.9749C6.53173 45.6067 5.33778 40.0086 10.4164 36.2198C8.67715 33.2083 9.62064 25.5707 17.1287 25.2742C16.8434 22.4541 19.1947 17.6808 25.9149 18.8437C25.6338 16.6868 27.2684 12.6865 32.4213 13.4336C33.2232 10.8618 37.2388 7.25044 42.6832 9.8189C44.4063 7.76791 47.0252 6.38337 50.8895 9.61256C52.8983 7.97245 57.671 6.73828 61.1492 11.3879C63.3326 10.802 68.3273 9.91947 70.2323 14.586C72.9009 13.6021 78.5226 13.8937 80.3962 19.5667C83.4501 19.794 88.5318 20.8299 88.5234 27.4783C91.2349 28.3089 94.3877 31.7457 92.3766 37.1802C93.5288 37.741 95.8519 39.3034 95.8886 42.6669C95.9252 46.0304 92.8642 48.2246 91.3054 47.9549C91.3054 47.9549 89.9346 53.7747 83.6094 50.6804C82.7176 51.7406 79.9127 53.4649 77.8649 52.7562C79.8149 56.7165 80.0991 56.3749 78.4664 61.8786C77.5754 64.8825 72.36 70.8208 71.2579 72.3769L55.591 75.4791C54.5776 75.7251 54.2814 76.5207 54.2627 77.0815C54.4075 77.0255 54.5306 76.9677 54.6299 76.9084C54.5834 78.0576 54.2413 77.7233 54.2627 77.0815C51.2132 78.2601 38.5447 78.622 36.6318 74.6975C33.6715 75.9923 29.9174 75.3427 28.6187 71.5039C25.7596 72.2139 21.4029 71.7316 22.4655 65.5909C21.286 64.8447 20.2303 61.198 22.4885 59.2703L21.0458 56.085C21.123 55.8492 20.8887 55.75 20.755 55.9591Z" fill="white"/>
<path d="M39.0488 51.79C38.9094 53.4525 37.7313 54.7133 36.4174 54.6061C35.1034 54.4989 34.1513 53.0643 34.2906 51.4018C34.43 49.7393 35.6081 48.4785 36.922 48.5857C38.236 48.6929 39.1881 50.1276 39.0488 51.79Z" fill="#111111"/>
<path fill-rule="evenodd" clip-rule="evenodd" d="M48.2895 59.7088C48.2882 59.6942 48.2871 59.6796 48.2863 59.6649C47.484 59.4115 46.9315 58.8962 46.9104 58.2814C46.8791 57.3687 48.0309 56.5825 49.4831 56.5252C50.9352 56.468 52.1379 57.1615 52.1692 58.0742C52.1842 58.5106 51.9287 58.9181 51.4992 59.2308C54.0601 61.8871 56.902 62.2013 57.8357 62.0851C58.656 61.983 59.3976 62.5689 59.4922 63.3938C59.5867 64.2186 58.9984 64.97 58.1781 65.0721C56.3817 65.2956 52.6665 64.7063 49.4573 61.4516C46.974 64.4199 44.0672 65.4258 42.5531 65.508C42.0016 65.5379 41.5303 65.1151 41.5003 64.5636C41.4702 64.0121 41.893 63.5408 42.4444 63.5109C43.4378 63.457 46.0639 62.64 48.2895 59.7088Z" fill="#111111"/>
<g filter="url(#filter0_d_1099_17243)">
<path d="M48.6968 74.7036C43.7814 79.2078 47.0645 83.7678 49.3205 85.4848C52.498 91.4617 85.5362 89.7616 89.1116 84.5914C91.9719 80.4552 88.7698 74.7635 86.8112 72.4347C88.0026 65.5495 83.5656 61.6822 81.1982 60.6092C83.0846 54.1337 79.6306 51.5943 77.6678 51.1341C79.8506 46.2656 77.1054 43.3183 73.955 42.7128C74.2411 39.289 71.4226 38.5359 69.5736 38.1556C65.7467 34.599 62.3981 35.9897 60.6271 37.3717C57.7326 36.8708 54.441 38.3299 54.7557 43.0086C49.0638 43.8909 48.8915 52.1848 51.5842 58.0175C47.7958 58.6644 49.0736 63.6735 50.1861 66.0971C46.2303 68.5965 47.545 72.8762 48.6968 74.7036Z" fill="white"/>
<path d="M48.6968 74.7036C43.7814 79.2078 47.0645 83.7678 49.3205 85.4848C52.498 91.4617 85.5362 89.7616 89.1116 84.5914C91.9719 80.4552 88.7698 74.7635 86.8112 72.4347C88.0026 65.5495 83.5656 61.6822 81.1982 60.6092C83.0846 54.1337 79.6306 51.5943 77.6678 51.1341C79.8506 46.2656 77.1054 43.3183 73.955 42.7128C74.2411 39.289 71.4226 38.5359 69.5736 38.1556C65.7467 34.599 62.3981 35.9897 60.6271 37.3717C57.7326 36.8708 54.441 38.3299 54.7557 43.0086C49.0638 43.8909 48.8915 52.1848 51.5842 58.0175C47.7958 58.6644 49.0736 63.6735 50.1861 66.0971C46.2303 68.5965 47.545 72.8762 48.6968 74.7036Z" stroke="#343434"/>
</g>
<g filter="url(#filter1_f_1099_17243)">
<ellipse cx="6.15556" cy="2.13628" rx="6.15556" ry="2.13628" transform="matrix(0.998914 0.0465836 -0.0496367 0.998767 26.9531 57.4102)" fill="#FFCACA"/>
</g>
<path d="M23.216 53.2212C24.5848 52.4279 26.5364 50.6618 26.7739 48.7114C26.822 48.316 27.017 47.9396 27.337 47.7023C28.5242 46.8218 30.0319 44.956 29.3781 42.3612" stroke="#343434" stroke-linecap="round"/>
<g filter="url(#filter2_f_1099_17243)">
<path fill-rule="evenodd" clip-rule="evenodd" d="M60.9176 47.6419C62.4984 47.3962 63.5881 45.7773 63.3515 44.0259C63.1148 42.2745 61.6415 41.0538 60.0607 41.2995C58.4798 41.5451 57.3901 43.164 57.6267 44.9154C57.8634 46.6668 59.3367 47.8875 60.9176 47.6419ZM58.286 48.0551C59.0942 49.3029 58.7041 50.834 57.4146 51.4751C56.1251 52.1161 54.4246 51.6242 53.6163 50.3764C52.8081 49.1287 53.1982 47.5975 54.4877 46.9565C55.7772 46.3155 57.4778 46.8074 58.286 48.0551ZM69.4779 47.6218C68.6898 48.9825 69.0999 50.461 70.3939 50.924C71.6878 51.3871 73.3756 50.6594 74.1636 49.2987C74.9517 47.938 74.5416 46.4595 73.2476 45.9964C71.9537 45.5334 70.2659 46.2611 69.4779 47.6218ZM64.7307 43.9112C64.5224 45.6911 65.6337 47.1591 67.2128 47.19C68.7919 47.2209 70.2408 45.803 70.449 44.0231C70.6573 42.2431 69.546 40.7751 67.9669 40.7442C66.3879 40.7133 64.9389 42.1312 64.7307 43.9112ZM57.5238 58.5535C56.9208 57.3108 56.486 53.9893 59.5706 50.645C60.2421 49.8415 61.7296 48.3976 63.0556 48.0141C63.9396 47.7585 66.1555 47.6117 68.0919 49.9597C68.2007 50.0917 68.3185 50.2261 68.4411 50.3661C69.4955 51.5693 70.9074 53.1806 70.1017 57.2024C69.9518 57.9508 68.4477 59.5959 66.2921 59.544C65.5927 59.4219 65.2151 59.1242 64.8734 58.8548C64.517 58.5739 64.1996 58.3236 63.5968 58.3351C63.3267 58.3821 62.7244 58.5481 62.4749 58.8356C62.1631 59.195 61.0895 59.9922 59.7812 59.9149C58.7346 59.8531 57.8402 58.9815 57.5238 58.5535Z" fill="#FFCACA"/>
</g>
<path d="M62.9545 52.7347C62.4112 53.3213 62.4877 53.9038 62.5938 54.1217C62.6495 54.1967 62.807 54.3495 62.9912 54.3604C63.2216 54.3739 63.4107 54.234 63.4656 54.171C63.5095 54.1205 63.6156 54.0914 63.6631 54.0832C63.871 54.0792 63.8861 54.2514 64.1376 54.2951C64.5172 54.3041 64.7821 54.0155 64.8085 53.8843C64.967 53.0969 64.6388 52.8365 64.4548 52.6142C64.114 52.2025 63.7238 52.2284 63.5681 52.2732C63.3347 52.3405 63.0727 52.5938 62.9545 52.7347Z" fill="white"/>
<defs>
<filter id="filter0_d_1099_17243" x="39.6387" y="33.4053" width="57.1104" height="66.3691" filterUnits="userSpaceOnUse" color-interpolation-filters="sRGB">
<feFlood flood-opacity="0" result="BackgroundImageFix"/>
<feColorMatrix in="SourceAlpha" type="matrix" values="0 0 0 0 0 0 0 0 0 0 0 0 0 0 0 0 0 0 127 0" result="hardAlpha"/>
<feOffset dy="4"/>
<feGaussianBlur stdDeviation="3"/>
<feComposite in2="hardAlpha" operator="out"/>
<feColorMatrix type="matrix" values="0 0 0 0 0 0 0 0 0 0 0 0 0 0 0 0 0 0 0.1 0"/>
<feBlend mode="normal" in2="BackgroundImageFix" result="effect1_dropShadow_1099_17243"/>
<feBlend mode="normal" in="SourceGraphic" in2="effect1_dropShadow_1099_17243" result="shape"/>
</filter>
<filter id="filter1_f_1099_17243" x="24.8457" y="55.6777" width="16.2998" height="8.30566" filterUnits="userSpaceOnUse" color-interpolation-filters="sRGB">
<feFlood flood-opacity="0" result="BackgroundImageFix"/>
<feBlend mode="normal" in="SourceGraphic" in2="BackgroundImageFix" result="shape"/>
<feGaussianBlur stdDeviation="1" result="effect1_foregroundBlur_1099_17243"/>
</filter>
<filter id="filter2_f_1099_17243" x="52.1953" y="39.7441" width="23.3691" height="21.1758" filterUnits="userSpaceOnUse" color-interpolation-filters="sRGB">
<feFlood flood-opacity="0" result="BackgroundImageFix"/>
<feBlend mode="normal" in="SourceGraphic" in2="BackgroundImageFix" result="shape"/>
<feGaussianBlur stdDeviation="0.5" result="effect1_foregroundBlur_1099_17243"/>
</filter>
</defs>
</svg>
