<svg width="105" height="71" viewBox="0 0 105 71" fill="none" xmlns="http://www.w3.org/2000/svg">
<path d="M19.5505 59.0531C18.8085 60.7516 17.5389 62.2976 15.3756 62.2976C13.5756 65.7624 5.97541 65.9567 5.97541 59.7384C3.7087 59.2202 1.37533 55.852 4.13246 52.7758C1.59908 50.5735 -0.824745 44.7756 4.13246 39.7563C1.59908 36.8414 1.17529 28.4526 9.53255 26.7367C8.66587 23.7571 10.3755 18.1866 18.1327 18.1866C17.3994 15.9195 18.4556 11.3134 24.3757 11.158C24.7757 8.24315 28.5758 3.61242 35.1759 5.36134C36.7093 2.83515 39.376 0.858929 44.3332 3.61242C46.2666 1.4749 51.3762 -0.740384 56.1763 3.61242C58.5097 2.57603 63.9364 0.697622 66.9765 5.36134C69.7765 3.80677 76.1338 3.0742 79.3338 8.82612C82.8006 8.50225 88.6969 8.67067 89.9769 15.8217C93.177 16.2103 97.377 19.3195 96.177 25.5378C97.577 25.9264 100.139 27.2531 101.177 30.7845C102.377 34.8652 100.377 37.5857 97.9771 39.3346C97.9771 39.3346 96.377 45.5529 89.3769 43.0267C87.0728 43.5134 84.5572 43.9513 82.4244 43.1195C84.2921 46.521 85.8771 50.6035 85.3769 54.686C84.9607 58.0821 80.2672 65.4385 79.3338 67.3169L62.3764 73.5683C61.2884 74.0213 61.1107 74.932 61.1985 75.5386C61.3499 75.4514 61.4767 75.3663 61.5764 75.2841C61.7472 76.5286 61.299 76.2328 61.1985 75.5386C58.0093 77.3735 43.8811 80.12 40.976 76.2557C37.9093 78.199 33.5759 78.199 31.3759 74.3125C28.3092 75.608 23.3328 75.9001 23.3328 69.0989C21.8661 68.5159 19.9757 64.7908 22.1328 62.2976L19.8981 59.1407C19.9405 58.8622 19.6633 58.795 19.5505 59.0531Z" fill="white" stroke="#EEEEEE"/>
<path d="M40.6421 49.1775C40.8084 50.9912 39.7325 52.5662 38.2391 52.6954C36.7457 52.8246 35.4003 51.4591 35.2341 49.6453C35.0679 47.8316 36.1437 46.2566 37.6371 46.1274C39.1305 45.9982 40.4759 47.3637 40.6421 49.1775Z" fill="#D7D7D7"/>
<path fill-rule="evenodd" clip-rule="evenodd" d="M50.7112 54.6956C50.8681 55.4169 51.7192 55.8903 52.8055 55.954C50.8543 59.6346 47.9796 61.0719 46.7846 61.335C46.2991 61.4419 45.9921 61.922 46.0988 62.4075C46.2055 62.8929 46.6856 63.1998 47.171 63.0929C48.8231 62.7291 51.9709 61.0643 54.1649 57.2166C58.3904 60.2304 62.6824 60.1617 64.5807 59.6079C65.3 59.3981 65.7019 58.6545 65.4783 57.9471C65.2548 57.2397 64.4904 56.8364 63.7711 57.0462C62.6356 57.3774 59.2604 57.5491 55.7834 55.086C56.3717 54.6269 56.6851 54.047 56.5649 53.4942C56.3528 52.5186 54.8704 51.9966 53.254 52.3284C51.6375 52.6601 50.4991 53.72 50.7112 54.6956Z" fill="#D7D7D7"/>
<path d="M55.9026 72.024C51.2671 77.7823 55.831 82.075 58.6924 83.5016C63.4129 89.3377 100.111 81.3617 103.116 75.1365C105.519 70.1564 100.827 64.6316 98.1798 62.4917C98.1798 54.8658 92.457 51.5328 89.5956 50.8195C90.454 43.5049 86.0904 41.4168 83.8012 41.2871C85.3034 35.6456 81.6552 32.9869 78.0069 32.9221C77.6635 29.1869 74.3586 28.9016 72.2125 28.8367C67.2337 25.7241 63.843 27.7993 62.1261 29.615C59.3264 28.8367 55.2543 32.9221 56.5464 36.8128C49.4855 39.5557 51.7535 47.7717 55.9026 53.543C51.7821 54.9436 54.1857 60.0924 55.9026 62.4917C51.9538 65.9155 54.2572 70.2731 55.9026 72.024Z" fill="white"/>
<path fill-rule="evenodd" clip-rule="evenodd" d="M66.0391 27.8188C64.4727 28.1505 63.2723 29.0584 62.4529 29.925L62.2666 30.122L62.0054 30.0494C60.8487 29.7279 59.2974 30.4076 58.1436 31.7564C57.0083 33.0835 56.3904 34.9168 56.9732 36.6718L57.1082 37.0781L56.7091 37.2331C55.0267 37.8867 53.9312 38.8519 53.2736 39.9974C52.6129 41.148 52.3722 42.5188 52.4696 44.0139C52.6651 47.017 54.2203 50.4333 56.2677 53.2812L56.6223 53.7744L56.0472 53.9699C55.1183 54.2856 54.6011 54.7926 54.332 55.3824C54.0555 55.9882 54.0154 56.7377 54.157 57.5681C54.4413 59.2357 55.4293 61.0582 56.2683 62.2307L56.5068 62.564L56.1971 62.8325C54.3496 64.4345 53.9843 66.2192 54.2485 67.8124C54.5181 69.438 55.4507 70.8871 56.2303 71.7167L56.4984 72.002L56.2529 72.307C55.134 73.6968 54.5911 74.9717 54.4256 76.1115C54.2604 77.2494 54.4668 78.2822 54.8938 79.1978C55.7558 81.0465 57.5178 82.4141 58.893 83.0997L58.9806 83.1434L59.0421 83.2195C59.5348 83.8287 60.5004 84.3133 61.9317 84.6349C63.3468 84.9529 65.1419 85.095 67.1997 85.083C71.3126 85.0589 76.4058 84.4196 81.4585 83.4018C86.5102 82.3842 91.5007 80.9924 95.4075 79.472C97.3618 78.7115 99.0329 77.9234 100.301 77.1406C101.587 76.347 102.394 75.598 102.71 74.9418C103.825 72.6328 103.313 70.167 102.144 67.9606C100.975 65.755 99.1846 63.8837 97.8967 62.8425L97.7296 62.7074V62.4925C97.7296 55.1433 92.2246 51.9395 89.4866 51.2569L89.1023 51.1611L89.1485 50.7678C89.5663 47.2079 88.7084 44.9929 87.5398 43.656C86.3602 42.3066 84.8164 41.7962 83.7756 41.7373L83.2241 41.706L83.3662 41.1722C84.0876 38.4632 83.5581 36.5497 82.4935 35.3069C81.4153 34.0481 79.7255 33.4035 77.9987 33.3728L77.5955 33.3657L77.5586 32.9641C77.4789 32.0974 77.2306 31.4574 76.891 30.978C76.5512 30.4981 76.1034 30.1558 75.5907 29.9095C74.5483 29.4088 73.2735 29.3198 72.1988 29.2874L72.077 29.2837L71.9738 29.2192C69.5675 27.7148 67.5928 27.4899 66.0391 27.8188ZM72.347 28.3916C69.8188 26.8399 67.6438 26.5591 65.8527 26.9383C64.1669 27.2953 62.874 28.2256 61.9795 29.1209C60.4026 28.8317 58.6511 29.7785 57.4597 31.1714C56.2626 32.5707 55.5093 34.5504 56.0022 36.551C54.3594 37.2665 53.212 38.297 52.493 39.5492C51.7227 40.8909 51.4658 42.4491 51.5715 44.0723C51.7709 47.1358 53.2655 50.508 55.2094 53.3403C54.3861 53.7354 53.8323 54.3094 53.5132 55.0087C53.1351 55.8373 53.1109 56.7875 53.2698 57.7193C53.5593 59.4175 54.4809 61.195 55.3078 62.4248C53.463 64.1821 53.0644 66.1734 53.3606 67.9597C53.637 69.6261 54.5121 71.0957 55.3165 72.0438C54.2704 73.4237 53.7149 74.7429 53.535 75.9822C53.3416 77.3133 53.5859 78.5226 54.0781 79.5782C55.0361 81.6326 56.9318 83.1076 58.4067 83.8624C59.104 84.6682 60.289 85.1883 61.7344 85.513C63.2415 85.8516 65.1114 85.9952 67.2049 85.9829C71.3945 85.9584 76.5487 85.3089 81.6362 84.284C86.7248 83.259 91.7672 81.8544 95.7339 80.3107C97.7163 79.5393 99.4421 78.7285 100.774 77.9064C102.089 77.095 103.086 76.233 103.521 75.333C104.81 72.6618 104.177 69.8751 102.939 67.5392C101.75 65.2959 99.9708 63.3988 98.6282 62.2786C98.5265 54.8462 93.1342 51.4085 90.0832 50.4883C90.4206 46.9475 89.5409 44.5777 88.2174 43.0636C87.0411 41.7181 85.5487 41.0886 84.3592 40.8973C84.9507 38.2126 84.3975 36.1463 83.1771 34.7214C81.9819 33.3261 80.1994 32.6083 78.4069 32.4895C78.2812 31.67 78.0097 31.0003 77.6255 30.4579C77.182 29.8317 76.605 29.3983 75.9804 29.0983C74.7938 28.5283 73.4048 28.4273 72.347 28.3916Z" fill="#D7D7D7"/>
<g filter="url(#filter0_f_1360_11578)">
<ellipse cx="6.99716" cy="2.3329" rx="6.99716" ry="2.3329" transform="matrix(0.99284 -0.119453 0.12643 0.991976 28.1802 55.5859)" fill="#F4F4F4"/>
</g>
<path fill-rule="evenodd" clip-rule="evenodd" d="M27.7861 40.4305C28.0116 40.326 28.2791 40.4241 28.3835 40.6497C29.1645 42.3359 29.0013 43.894 28.4805 45.1415C28.024 46.2348 27.2926 47.094 26.6768 47.6194C26.9108 48.8586 26.4975 50.1196 25.8802 51.1922C25.2101 52.3566 24.2608 53.3697 23.4568 54.015C23.263 54.1705 22.9797 54.1395 22.8242 53.9457C22.6686 53.7519 22.6996 53.4686 22.8934 53.3131C23.6228 52.7277 24.4935 51.7975 25.1001 50.7433C25.7108 49.6821 26.0157 48.5648 25.7412 47.5648L25.6605 47.2706L25.9039 47.0867C26.4498 46.6742 27.2049 45.8607 27.6499 44.7947C28.0891 43.7428 28.2259 42.4508 27.5669 41.0279C27.4624 40.8024 27.5606 40.5349 27.7861 40.4305Z" fill="#D7D7D7"/>
<g filter="url(#filter1_f_1360_11578)">
<path fill-rule="evenodd" clip-rule="evenodd" d="M64.3555 40.66C66.074 40.1069 66.9722 38.1632 66.3618 36.3186C65.7513 34.4741 63.8633 33.4272 62.1448 33.9804C60.4263 34.5336 59.528 36.4773 60.1385 38.3218C60.749 40.1663 62.637 41.2132 64.3555 40.66ZM61.4704 41.593C62.6222 42.7888 62.4884 44.508 61.1714 45.4328C59.8545 46.3577 57.8532 46.1381 56.7014 44.9423C55.5496 43.7465 55.6835 42.0274 57.0004 41.1025C58.3173 40.1776 60.3186 40.3972 61.4704 41.593ZM73.9338 39.0273C73.319 40.6322 74.0727 42.1458 75.6173 42.408C77.1618 42.6702 78.9123 41.5817 79.5271 39.9768C80.1419 38.3719 79.3882 36.8583 77.8436 36.5961C76.2991 36.3339 74.5486 37.4224 73.9338 39.0273ZM67.9139 35.9193C68.0326 37.8777 69.5628 39.2586 71.3317 39.0035C73.1005 38.7485 74.4382 36.9541 74.3195 34.9957C74.2008 33.0373 72.6706 31.6564 70.9018 31.9115C69.1329 32.1665 67.7952 33.9609 67.9139 35.9193ZM62.6936 53.0081C61.7736 51.7782 60.6308 48.2763 63.4196 44.1074C64.0119 43.1184 65.3901 41.2901 66.7973 40.6346C67.7355 40.1977 70.1848 39.635 72.8146 41.8133C72.9625 41.9357 73.1208 42.0592 73.2856 42.1876C74.7026 43.2926 76.6003 44.7723 76.4941 49.2558C76.4744 50.09 75.1173 52.1383 72.6962 52.4758C71.8897 52.4718 71.4087 52.2197 70.9732 51.9916C70.5191 51.7537 70.1147 51.5418 69.4427 51.6643C69.15 51.7642 68.509 52.0531 68.2869 52.4086C68.0092 52.8531 66.966 53.9086 65.4875 54.064C64.3047 54.1883 63.1321 53.4118 62.6936 53.0081Z" fill="#F4F4F4"/>
</g>
<g filter="url(#filter2_f_1360_11578)">
<path d="M67.6186 45.7449C67.126 46.4766 67.3261 47.0901 67.4877 47.3054C67.5648 47.3761 67.7711 47.5118 67.9794 47.4897C68.2399 47.462 68.4239 47.2766 68.473 47.1986C68.5122 47.1362 68.6252 47.0854 68.6768 47.0677C68.9087 47.0253 68.9594 47.2081 69.2495 47.209C69.676 47.1491 69.9157 46.7896 69.9194 46.6433C69.942 45.7659 69.5235 45.5454 69.2739 45.3398C68.8115 44.9587 68.3799 45.0581 68.2146 45.135C67.9665 45.2504 67.7232 45.5713 67.6186 45.7449Z" fill="white"/>
</g>
<defs>
<filter id="filter0_f_1360_11578" x="27.4688" y="53.6035" width="15.9067" height="6.92188" filterUnits="userSpaceOnUse" color-interpolation-filters="sRGB">
<feFlood flood-opacity="0" result="BackgroundImageFix"/>
<feBlend mode="normal" in="SourceGraphic" in2="BackgroundImageFix" result="shape"/>
<feGaussianBlur stdDeviation="0.5" result="effect1_foregroundBlur_1360_11578"/>
</filter>
<filter id="filter1_f_1360_11578" x="54.918" y="30.8809" width="25.8232" height="24.1973" filterUnits="userSpaceOnUse" color-interpolation-filters="sRGB">
<feFlood flood-opacity="0" result="BackgroundImageFix"/>
<feBlend mode="normal" in="SourceGraphic" in2="BackgroundImageFix" result="shape"/>
<feGaussianBlur stdDeviation="0.5" result="effect1_foregroundBlur_1360_11578"/>
</filter>
<filter id="filter2_f_1360_11578" x="66.3071" y="44.0625" width="4.61328" height="4.42969" filterUnits="userSpaceOnUse" color-interpolation-filters="sRGB">
<feFlood flood-opacity="0" result="BackgroundImageFix"/>
<feBlend mode="normal" in="SourceGraphic" in2="BackgroundImageFix" result="shape"/>
<feGaussianBlur stdDeviation="0.5" result="effect1_foregroundBlur_1360_11578"/>
</filter>
</defs>
</svg>
