<svg width="107" height="90" viewBox="0 0 107 90" fill="none" xmlns="http://www.w3.org/2000/svg">
<path d="M18.8372 61.4077C18.0729 63.2058 16.7661 64.8413 14.5406 64.8413C12.6872 68.513 4.8619 68.7189 4.8619 62.1292C2.52804 61.58 0.125521 58.0106 2.96435 54.7507C0.355904 52.4168 -2.13974 46.2726 2.96435 40.9534C0.355903 37.8645 -0.0804422 28.9745 8.52444 27.1561C7.63208 23.9986 9.39232 18.0952 17.3794 18.0952C16.6243 15.6927 17.7119 10.8115 23.8074 10.6468C24.2193 7.55785 28.1319 2.65049 34.9276 4.50389C36.5064 1.8268 39.2521 -0.267476 44.3562 2.65049C46.3469 0.385287 51.6079 -1.96233 56.5502 2.6505C58.9527 1.5522 64.5403 -0.438419 67.6704 4.50389C70.5534 2.85646 77.099 2.08013 80.3939 8.17564C83.9633 7.83243 90.0344 8.0109 91.3523 15.5891C94.6472 16.001 98.9717 19.2958 97.7362 25.8856C99.1777 26.2975 101.815 27.7033 102.884 31.4457C104.12 35.7702 102.061 38.6532 99.5895 40.5066C99.5895 40.5066 97.9421 47.0963 90.7345 44.4193C88.3622 44.935 85.772 45.3991 83.576 44.5176C85.4991 48.1223 87.131 52.4486 86.616 56.775C86.1875 60.374 81.3549 68.1698 80.3939 70.1605L62.9341 76.7852C61.8138 77.2653 61.6308 78.2304 61.7212 78.8732C61.8771 78.7809 62.0077 78.6907 62.1104 78.6036C62.2862 79.9224 61.8247 79.6089 61.7212 78.8732C58.4375 80.8178 43.8907 83.7283 40.8996 79.6332C37.742 81.6925 33.2802 81.6925 31.015 77.5739C27.8574 78.9468 22.7336 79.2563 22.7336 72.0488C21.2234 71.431 19.277 67.4834 21.498 64.8413L19.1971 61.4958C19.2396 61.2085 18.9509 61.1404 18.8372 61.4077Z" fill="#F8F8F8"/>
<path d="M40.5559 50.9382C40.7271 52.8603 39.6193 54.5294 38.0817 54.6663C36.544 54.8032 35.1588 53.3561 34.9876 51.434C34.8165 49.512 35.9242 47.8429 37.4619 47.7059C38.9995 47.569 40.3848 49.0162 40.5559 50.9382Z" fill="black"/>
<path fill-rule="evenodd" clip-rule="evenodd" d="M50.9233 56.7856C51.0813 57.5332 51.923 58.0294 53.0062 58.1141C51.0019 62.0009 48.0582 63.5059 46.8583 63.7778C46.3197 63.8998 45.982 64.4354 46.104 64.974C46.2261 65.5127 46.7617 65.8504 47.3003 65.7283C49.0143 65.3399 52.2249 63.589 54.4861 59.5821C58.8302 62.732 63.2396 62.6647 65.2183 62.0706C66.0118 61.8324 66.4619 60.9961 66.2237 60.2027C65.9854 59.4092 65.1491 58.9591 64.3557 59.1973C63.223 59.5374 59.7821 59.7275 56.2228 57.1355C56.7786 56.6597 57.0689 56.073 56.9505 55.5125C56.7321 54.4785 55.2058 53.9254 53.5414 54.277C51.8771 54.6285 50.7049 55.7517 50.9233 56.7856Z" fill="black"/>
<path d="M56.2682 75.1486C51.4953 81.2509 56.1945 85.8001 59.1407 87.3119C64.001 93.4966 101.787 85.0442 104.88 78.4471C107.355 73.1695 102.523 67.3146 99.7981 65.0469C99.7981 56.9655 93.9057 53.4333 90.9595 52.6774C91.8434 44.9259 87.3505 42.7131 84.9935 42.5757C86.5402 36.5971 82.7838 33.7796 79.0274 33.7109C78.6739 29.7527 75.2711 29.4503 73.0614 29.3816C67.9351 26.083 64.4438 28.2821 62.6761 30.2063C59.7934 29.3816 55.6007 33.7109 56.9311 37.8341C49.661 40.7408 51.9962 49.4476 56.2682 55.5637C52.0256 57.048 54.5004 62.5043 56.2682 65.0469C52.2024 68.6753 54.5741 73.2932 56.2682 75.1486Z" fill="#F8F8F8" stroke="black"/>
<g filter="url(#filter0_f_126_606)">
<ellipse cx="35.1812" cy="59.2947" rx="7.20754" ry="2.47116" transform="rotate(-7.05911 35.1812 59.2947)" fill="#FFD3D3"/>
</g>
<path d="M22.5713 55.6924C24.1501 54.3882 26.3192 51.5738 25.6602 49.1027C26.8958 48.1417 28.9963 45.3959 27.5136 42.1011" stroke="#2B2B2B" stroke-linecap="round"/>
<g filter="url(#filter1_f_126_606)">
<path fill-rule="evenodd" clip-rule="evenodd" d="M64.9717 41.9104C66.7412 41.3242 67.666 39.2644 67.0374 37.3096C66.4089 35.3549 64.4649 34.2455 62.6955 34.8317C60.9261 35.4179 60.0012 37.4778 60.6298 39.4325C61.2584 41.3872 63.2023 42.4966 64.9717 41.9104ZM62.0012 42.8991C63.1871 44.1663 63.0493 45.9882 61.6933 46.9683C60.3374 47.9484 58.2768 47.7157 57.0908 46.4484C55.9049 45.1812 56.0427 43.3594 57.3987 42.3793C58.7546 41.3991 60.8152 41.6319 62.0012 42.8991ZM74.8338 40.1801C74.2008 41.8809 74.9769 43.4849 76.5672 43.7628C78.1575 44.0406 79.9598 42.8871 80.5928 41.1863C81.2258 39.4855 80.4498 37.8815 78.8595 37.6037C77.2692 37.3258 75.4668 38.4793 74.8338 40.1801ZM68.6356 36.8864C68.7578 38.9618 70.3333 40.4252 72.1546 40.1549C73.9759 39.8846 75.3532 37.9831 75.231 35.9076C75.1087 33.8322 73.5332 32.3689 71.712 32.6392C69.8907 32.9095 68.5134 34.811 68.6356 36.8864ZM63.2606 54.996C62.3133 53.6927 61.1366 49.9816 64.0081 45.5636C64.6179 44.5156 66.037 42.5781 67.4859 41.8835C68.4518 41.4204 70.9737 40.8241 73.6815 43.1325C73.8337 43.2623 73.9967 43.3931 74.1664 43.5292C75.6254 44.7002 77.5793 46.2682 77.47 51.0196C77.4497 51.9036 76.0524 54.0743 73.5595 54.432C72.7292 54.4277 72.2339 54.1606 71.7855 53.9189C71.318 53.6668 70.9015 53.4422 70.2096 53.572C69.9082 53.6779 69.2483 53.984 69.0196 54.3608C68.7337 54.8318 67.6596 55.9504 66.1372 56.1151C64.9194 56.2468 63.7121 55.4239 63.2606 54.996Z" fill="#FFD3D3"/>
</g>
<g filter="url(#filter2_f_126_606)">
<path d="M68.3312 47.2988C67.824 48.0743 68.03 48.7245 68.1965 48.9526C68.2758 49.0275 68.4882 49.1714 68.7027 49.1479C68.9709 49.1185 69.1604 48.9221 69.2109 48.8394C69.2513 48.7733 69.3676 48.7194 69.4207 48.7007C69.6595 48.6557 69.7117 48.8494 70.0104 48.8504C70.4495 48.7869 70.6963 48.4059 70.7002 48.2509C70.7234 47.3211 70.2925 47.0875 70.0355 46.8695C69.5594 46.4657 69.1151 46.5711 68.9448 46.6526C68.6894 46.7748 68.4389 47.1149 68.3312 47.2988Z" fill="white"/>
</g>
<defs>
<filter id="filter0_f_126_606" x="27.0215" y="55.6865" width="16.3193" height="7.21631" filterUnits="userSpaceOnUse" color-interpolation-filters="sRGB">
<feFlood flood-opacity="0" result="BackgroundImageFix"/>
<feBlend mode="normal" in="SourceGraphic" in2="BackgroundImageFix" result="shape"/>
<feGaussianBlur stdDeviation="0.5" result="effect1_foregroundBlur_126_606"/>
</filter>
<filter id="filter1_f_126_606" x="55.2842" y="31.6069" width="26.5293" height="25.5222" filterUnits="userSpaceOnUse" color-interpolation-filters="sRGB">
<feFlood flood-opacity="0" result="BackgroundImageFix"/>
<feBlend mode="normal" in="SourceGraphic" in2="BackgroundImageFix" result="shape"/>
<feGaussianBlur stdDeviation="0.5" result="effect1_foregroundBlur_126_606"/>
</filter>
<filter id="filter2_f_126_606" x="67.0107" y="45.5767" width="4.69043" height="4.57373" filterUnits="userSpaceOnUse" color-interpolation-filters="sRGB">
<feFlood flood-opacity="0" result="BackgroundImageFix"/>
<feBlend mode="normal" in="SourceGraphic" in2="BackgroundImageFix" result="shape"/>
<feGaussianBlur stdDeviation="0.5" result="effect1_foregroundBlur_126_606"/>
</filter>
</defs>
</svg>
